<svg width="256" height="211" viewBox="0 0 256 211" fill="none" xmlns="http://www.w3.org/2000/svg">
<g clip-path="url(#clip0_1401_19742)">
<path d="M190.83 44.5331H162.608V85.4573H190.83V44.5331Z" fill="#999999"/>
<path d="M189.417 44.5331H161.196V85.4573H189.417V44.5331Z" fill="#DF2E38" fill-opacity="0.25"/>
<path d="M185.911 48.9639H164.702V81.0265H185.911V48.9639Z" fill="white"/>
<path d="M185.906 81.0208C185.906 81.0208 185.906 80.9702 185.906 80.8688V80.4128C185.906 80.0075 185.906 79.4219 185.906 78.6563C185.906 77.1193 185.906 74.8786 185.906 72.0467C185.906 66.4167 185.906 58.3884 185.872 48.9638L185.94 49.0314H164.736L164.815 48.9525C164.815 61.0457 164.815 72.1987 164.815 81.0096L164.753 80.9533H180.194H184.454H185.906H185.535H184.409H180.155H164.68H164.618V80.8914C164.618 72.0805 164.618 60.9275 164.618 48.8343V48.7555H185.974V48.8287C185.974 58.2758 185.945 66.2816 185.94 71.9622C185.94 74.7772 185.94 77.0292 185.94 78.5493C185.94 79.3093 185.94 79.8949 185.94 80.2946V80.7394C185.938 80.8341 185.927 80.9285 185.906 81.0208Z" fill="#999999"/>
<path d="M189.496 44.5331C189.351 44.7915 189.183 45.0365 188.995 45.265C188.669 45.6985 188.202 46.2953 187.673 46.954C187.144 47.6127 186.643 48.17 186.277 48.5754C186.087 48.8044 185.878 49.0172 185.652 49.2116C185.822 48.9634 186.01 48.7281 186.215 48.5078L187.577 46.8583L188.933 45.2087C189.1 44.9673 189.289 44.7413 189.496 44.5331Z" fill="#999999"/>
<path d="M186.019 80.9196C187.076 82.5961 188.318 84.1484 189.721 85.5474L186.019 80.9196Z" fill="white"/>
<path d="M189.721 85.5474C189.486 85.3839 189.269 85.1951 189.074 84.9844C188.583 84.4829 188.117 83.9568 187.679 83.408C187.24 82.8672 186.831 82.3034 186.452 81.719C186.281 81.4817 186.136 81.2269 186.019 80.959C186.213 81.1759 186.388 81.4095 186.542 81.6571C186.851 82.0962 187.29 82.693 187.797 83.3461C188.303 83.9992 188.798 84.5453 189.153 84.945C189.357 85.1316 189.547 85.3329 189.721 85.5474Z" fill="#999999"/>
<path d="M161.196 85.4236L164.887 80.8633L161.196 85.4236Z" fill="white"/>
<path d="M164.887 80.8633C164.333 81.6688 163.738 82.4449 163.103 83.1885C162.079 84.4496 161.224 85.4404 161.196 85.4404C161.749 84.6324 162.344 83.8544 162.98 83.1096C163.577 82.3292 164.214 81.5794 164.887 80.8633Z" fill="#999999"/>
<path d="M161.196 44.5331C161.834 45.2138 162.433 45.9299 162.991 46.6781C163.592 47.399 164.156 48.1507 164.679 48.9301C164.041 48.2494 163.442 47.5333 162.884 46.7851C162.28 46.0664 161.716 45.3146 161.196 44.5331Z" fill="#999999"/>
<path d="M179.305 55.472H172.203V75.6442H179.305V55.472Z" fill="#999999"/>
<path d="M134.697 159.035C133.413 159.46 132.228 160.138 131.213 161.031C130.198 161.924 129.373 163.013 128.788 164.232C127.635 166.681 127.057 169.362 127.1 172.069C127.032 177.288 129.289 182.85 131.911 187.36C136.723 184.128 138.557 177.665 139.283 174.326C140.409 169.046 139.283 158.816 134.702 159.035" fill="#DF2E38"/>
<path d="M125.8 195.219C126.283 193.785 126.379 192.248 126.076 190.765C125.774 189.281 125.084 187.905 124.078 186.774C123.055 185.664 121.822 184.769 120.45 184.14C119.078 183.512 117.595 183.163 116.087 183.115C114.697 183.042 113.155 183.256 112.221 184.292C111.814 184.802 111.551 185.412 111.459 186.058C111.367 186.705 111.45 187.364 111.698 187.968C112.211 189.172 113.034 190.219 114.084 191.002C117.533 193.817 121.399 195.94 125.8 195.208" fill="#FFE1FF"/>
<path d="M129.407 207.763C129.472 206.612 129.419 205.457 129.25 204.317C129.112 203.064 128.825 201.831 128.394 200.646C127.912 199.19 127.335 197.766 126.667 196.385C125.434 193.847 123.594 191.654 121.309 190C120.603 189.517 119.848 189.108 119.059 188.779C118.777 188.643 118.474 188.556 118.164 188.52C118.119 188.615 119.374 189.083 121.045 190.332C123.181 192.035 124.911 194.193 126.11 196.649C126.765 198.009 127.345 199.404 127.848 200.827C128.289 201.973 128.609 203.161 128.805 204.374C129.154 206.462 129.317 207.774 129.407 207.763Z" fill="#999999"/>
<path d="M134.871 166.917C134.691 167.468 134.559 168.033 134.477 168.606C134.264 169.732 133.977 171.309 133.639 173.285C132.958 177.226 132.086 182.709 131.264 188.779C130.443 194.848 129.863 200.359 129.525 204.362C129.357 206.361 129.238 207.977 129.176 209.097C129.11 209.676 129.098 210.261 129.143 210.842C129.279 210.277 129.365 209.7 129.402 209.12C129.542 207.898 129.722 206.305 129.964 204.402C130.409 200.416 131.056 194.915 131.872 188.857C132.688 182.8 133.498 177.417 134.072 173.347C134.342 171.444 134.562 169.856 134.731 168.646C134.827 168.075 134.874 167.496 134.871 166.917Z" fill="#999999"/>
<path d="M132.08 198.023C133.409 195.128 135.409 192.591 137.913 190.623C140.417 188.656 143.354 187.313 146.481 186.707C148.067 186.414 150.026 186.47 150.898 187.833C151.77 189.195 151.005 191.008 150.043 192.337C147.983 195.015 145.178 197.025 141.98 198.112C138.781 199.199 135.333 199.315 132.069 198.445" fill="#FFE1FF"/>
<path d="M144.263 190.901C143.956 190.916 143.654 190.98 143.368 191.093C142.806 191.25 141.99 191.526 141.005 191.892C138.4 192.839 135.992 194.259 133.903 196.081C132.777 197.122 131.826 198.339 131.089 199.684C130.5 200.788 130.066 201.968 129.801 203.191C129.62 204.009 129.515 204.842 129.486 205.68C129.434 205.983 129.434 206.294 129.486 206.597C129.604 206.597 129.649 205.297 130.172 203.293C130.86 200.683 132.286 198.327 134.28 196.509C136.328 194.74 138.646 193.311 141.146 192.275C143.087 191.436 144.308 190.991 144.263 190.901Z" fill="#999999"/>
<path d="M241.949 60.3757C241.949 60.3757 236.051 58.6361 233.665 72.1987C231.279 85.7613 231.088 93.2322 231.088 93.2322C231.088 93.2322 230.261 96.1767 228.077 95.0845C225.894 93.9923 222.185 90.147 219.569 91.8473C216.851 93.6095 216.89 97.2351 218.955 101.942C221.021 106.648 225.145 117.143 225.528 118.089C225.911 119.034 225.776 120.594 224.172 120.093C222.568 119.592 212.354 113.433 209.71 118.5C207.065 123.567 214.977 135.705 215.815 137.078C216.654 138.452 216.558 139.139 215.973 139.713C215.388 140.288 212.146 137.895 209.164 136.262C206.181 134.629 202.439 133.261 201.167 136.29C199.895 139.319 202.293 149.532 216.823 162.881L223.947 168.623L232.574 165.448C250.62 157.521 256.208 148.648 255.995 145.366C255.781 142.083 251.785 142.145 248.437 142.708C245.089 143.271 241.245 144.504 240.874 143.767C240.502 143.029 240.649 142.326 241.881 141.323C243.114 140.321 254.532 131.358 253.671 125.745C252.81 120.132 241.138 122.649 239.456 122.604C237.773 122.559 238.178 121.033 238.82 120.273C239.461 119.513 246.794 110.916 250.272 107.127C253.749 103.338 254.959 99.9263 252.961 97.3759C251.037 94.9156 246.276 97.3759 243.862 97.6799C241.448 97.9839 241.611 94.955 241.611 94.955C241.611 94.955 243.862 87.8275 245.984 74.2142C248.105 60.6009 241.819 60.3645 241.819 60.3645" fill="#DF2E38" fill-opacity="0.25"/>
<path d="M239.793 72.5309C239.793 72.5309 239.793 72.6266 239.765 72.818L239.647 73.6569C239.535 74.4057 239.371 75.4922 239.169 76.8772C238.747 79.6922 238.111 83.7233 237.306 88.7002C235.697 98.6934 233.367 112.476 230.728 127.693C228.089 142.911 225.719 156.688 224.059 166.67C223.232 171.652 222.562 175.678 222.101 178.493C221.87 179.878 221.69 180.958 221.538 181.707C221.476 182.062 221.431 182.338 221.392 182.54C221.353 182.743 221.33 182.822 221.33 182.822C221.33 182.822 221.33 182.726 221.364 182.535C221.398 182.343 221.431 182.056 221.476 181.696C221.589 180.947 221.752 179.861 221.955 178.476C222.377 175.661 223.013 171.63 223.817 166.653C225.427 156.66 227.757 142.872 230.401 127.654C233.046 112.436 235.427 98.6652 237.115 88.6607C237.936 83.6782 238.606 79.6528 239.073 76.8378L239.608 73.6231L239.754 72.7899C239.763 72.7029 239.776 72.6165 239.793 72.5309Z" fill="#999999"/>
<path d="M224.543 97.4548C224.698 97.6136 224.834 97.7893 224.949 97.9784C225.196 98.3275 225.511 98.8398 225.95 99.476C226.778 100.754 227.875 102.544 229.045 104.543L232.022 109.683L232.928 111.231C233.057 111.404 233.161 111.593 233.238 111.794C233.081 111.638 232.943 111.464 232.827 111.276C232.585 110.927 232.264 110.415 231.837 109.773C231.021 108.484 229.946 106.677 228.775 104.678L225.765 99.5604C225.404 98.9524 225.095 98.4345 224.847 98.0122C224.722 97.8406 224.62 97.6532 224.543 97.4548Z" fill="#999999"/>
<path d="M234.093 111.744C234.042 111.67 237.638 109.25 242.123 106.328C246.608 103.406 250.271 101.103 250.322 101.171C250.373 101.238 246.771 103.67 242.292 106.587C237.813 109.503 234.138 111.806 234.093 111.744Z" fill="#999999"/>
<path d="M228.995 134.917C229.197 134.817 229.411 134.739 229.631 134.686L231.386 134.151C232.866 133.695 234.915 133.064 237.143 132.282C239.371 131.499 241.375 130.739 242.821 130.171L244.509 129.501C244.714 129.401 244.932 129.329 245.156 129.287C244.97 129.415 244.77 129.522 244.56 129.608C244.166 129.799 243.598 130.064 242.872 130.373C241.454 130.992 239.462 131.798 237.244 132.575C235.027 133.351 232.945 133.96 231.448 134.359C230.694 134.556 230.086 134.708 229.659 134.804C229.443 134.868 229.22 134.906 228.995 134.917Z" fill="#999999"/>
<path d="M217.515 123.904C217.695 124.011 217.861 124.14 218.01 124.287C218.314 124.546 218.753 124.929 219.282 125.413C220.351 126.376 221.808 127.716 223.406 129.208C225.005 130.7 226.44 132.068 227.469 133.07C227.982 133.565 228.392 133.976 228.674 134.264C228.829 134.404 228.969 134.56 229.09 134.731C228.908 134.629 228.741 134.502 228.595 134.354C228.285 134.095 227.852 133.706 227.318 133.228C226.254 132.271 224.791 130.931 223.193 129.433C221.594 127.935 220.159 126.573 219.135 125.577C218.618 125.075 218.207 124.67 217.925 124.377C217.769 124.238 217.631 124.079 217.515 123.904Z" fill="#999999"/>
<path d="M210.413 143.801C210.64 143.943 210.852 144.109 211.043 144.296L212.681 145.732C214.054 146.953 215.934 148.654 218.004 150.551C220.075 152.448 221.944 154.177 223.266 155.438L224.836 156.947C225.042 157.115 225.23 157.304 225.399 157.51C225.174 157.364 224.963 157.198 224.768 157.014L223.131 155.579C221.758 154.357 219.878 152.651 217.807 150.759C215.737 148.868 213.868 147.134 212.551 145.872L210.965 144.397C210.76 144.218 210.575 144.018 210.413 143.801Z" fill="#999999"/>
<path d="M225.117 157.099C225.372 156.972 225.638 156.869 225.911 156.789L228.117 156.029C229.974 155.387 232.54 154.492 235.348 153.428C238.156 152.364 240.671 151.339 242.483 150.585L244.639 149.69C244.897 149.568 245.167 149.47 245.443 149.397C245.207 149.558 244.954 149.694 244.689 149.802C244.194 150.044 243.474 150.365 242.573 150.782C240.778 151.593 238.268 152.651 235.455 153.715C232.641 154.779 230.064 155.657 228.184 156.22C227.244 156.513 226.496 156.738 225.933 156.885C225.669 156.983 225.396 157.054 225.117 157.099Z" fill="#999999"/>
<path d="M44.0061 180.626C56.9997 173.206 61.2202 157.622 62.0136 143.339C62.1487 140.952 62.6383 138.475 61.6985 136.285C60.7587 134.095 58.2546 132.428 56.0374 133.233C54.1972 133.903 53.2237 135.885 52.0982 137.495C50.571 139.638 48.4703 141.307 46.0376 142.309C44.4506 142.956 42.5373 143.26 41.1192 142.309C39.1722 140.986 39.1891 138.131 39.431 135.772C39.8775 131.358 40.307 126.952 40.7197 122.553C40.9504 120.194 41.1811 117.779 40.6522 115.471C40.1232 113.162 38.6882 110.922 36.4992 110.088C34.3101 109.255 31.4064 110.291 30.7199 112.566C30.4385 113.511 30.5398 114.525 30.3879 115.499C30.2359 116.473 29.6732 117.52 28.6997 117.711C27.7261 117.903 26.8483 117.148 26.2067 116.388C23.9558 113.776 22.6108 110.55 21.3447 107.347C20.0785 104.143 18.863 100.883 16.8878 98.0741C14.9126 95.2647 12.0427 92.9283 8.6775 92.4441C5.31234 91.9599 1.51386 93.7052 0.354628 96.9481C-0.804609 100.191 0.821699 103.76 2.68998 106.654C5.47666 110.937 8.86536 114.795 12.7517 118.111C13.4495 118.708 14.2036 119.355 14.4399 120.256C14.8057 121.878 13.1681 123.308 11.57 123.685C9.75232 124.107 7.8559 123.747 5.99887 123.797C4.14184 123.848 2.05972 124.473 1.20999 126.156C0.0169867 128.482 1.80649 131.223 3.64101 133.042C7.31755 136.731 11.6028 139.757 16.3082 141.988C17.9964 142.782 19.7634 143.508 21.0521 144.859C22.3407 146.21 22.9935 148.412 21.9975 149.999C21.0014 151.587 18.773 151.925 16.9835 151.418C15.194 150.911 13.6577 149.774 11.9808 148.963C8.84632 147.438 4.63142 147.274 2.29607 149.892C0.759798 151.615 0.405274 154.171 0.894854 156.434C1.38444 158.698 2.6112 160.724 3.93926 162.627C8.58183 169.214 14.7944 174.743 22.0931 178.048C29.3918 181.353 36.2966 182.698 44.0398 180.649" fill="#DF2E38" fill-opacity="0.25"/>
<path d="M43.2294 191.199C43.1699 184.535 42.4745 177.892 41.1529 171.359C39.4978 163.384 37.3879 155.51 34.8334 147.775L32.8413 141.689C32.1885 139.691 31.5413 137.709 30.7873 135.806C29.3375 132.161 27.6861 128.599 25.8408 125.137C24.102 121.821 22.335 118.736 20.658 115.865C18.9811 112.993 17.3548 110.347 15.7791 107.983C13.3062 104.272 10.5439 100.763 7.51814 97.4885C6.44894 96.3287 5.59358 95.4561 5.00271 94.8706L4.32743 94.2119C4.25272 94.1341 4.17179 94.0625 4.08545 93.9979C4.14884 94.0836 4.21843 94.1645 4.29366 94.24L4.94081 94.9325C5.50354 95.5349 6.34765 96.4301 7.39434 97.6067C10.3656 100.922 13.0837 104.457 15.5259 108.18C17.0847 110.528 18.6828 113.179 20.3485 116.062C22.0142 118.944 23.77 122.03 25.4919 125.34C27.3233 128.786 28.967 132.329 30.4159 135.952C31.1587 137.844 31.8002 139.809 32.4474 141.813C33.0945 143.818 33.7529 145.844 34.4226 147.905C36.9682 155.62 39.0836 163.471 40.759 171.421C42.0934 177.927 42.8169 184.542 42.9199 191.182" fill="#999999"/>
<path d="M30.686 135.778C30.8355 135.464 30.9451 135.133 31.0124 134.793C31.1981 134.151 31.4289 133.216 31.7046 132.051C32.2673 129.726 32.9032 126.494 33.6066 122.925C34.3101 119.355 35.0022 116.141 35.5875 113.832C35.8745 112.706 36.1164 111.744 36.2965 111.102C36.4064 110.773 36.4818 110.433 36.5216 110.088C36.3548 110.393 36.2245 110.716 36.1333 111.051C35.9082 111.682 35.6156 112.605 35.2892 113.753C34.6252 116.045 33.8824 119.265 33.179 122.84L31.4007 132.011C31.1812 133.109 30.9955 134.038 30.838 134.781C30.7561 135.108 30.7052 135.442 30.686 135.778Z" fill="#999999"/>
<path d="M0.827637 127.316C1.21913 127.435 1.62016 127.52 2.02626 127.569C2.80284 127.71 3.92269 127.907 5.29576 128.2C8.05317 128.763 11.8291 129.653 15.954 130.829C20.0788 132.006 23.7648 133.245 26.4096 134.207C27.7321 134.68 28.7956 135.091 29.5272 135.373C29.8996 135.543 30.2879 135.677 30.6864 135.772C30.342 135.549 29.9763 135.361 29.5947 135.209C28.88 134.877 27.8334 134.421 26.5165 133.909C23.8942 132.862 20.2139 131.584 16.0722 130.396C12.5444 129.373 8.96631 128.533 5.35204 127.879C3.96771 127.631 2.83661 127.479 2.0544 127.389C1.64902 127.323 1.23798 127.299 0.827637 127.316Z" fill="#999999"/>
<path d="M40.8267 170.768C40.9245 170.663 41.0061 170.543 41.0686 170.414L41.6933 169.361C42.256 168.449 42.9651 167.109 43.8542 165.42C45.6381 162.076 47.9622 157.375 50.4494 152.15C52.9367 146.925 55.2102 142.207 56.9265 138.829L58.9636 134.832L59.5264 133.74C59.5957 133.615 59.6504 133.483 59.6896 133.346C59.5946 133.452 59.5133 133.569 59.4476 133.695L58.8286 134.748C58.294 135.665 57.5568 137 56.6621 138.689C54.8782 142.038 52.5597 146.74 50.0668 151.964C47.5739 157.189 45.306 161.901 43.5953 165.285L41.5526 169.282L40.9899 170.374C40.9175 170.497 40.8626 170.63 40.8267 170.768Z" fill="#999999"/>
<path d="M1.64893 154.047C1.76789 154.133 1.89868 154.201 2.03721 154.25L3.16269 154.751L7.35507 156.553C10.9003 158.067 15.7961 160.223 21.1421 162.61C26.4881 164.998 31.4064 167.114 34.9854 168.556C36.7693 169.282 38.2212 169.851 39.2341 170.245L40.3989 170.673C40.5328 170.728 40.6725 170.767 40.8154 170.791C40.6991 170.704 40.57 170.635 40.4327 170.588L39.3072 170.087L35.0923 168.269C31.5471 166.748 26.6513 164.592 21.3053 162.205C15.9593 159.818 11.0354 157.701 7.46199 156.26C5.67812 155.539 4.22626 154.965 3.21333 154.571L2.04847 154.149C1.91971 154.099 1.78561 154.065 1.64893 154.047Z" fill="#999999"/>
<path d="M83.9549 10.7983V57.2681H17.2481L14.8452 11.1249L83.9549 10.7983Z" fill="#999999"/>
<path d="M14.8452 11.1305L14.8452 57.1724L81.552 57.1724V11.1305L14.8452 11.1305Z" fill="white"/>
<path d="M81.8729 57.4877H14.5303V10.8096H81.8729V57.4877ZM15.1662 56.8515H81.237V11.4401H15.1662V56.8515Z" fill="#999999"/>
<path d="M74.3265 16.8448H22.0708V51.4466H74.3265V16.8448Z" fill="white"/>
<path d="M74.3318 16.8449H74.073H73.3583H70.4883L59.7176 16.8843L22.0987 16.9575L22.2506 16.8055C22.2506 27.3785 22.2506 39.0945 22.2506 51.4072L22.0818 51.244L74.3431 51.2778L74.208 51.4072C74.2418 40.8792 74.2643 32.2654 74.2812 26.2357C74.2812 23.2292 74.2812 20.8816 74.315 19.2714C74.315 18.4776 74.315 17.8639 74.315 17.4416C74.315 17.0194 74.315 16.8055 74.315 16.8055C74.315 16.8055 74.315 17.0081 74.315 17.4135C74.315 17.8188 74.315 18.4325 74.315 19.2207C74.315 20.8196 74.315 23.1617 74.3487 26.1512C74.3487 32.1809 74.3881 40.8454 74.4163 51.4072V51.5424H74.2868L22.0255 51.5761H21.8623V51.4072C21.8623 39.0945 21.8623 27.3785 21.8623 16.8055V16.6534H22.0086L59.712 16.7323L70.449 16.7717H73.2626H73.9886L74.3318 16.8449Z" fill="#999999"/>
<path d="M14.8339 10.9954C15.2365 11.1988 15.6142 11.4482 15.9594 11.7385C16.6459 12.234 17.5745 12.9321 18.5761 13.7372C19.5778 14.5422 20.4613 15.2967 21.0859 15.8653C21.4435 16.1498 21.7631 16.479 22.037 16.8449C21.9751 16.9181 20.3488 15.595 18.3679 13.9905C16.3871 12.386 14.7889 11.0742 14.8339 10.9954Z" fill="#999999"/>
<path d="M81.5576 11.1249C80.4601 12.2042 79.2866 13.2032 78.0461 14.1144C76.8753 15.1127 75.634 16.0252 74.332 16.8449C75.4368 15.7671 76.6158 14.7681 77.8604 13.8554C79.0264 12.8585 80.2619 11.946 81.5576 11.1249Z" fill="#999999"/>
<path d="M81.5011 57.178L74.0674 51.1427L81.5011 57.178Z" fill="white"/>
<path d="M74.0677 51.1427C75.4032 52.0206 76.6796 52.9854 77.8886 54.0309C79.1645 54.9947 80.3717 56.0463 81.5014 57.178C80.1643 56.3024 78.8877 55.3375 77.6804 54.2899C75.6095 52.629 74.0058 51.2159 74.0677 51.1427Z" fill="#999999"/>
<path d="M14.834 57.1723C15.921 56.1033 17.0832 55.1137 18.3117 54.2109C19.4714 53.2246 20.6993 52.3215 21.9864 51.5085C20.9021 52.5784 19.7417 53.5681 18.5143 54.4699C17.3528 55.4565 16.123 56.3595 14.834 57.1723Z" fill="#999999"/>
<path d="M32.6841 27.6319V39.2184H65.5648V27.6319H32.6841Z" fill="#999999"/>
<path d="M237.992 0H202.326V51.7225H237.992V0Z" fill="#999999"/>
<path d="M236.209 0H200.542V51.7225H236.209V0Z" fill="#DF2E38" fill-opacity="0.25"/>
<path d="M231.774 5.60181H204.971V46.1207H231.774V5.60181Z" fill="white"/>
<path d="M231.78 46.1207C231.78 46.1207 231.78 46.0531 231.78 45.9237V45.3607C231.78 44.8483 231.78 44.1052 231.78 43.1368C231.78 41.1945 231.78 38.3682 231.78 34.7932C231.78 27.6488 231.752 17.5261 231.735 5.61307L231.825 5.70315H204.971L205.072 5.60744C205.072 20.8928 205.072 34.9846 205.072 46.1432L204.994 46.0644L224.504 46.1094H229.895H231.313H231.802H231.33H229.928H224.554L204.994 46.1489H204.92V46.07C204.92 34.9283 204.92 20.8365 204.92 5.53425V5.5061H231.932V5.59618C231.932 17.5373 231.904 27.6713 231.892 34.8326C231.892 38.3964 231.892 41.2226 231.864 43.1593C231.864 44.1164 231.864 44.8483 231.864 45.3607V45.9237C231.78 46.0588 231.78 46.1207 231.78 46.1207Z" fill="#999999"/>
<path d="M236.31 0C236.129 0.32796 235.916 0.637234 235.674 0.923317C235.258 1.48631 234.672 2.2351 233.986 3.05144C233.299 3.86779 232.686 4.58843 232.219 5.10075C231.988 5.38925 231.732 5.65677 231.454 5.90021C231.654 5.58431 231.882 5.28665 232.135 5.01067L233.851 2.92758C234.498 2.13376 235.089 1.41875 235.567 0.838866C235.791 0.538658 236.039 0.258022 236.31 0Z" fill="#999999"/>
<path d="M231.915 45.9912C233.25 48.1101 234.819 50.0723 236.591 51.8407L231.915 45.9912Z" fill="white"/>
<path d="M236.592 51.8407C236.295 51.6217 236.021 51.3727 235.776 51.0976C235.297 50.6134 234.65 49.9209 234.009 49.1102C233.457 48.4159 232.941 47.6943 232.461 46.9483C232.242 46.6493 232.053 46.3286 231.898 45.9912C232.141 46.2682 232.361 46.5637 232.557 46.8751C232.951 47.4381 233.502 48.1813 234.144 48.9864C234.785 49.7914 235.404 50.5008 235.86 51.0019C236.124 51.2635 236.368 51.5439 236.592 51.8407Z" fill="#999999"/>
<path d="M200.537 51.6832L205.208 45.9181L200.537 51.6832Z" fill="white"/>
<path d="M205.208 45.9181C204.51 46.9391 203.759 47.922 202.957 48.8626C201.662 50.4502 200.582 51.717 200.542 51.6775C201.241 50.6575 201.992 49.6746 202.793 48.7331C203.549 47.7535 204.355 46.8139 205.208 45.9181Z" fill="#999999"/>
<path d="M200.537 0C201.336 0.863484 202.087 1.76934 202.788 2.71364C203.543 3.61376 204.249 4.55341 204.904 5.52863C204.104 4.6668 203.352 3.76084 202.653 2.81498C201.898 1.91487 201.192 0.975215 200.537 0Z" fill="#999999"/>
<path d="M223.423 13.8271H214.448V39.3197H223.423V13.8271Z" fill="#999999"/>
<path d="M245.516 210.831C245.516 210.916 190.694 210.978 123.093 210.978C55.4912 210.978 0.658203 210.938 0.658203 210.831C0.658203 210.724 55.4631 210.685 123.093 210.685C190.722 210.685 245.516 210.775 245.516 210.831Z" fill="#263238"/>
<path d="M176.733 113.433C177.151 115.133 177.102 116.914 176.592 118.589C176.082 120.263 175.129 121.769 173.835 122.947C172.119 124.467 169.896 125.346 168.32 127.018C167.345 128.13 166.674 129.475 166.373 130.924C166.073 132.372 166.152 133.874 166.604 135.283C167.082 136.681 167.839 137.968 168.828 139.065C169.818 140.162 171.019 141.048 172.361 141.667C174.187 142.521 176.189 142.93 178.204 142.861C180.219 142.793 182.189 142.249 183.953 141.273C188.303 138.813 190.835 133.875 191.477 128.915C192.118 123.955 191.111 118.933 189.788 114.108" fill="#263238"/>
<path d="M231.594 200.894C236.096 200.157 240.317 201.53 244.774 202.516C245.959 202.867 247.21 202.935 248.426 202.713C250.356 202.217 251.729 200.337 252.027 198.366C252.268 196.64 251.868 194.885 250.902 193.435C250.514 192.809 249.986 192.283 249.36 191.898C248.689 191.561 247.954 191.369 247.205 191.335C244.473 191.115 241.733 191.632 239.27 192.832C236.814 194.027 234.585 195.643 232.686 197.606C231.741 198.552 232.022 199.639 231.605 200.911" fill="#263238"/>
<path d="M140.324 128.2C139.602 123.905 139.69 119.514 140.583 115.251C140.96 113.167 141.724 111.172 142.834 109.368C143.212 108.695 143.788 108.155 144.483 107.82C144.987 107.652 145.529 107.628 146.047 107.75C146.564 107.872 147.038 108.136 147.414 108.512C147.895 109.013 148.264 109.61 148.497 110.264C148.73 110.918 148.821 111.615 148.765 112.307C148.665 113.691 148.326 115.047 147.763 116.315C146.024 120.763 143.261 124.456 140.307 128.194" fill="#263238"/>
<path d="M227.548 144.476C228.566 145.203 251.183 193.941 251.183 193.941C249.364 193.164 247.349 192.967 245.415 193.378L244.188 193.705C241.992 194.295 239.91 195.247 238.026 196.52L231.571 200.889C231.316 200.742 231.099 200.536 230.94 200.288C230.78 200.04 230.682 199.758 230.654 199.464V199.278L213.119 169.169L227.548 144.476Z" fill="#DF2E38"/>
<path d="M142.626 66.884L148.658 101.187C150.6 105.804 173.238 133.774 173.238 133.774L165.754 157.836L136.019 117.16C133.258 114.206 131.756 110.292 131.832 106.249L132.992 69.5977L142.626 66.884Z" fill="#FFBE9D"/>
<path d="M174.73 128.397L190.255 129.574L203.795 131.674C203.795 131.674 227.548 137.917 227.548 140.518C227.548 141.385 221.065 162.042 217.419 174.416C216.525 177.422 215.796 180.474 215.235 183.56L227.548 210.831H169.119V185.828C169.119 185.828 165.18 152.989 165.872 148.502C166.564 144.015 174.73 128.397 174.73 128.397Z" fill="#DF2E38"/>
<path d="M135.259 53.023C135.351 49.5291 135.708 46.0472 136.328 42.6076C136.413 42.1178 136.615 41.5266 137.105 41.4816C137.713 41.4028 138.022 42.1853 138.101 42.7934C138.641 46.9415 138.468 51.1515 137.589 55.2412" fill="#EB996E"/>
<path d="M142.181 125.661C148.844 119.704 149.069 109.385 148.5 101.171C148.389 100.571 148.48 99.9509 148.759 99.4084C149.395 98.502 150.943 98.8454 151.573 99.7575C152.203 100.67 152.136 101.869 152.102 102.972C152.445 102.038 153.908 102.043 154.595 102.764C155.281 103.484 155.399 104.571 155.478 105.579L155.698 108.326L175.163 126.905C175.163 126.905 175.697 125.216 177.127 126.19C178.556 127.164 179.479 129.219 179.479 129.219L165.765 159.165L140.312 128.2C140.802 127.263 141.432 126.407 142.181 125.661Z" fill="#DF2E38"/>
<path d="M168.596 146.385C166.565 148.976 165.048 151.933 164.127 155.094C163.21 158.277 163.31 161.667 164.414 164.789C165.269 166.95 166.668 168.852 168.476 170.31C170.283 171.768 172.438 172.733 174.729 173.11" fill="#DF2E38"/>
<path d="M231.594 200.894L230.857 210.831H245.28L248.656 193.238C244.263 192.992 239.93 194.35 236.462 197.06L231.594 200.894Z" fill="#FFBE9D"/>
<path d="M148.962 123.46C149.043 123.186 149.149 122.921 149.277 122.666C149.502 122.17 149.806 121.438 150.149 120.526C150.493 119.614 150.858 118.511 151.202 117.272C151.558 115.92 151.842 114.55 152.051 113.168C152.246 111.785 152.364 110.392 152.406 108.996C152.406 107.707 152.406 106.547 152.327 105.573C152.248 104.599 152.175 103.817 152.102 103.276C152.053 102.995 152.027 102.711 152.023 102.426C152.115 102.697 152.179 102.976 152.215 103.259C152.36 104.019 152.468 104.786 152.535 105.556C152.645 106.701 152.692 107.852 152.676 109.002C152.633 111.822 152.225 114.625 151.46 117.34C151.146 118.447 150.77 119.535 150.335 120.6C149.964 121.512 149.632 122.232 149.373 122.716C149.255 122.974 149.117 123.223 148.962 123.46Z" fill="#263238"/>
<path d="M153.199 118.229C153.383 117.745 153.593 117.271 153.829 116.811C154.815 114.526 155.386 112.084 155.518 109.599C155.517 109.081 155.545 108.565 155.602 108.05C155.713 108.56 155.754 109.083 155.726 109.604C155.707 112.129 155.13 114.619 154.038 116.895C153.823 117.377 153.54 117.827 153.199 118.229Z" fill="#263238"/>
<path d="M176.057 133.802C176.012 133.774 176.249 133.408 176.384 132.743C176.542 131.875 176.491 130.982 176.238 130.137C175.97 129.286 175.645 128.455 175.264 127.648C175.086 127.315 174.954 126.959 174.87 126.59C175.093 126.891 175.282 127.216 175.433 127.558C175.878 128.351 176.238 129.189 176.508 130.058C176.777 130.947 176.798 131.893 176.57 132.794C176.499 133.172 176.321 133.522 176.057 133.802Z" fill="#263238"/>
<path d="M172.676 173.459C172.588 173.423 172.504 173.376 172.428 173.319L171.764 172.88C171.201 172.491 170.363 171.922 169.384 171.151C168.226 170.259 167.168 169.246 166.227 168.128C165.069 166.744 164.234 165.119 163.784 163.371C163.355 161.622 163.244 159.81 163.458 158.022C163.631 156.572 163.953 155.144 164.42 153.76C164.73 152.828 165.089 151.913 165.495 151.018C165.641 150.703 165.754 150.455 165.838 150.298C165.876 150.21 165.923 150.127 165.979 150.05C165.873 150.395 165.747 150.733 165.602 151.063C165.349 151.705 164.983 152.64 164.617 153.822C164.185 155.199 163.887 156.615 163.728 158.05C163.532 159.806 163.646 161.582 164.066 163.297C164.504 165.006 165.313 166.598 166.435 167.959C167.356 169.07 168.387 170.085 169.513 170.988C170.47 171.776 171.274 172.367 171.831 172.789L172.462 173.274C172.608 173.386 172.681 173.448 172.676 173.459Z" fill="#263238"/>
<path d="M204.555 179.027C204.477 179.069 204.393 179.099 204.307 179.118C204.138 179.163 203.896 179.247 203.576 179.309C202.669 179.506 201.746 179.617 200.818 179.641C197.726 179.736 194.676 178.903 192.061 177.248C189.446 175.593 187.387 173.193 186.148 170.357C185.77 169.509 185.474 168.627 185.264 167.722C185.185 167.402 185.157 167.159 185.123 166.979C185.104 166.892 185.095 166.804 185.095 166.715C185.21 167.033 185.304 167.358 185.377 167.689C186.272 171.088 188.278 174.09 191.075 176.218C193.872 178.346 197.299 179.477 200.812 179.433C201.731 179.428 202.647 179.349 203.553 179.196C203.884 179.122 204.218 179.066 204.555 179.027Z" fill="#263238"/>
<path d="M213.508 190C213.429 190 214.172 186.864 215.196 183.047C216.22 179.23 217.064 176.15 217.137 176.173C217.21 176.195 216.473 179.303 215.477 183.12C214.481 186.937 213.586 190 213.508 190Z" fill="#263238"/>
<path d="M221.358 183.363C221.29 183.402 219.028 179.703 216.293 175.098C213.558 170.492 211.42 166.726 211.493 166.687C211.566 166.647 213.823 170.34 216.558 174.946C219.293 179.551 221.453 183.318 221.358 183.363Z" fill="#263238"/>
<path d="M242.961 192.477C242.961 192.534 242.14 192.601 240.857 192.928C240.107 193.118 239.372 193.361 238.656 193.654C237.783 194.024 236.941 194.46 236.135 194.96C235.34 195.472 234.588 196.046 233.884 196.677C233.311 197.202 232.775 197.766 232.28 198.366C231.436 199.385 231.02 200.1 230.969 200.055C231.037 199.873 231.126 199.699 231.234 199.537C231.494 199.076 231.79 198.636 232.117 198.22C232.598 197.598 233.127 197.014 233.699 196.475C234.406 195.819 235.171 195.227 235.983 194.707C236.803 194.197 237.665 193.76 238.561 193.401C239.291 193.112 240.044 192.884 240.812 192.719C241.326 192.6 241.849 192.521 242.376 192.483C242.57 192.453 242.767 192.451 242.961 192.477Z" fill="#263238"/>
<path d="M245.719 189.088C245.719 189.15 244.813 189.037 243.367 189.161C242.523 189.238 241.687 189.384 240.868 189.6C238.86 190.134 236.983 191.075 235.353 192.365C234.691 192.892 234.073 193.474 233.508 194.104C232.545 195.185 232.095 195.974 232.044 195.945C232.12 195.746 232.22 195.557 232.343 195.382C232.463 195.165 232.599 194.956 232.748 194.758C232.935 194.485 233.136 194.222 233.35 193.969C233.903 193.309 234.517 192.702 235.185 192.156C236.01 191.494 236.9 190.917 237.841 190.434C238.788 189.97 239.779 189.604 240.801 189.341C241.638 189.131 242.493 189.001 243.355 188.953C243.683 188.937 244.012 188.937 244.34 188.953C244.59 188.954 244.84 188.969 245.089 188.998C245.302 189.001 245.514 189.032 245.719 189.088Z" fill="#263238"/>
<g opacity="0.3">
<path d="M185.697 167.914C184.375 170.425 185.478 173.487 186.688 176.06C187.627 178.053 188.674 180.075 190.385 181.465C191.225 182.153 192.199 182.659 193.244 182.952C194.29 183.245 195.384 183.319 196.46 183.169C197.535 183.019 198.568 182.648 199.493 182.08C200.418 181.511 201.216 180.758 201.836 179.866C198.249 179.813 194.762 178.675 191.833 176.602C188.905 174.529 186.671 171.618 185.427 168.252" fill="black"/>
</g>
<g opacity="0.3">
<path d="M211.532 166.687C210.519 169.102 211.285 172.407 212.343 174.799C213.401 177.192 214.526 179.866 213.676 182.349C213.457 182.79 213.344 183.276 213.344 183.768C213.401 184.252 213.907 184.719 214.363 184.494C214.599 184.328 214.762 184.079 214.819 183.796C215.618 181.386 216.419 178.979 217.222 176.573" fill="black"/>
</g>
<path d="M158.298 134.883C158.389 133.371 158.576 131.866 158.861 130.379C159.052 128.883 159.339 127.401 159.722 125.942C159.637 127.455 159.449 128.96 159.159 130.446C158.969 131.942 158.682 133.424 158.298 134.883Z" fill="#FAFAFA"/>
<path d="M152.372 133.639C152.299 133.684 151.331 132.333 149.992 130.779C148.652 129.225 147.471 128.059 147.527 127.997C148.536 128.736 149.441 129.607 150.217 130.587C151.064 131.507 151.789 132.532 152.372 133.639Z" fill="#FAFAFA"/>
<path d="M157.459 119.136C157.29 119.499 157.076 119.839 156.823 120.149C156.396 120.752 155.771 121.557 155.045 122.401C154.319 123.246 153.622 124.006 153.098 124.524C152.836 124.825 152.535 125.09 152.203 125.312C152.142 125.256 153.374 123.921 154.82 122.21C156.266 120.498 157.392 119.063 157.459 119.136Z" fill="#FAFAFA"/>
<path d="M155.473 112.048C155.388 112.081 155.068 111.366 154.449 110.651C153.83 109.936 153.166 109.525 153.211 109.441C153.796 109.61 154.309 109.968 154.668 110.46C155.101 110.888 155.383 111.445 155.473 112.048Z" fill="#FAFAFA"/>
<path d="M150.34 116.417C149.881 116.633 149.384 116.761 148.877 116.794C148.385 116.922 147.873 116.953 147.369 116.884C148.32 116.539 149.329 116.38 150.34 116.417Z" fill="#FAFAFA"/>
<path d="M163.289 122.671C163.302 121.795 163.24 120.919 163.103 120.054C162.87 119.208 162.563 118.385 162.186 117.593C162.824 118.249 163.243 119.087 163.385 119.992C163.625 120.874 163.592 121.809 163.289 122.671Z" fill="#FAFAFA"/>
<path d="M170.205 130.114C169.167 128.457 167.774 127.051 166.125 125.999C167.056 126.36 167.9 126.913 168.603 127.622C169.306 128.331 169.852 129.18 170.205 130.114Z" fill="#FAFAFA"/>
<path d="M159.102 143.029C157.427 143.657 155.571 143.595 153.942 142.855C153.97 142.77 155.067 143.125 156.514 143.165C157.96 143.204 159.08 142.945 159.102 143.029Z" fill="#FAFAFA"/>
<path d="M164.313 145.704C164.235 145.67 164.674 144.375 165.039 142.731C165.405 141.087 165.568 139.725 165.653 139.736C165.711 140.766 165.6 141.798 165.326 142.793C165.148 143.811 164.806 144.794 164.313 145.704Z" fill="#FAFAFA"/>
<path d="M175.697 146.137C174.807 145.385 173.984 144.556 173.238 143.66C172.415 142.831 171.662 141.934 170.987 140.98C171.874 141.737 172.695 142.567 173.441 143.463C174.264 144.292 175.018 145.187 175.697 146.137Z" fill="#FAFAFA"/>
<path d="M180.998 159.294C180.323 158.804 179.708 158.238 179.164 157.605C178.554 157.038 178.01 156.404 177.543 155.714C178.218 156.204 178.833 156.77 179.377 157.403C179.993 157.965 180.537 158.6 180.998 159.294Z" fill="#FAFAFA"/>
<path d="M171.145 160.55C170.498 161.239 169.736 161.81 168.894 162.239C168.101 162.767 167.221 163.148 166.294 163.365C166.294 163.286 167.419 162.802 168.747 162.008C170.076 161.214 171.088 160.482 171.145 160.55Z" fill="#FAFAFA"/>
<path d="M175.68 173.065C175.596 173.065 175.934 171.568 176.102 169.716C176.271 167.863 176.221 166.338 176.305 166.338C176.512 167.452 176.542 168.592 176.395 169.716C176.339 170.863 176.098 171.995 175.68 173.065Z" fill="#FAFAFA"/>
<path d="M192.737 162.892C191.807 162.323 190.983 161.597 190.301 160.747C189.548 159.961 188.94 159.048 188.505 158.05C188.579 157.999 189.349 159.221 190.52 160.555C191.69 161.89 192.793 162.819 192.737 162.892Z" fill="#FAFAFA"/>
<path d="M198.967 168.201C198.899 168.15 199.754 166.979 200.711 165.476C201.668 163.973 202.371 162.712 202.444 162.751C202.079 163.775 201.578 164.744 200.953 165.634C200.413 166.577 199.744 167.441 198.967 168.201Z" fill="#FAFAFA"/>
<path d="M198.055 155.207C196.134 154.888 194.249 154.378 192.428 153.687C193.398 153.803 194.355 154.01 195.286 154.306C196.237 154.512 197.165 154.814 198.055 155.207Z" fill="#FAFAFA"/>
<path d="M193.514 178.076C193.414 177.189 193.414 176.294 193.514 175.407C193.521 174.515 193.623 173.626 193.818 172.756C193.919 173.642 193.919 174.538 193.818 175.424C193.812 176.316 193.71 177.206 193.514 178.076Z" fill="#FAFAFA"/>
<path d="M197.441 185.907C197.736 184.998 197.973 184.071 198.15 183.132C198.228 182.179 198.243 181.221 198.195 180.266C198.486 181.203 198.569 182.192 198.439 183.164C198.308 184.136 197.968 185.069 197.441 185.896V185.907Z" fill="#FAFAFA"/>
<path d="M187.262 184.179C186.975 182.234 187.355 180.249 188.342 178.549C188.421 178.583 187.903 179.771 187.61 181.33C187.318 182.89 187.346 184.173 187.262 184.179Z" fill="#FAFAFA"/>
<path d="M177.976 188.148C177.059 187.51 176.176 186.825 175.332 186.093C174.428 185.438 173.558 184.737 172.726 183.993C173.738 184.497 174.683 185.125 175.54 185.862C176.438 186.526 177.256 187.294 177.976 188.148Z" fill="#FAFAFA"/>
<path d="M184.262 177.102C182.108 178.469 179.851 179.665 177.509 180.677C178.569 179.948 179.683 179.3 180.841 178.74C181.937 178.107 183.081 177.559 184.262 177.102Z" fill="#FAFAFA"/>
<path d="M203.795 201.891C203.675 201.93 203.553 201.96 203.429 201.981C203.187 202.026 202.833 202.116 202.371 202.178C201.068 202.377 199.75 202.462 198.432 202.431C195.028 202.382 191.672 201.611 188.588 200.168C185.503 198.726 182.759 196.646 180.537 194.065C179.246 192.579 178.141 190.942 177.245 189.19C176.634 188.015 176.13 186.789 175.737 185.524C175.585 185.08 175.512 184.725 175.444 184.489C175.407 184.368 175.382 184.243 175.371 184.117C175.425 184.231 175.468 184.35 175.501 184.472C175.585 184.702 175.675 185.035 175.844 185.491C176.923 188.577 178.585 191.427 180.74 193.885C182.967 196.406 185.686 198.447 188.729 199.88C191.772 201.314 195.076 202.111 198.438 202.223C199.753 202.272 201.07 202.219 202.377 202.065C202.844 202.02 203.198 201.947 203.44 201.925C203.557 201.9 203.676 201.889 203.795 201.891Z" fill="#263238"/>
<path d="M186.981 198.974C186.788 198.081 186.881 197.15 187.245 196.311C187.52 195.439 188.063 194.677 188.798 194.133C188.301 194.852 187.873 195.618 187.521 196.418C187.263 197.252 187.082 198.108 186.981 198.974Z" fill="#FAFAFA"/>
<path d="M182.349 197.038C181.814 197.451 181.324 197.919 180.886 198.434C180.52 199.001 180.211 199.602 179.963 200.23C179.982 199.516 180.221 198.826 180.649 198.254C181.076 197.683 181.67 197.257 182.349 197.038Z" fill="#FAFAFA"/>
<path d="M200.16 207.645C199.239 207.571 198.349 207.277 197.565 206.787C196.782 206.297 196.128 205.626 195.658 204.83C196.882 206.152 198.436 207.123 200.16 207.645Z" fill="#FAFAFA"/>
<path d="M202.928 192.05C202.81 192.877 202.46 193.655 201.92 194.292C201.379 194.93 200.669 195.401 199.873 195.653C200.53 195.199 201.141 194.68 201.696 194.104C202.176 193.464 202.589 192.775 202.928 192.05Z" fill="#FAFAFA"/>
<path d="M210.801 203.675C210.733 203.619 211.476 202.679 212.163 201.384C212.849 200.089 213.215 198.946 213.288 198.974C212.969 200.765 212.095 202.41 210.79 203.675H210.801Z" fill="#FAFAFA"/>
<path d="M221.206 205.201C221.24 205.286 220.216 205.691 219.186 206.541C218.156 207.391 217.537 208.303 217.464 208.23C217.787 207.453 218.319 206.781 219 206.288C219.62 205.728 220.384 205.352 221.206 205.201Z" fill="#FAFAFA"/>
<path d="M213.271 191.875C213.181 191.903 212.709 190.259 211.656 188.435C210.604 186.611 209.479 185.327 209.552 185.271C209.861 185.489 210.132 185.755 210.356 186.059C211.541 187.444 212.443 189.046 213.013 190.777C213.154 191.128 213.241 191.498 213.271 191.875Z" fill="#FAFAFA"/>
<path d="M214.825 175.115C213.073 175.72 211.262 176.137 209.422 176.359C211.174 175.755 212.985 175.338 214.825 175.115Z" fill="#FAFAFA"/>
<path d="M210.035 170.104C209.393 169.506 208.816 168.842 208.314 168.122C207.741 167.459 207.241 166.736 206.822 165.966C207.471 166.556 208.049 167.219 208.544 167.942C209.123 168.603 209.623 169.329 210.035 170.104Z" fill="#FAFAFA"/>
<path d="M221.921 167.098C220.097 167.052 218.303 166.626 216.653 165.848C217.544 166 218.426 166.205 219.293 166.461C220.181 166.62 221.058 166.832 221.921 167.098Z" fill="#FAFAFA"/>
<path d="M230.362 166.945C230.604 166.149 230.891 165.367 231.223 164.603C231.46 163.804 231.748 163.019 232.084 162.256C232.038 163.098 231.848 163.927 231.521 164.705C231.27 165.514 230.878 166.273 230.362 166.945Z" fill="#FAFAFA"/>
<path d="M228.437 178.386C226.692 177.996 225.115 177.061 223.935 175.717C223.991 175.649 224.88 176.426 226.113 177.153C227.345 177.879 228.465 178.301 228.437 178.386Z" fill="#FAFAFA"/>
<path d="M233.918 178.037C234.031 176.907 234.238 175.788 234.537 174.692C234.741 173.579 235.038 172.485 235.426 171.421C235.111 173.668 234.6 175.884 233.901 178.042L233.918 178.037Z" fill="#FAFAFA"/>
<path d="M229.343 190.828C227.938 189.238 226.684 187.521 225.595 185.699C226.333 186.463 226.999 187.292 227.587 188.176C228.253 189.004 228.841 189.892 229.343 190.828Z" fill="#FAFAFA"/>
<path d="M237.154 185.935C237.075 185.975 236.563 184.956 235.753 183.819C234.942 182.681 234.16 181.854 234.222 181.792C234.93 182.288 235.532 182.919 235.995 183.65C236.533 184.325 236.927 185.103 237.154 185.935Z" fill="#FAFAFA"/>
<path d="M244.481 184.838C243.839 184.084 243.238 183.296 242.68 182.479C242.041 181.725 241.44 180.94 240.879 180.125C242.376 181.445 243.6 183.046 244.481 184.838Z" fill="#FAFAFA"/>
<path d="M242.742 189.696C242.642 189.02 242.414 188.368 242.072 187.776C241.661 187.23 241.151 186.764 240.57 186.403C240.57 186.369 240.829 186.403 241.183 186.577C241.64 186.821 242.028 187.177 242.309 187.613C242.595 188.047 242.767 188.547 242.81 189.066C242.866 189.437 242.793 189.696 242.742 189.696Z" fill="#FAFAFA"/>
<path d="M237.047 196.357C237.002 196.357 237.019 196.205 236.974 196.008C236.921 195.754 236.784 195.526 236.586 195.36C236.378 195.206 236.123 195.129 235.865 195.141C235.663 195.141 235.533 195.191 235.511 195.141C235.488 195.09 235.595 194.989 235.837 194.921C235.996 194.879 236.163 194.875 236.324 194.908C236.485 194.942 236.636 195.012 236.766 195.113C236.895 195.214 237 195.344 237.071 195.493C237.142 195.641 237.178 195.804 237.176 195.968C237.171 196.238 237.081 196.368 237.047 196.357Z" fill="#FAFAFA"/>
<path d="M178.5 207.003C177.449 206.598 176.494 205.978 175.695 205.183C174.897 204.388 174.273 203.436 173.863 202.386C175.011 204.285 176.602 205.877 178.5 207.025V207.003Z" fill="#FAFAFA"/>
<path d="M142.682 67.2669C141.776 58.7037 140.138 50.6472 139.694 42.253C139.711 42.0425 139.685 41.8306 139.616 41.6309C139.547 41.4313 139.437 41.2481 139.294 41.0932C139.171 41.0215 139.036 40.9755 138.895 40.9581C138.754 40.9406 138.611 40.9519 138.475 40.9914C138.338 41.0309 138.211 41.0977 138.102 41.1878C137.992 41.2779 137.902 41.3894 137.837 41.5154C137.591 42.0424 137.494 42.6263 137.555 43.2044C137.565 47.6685 136.803 52.1007 135.304 56.3054C134.342 59.0359 133.053 61.6538 132.333 64.4519C131.613 67.25 132.969 68.2015 134.229 70.8082" fill="#FFBE9D"/>
<path d="M113.943 33.3519C113.892 33.4139 110.73 30.841 106.875 27.6037C103.02 24.3665 99.942 21.6641 99.9983 21.6247C100.055 21.5853 103.212 24.1357 107.066 27.3785C110.921 30.6214 113.999 33.29 113.943 33.3519Z" fill="#DF2E38"/>
<path d="M129.992 29.4954C129.913 29.4954 129.593 24.496 129.283 18.3199C128.974 12.1439 128.782 7.1332 128.861 7.12757C128.94 7.12194 129.261 12.127 129.576 18.3087C129.891 24.4904 130.071 29.4954 129.992 29.4954Z" fill="#DF2E38"/>
<path d="M119.773 25.9205C119.694 25.9205 118.709 23.1055 117.567 19.5417C116.424 15.9779 115.563 13.101 115.642 13.0785C115.721 13.056 116.706 15.8935 117.848 19.4516C118.99 23.0098 119.846 25.8979 119.773 25.9205Z" fill="#DF2E38"/>
<path d="M110.662 38.6328C109.18 38.1113 107.731 37.5003 106.323 36.8031C104.874 36.1919 103.464 35.4905 102.103 34.7031C103.584 35.2247 105.033 35.8357 106.441 36.5329C107.89 37.1454 109.299 37.8467 110.662 38.6328Z" fill="#DF2E38"/>
<path d="M95.8677 32.1641C95.8677 32.2429 95.3893 32.2542 94.821 32.1641C94.2526 32.074 93.8024 31.9727 93.8137 31.8939C93.8249 31.815 94.292 31.8038 94.8547 31.8939C95.4175 31.9839 95.8677 32.0853 95.8677 32.1641Z" fill="#DF2E38"/>
<path d="M116.008 9.44154C115.924 9.44154 115.862 8.98551 115.862 8.41688C115.862 7.84826 115.924 7.3866 116.008 7.3866C116.093 7.3866 116.154 7.84826 116.154 8.41688C116.154 8.98551 116.087 9.44154 116.008 9.44154Z" fill="#263238"/>
<path d="M149.89 17.391C149.952 17.4473 147.352 20.4256 144.094 24.0457C140.836 27.6657 138.146 30.5595 138.073 30.5032C138 30.4469 140.611 27.4743 143.869 23.8486C147.127 20.2229 149.834 17.3404 149.89 17.391Z" fill="#DF2E38"/>
<path d="M154.026 13.2981C154.083 13.3544 153.784 13.7484 153.357 14.1763C152.929 14.6042 152.541 14.897 152.484 14.8407C152.428 14.7844 152.726 14.3903 153.154 13.968C153.582 13.5458 153.97 13.2192 154.026 13.2981Z" fill="#263238"/>
<path d="M164.054 27.7107C163.813 27.8846 163.557 28.0372 163.289 28.1667C162.788 28.4426 162.057 28.8311 161.145 29.2927C159.316 30.216 156.756 31.4208 153.875 32.62C150.993 33.8192 148.332 34.7763 146.384 35.435C145.417 35.7559 144.629 35.998 144.077 36.1613C143.798 36.2627 143.51 36.3362 143.216 36.3808C143.482 36.2491 143.759 36.1399 144.044 36.0543L146.294 35.238C148.219 34.5455 150.858 33.549 153.739 32.3667C156.621 31.1844 159.181 29.9965 161.055 29.1238L163.238 28.0879C163.501 27.9422 163.774 27.8161 164.054 27.7107Z" fill="#DF2E38"/>
<path d="M155.827 41.5718C155.347 41.786 154.845 41.9502 154.331 42.0616C153.396 42.3206 152.08 42.6246 150.628 42.8779C149.176 43.1313 147.814 43.272 146.863 43.3396C146.342 43.4059 145.816 43.4154 145.293 43.3677C145.804 43.2499 146.323 43.1709 146.846 43.1313C147.803 43.0131 149.125 42.8329 150.577 42.5683C152.029 42.3037 153.34 42.0503 154.286 41.8476C154.79 41.7084 155.306 41.616 155.827 41.5718Z" fill="#DF2E38"/>
<path d="M163.306 40.1868C162.234 40.382 161.136 40.382 160.064 40.1868C161.136 39.9916 162.234 39.9916 163.306 40.1868Z" fill="#DF2E38"/>
<path d="M134.246 70.7969C133.131 69.9413 132.267 68.8017 131.743 67.4973C131.219 66.1929 131.056 64.7716 131.269 63.3822C131.556 61.6932 132.395 60.1619 133.059 58.5855C133.723 57.0091 134.235 55.2582 133.83 53.5973C133.606 52.9809 133.455 52.3403 133.38 51.6888C133.38 51.0357 133.802 50.3038 134.454 50.2756C134.701 50.2956 134.94 50.3726 135.152 50.5005C135.364 50.6285 135.543 50.804 135.676 51.0132C136.773 52.37 137.651 56.3335 137.099 59.2948" fill="#FFBE9D"/>
<path d="M137.1 59.2949C137.1 59.2949 137.156 58.8389 137.19 58.0169C137.225 56.8575 137.129 55.6978 136.903 54.5601C136.751 53.7765 136.525 53.0092 136.227 52.2687C136.071 51.8658 135.859 51.4868 135.597 51.1427C135.48 50.958 135.326 50.7993 135.145 50.6764C134.964 50.5534 134.76 50.4688 134.545 50.4277C134.323 50.4382 134.112 50.521 133.942 50.6633C133.772 50.8057 133.654 50.9998 133.605 51.2159C133.484 51.6959 133.516 52.2015 133.695 52.6628C133.884 53.1779 134.016 53.7122 134.089 54.2561C134.143 54.8193 134.122 55.3873 134.027 55.9451C133.633 58.2308 132.418 60.0775 131.776 61.9072C131.46 62.7621 131.29 63.6644 131.275 64.5758C131.272 65.3697 131.389 66.1595 131.624 66.9179C131.965 68.0245 132.541 69.0442 133.312 69.9074C133.875 70.5098 134.241 70.7744 134.224 70.8026C134.123 70.7515 134.029 70.6892 133.943 70.6168C133.688 70.4232 133.45 70.2106 133.228 69.9806C132.405 69.1318 131.789 68.1051 131.427 66.9798C131.171 66.2041 131.038 65.3929 131.033 64.5758C131.038 63.6351 131.204 62.7021 131.523 61.8171C132.142 59.948 133.34 58.1013 133.712 55.9C133.808 55.3651 133.829 54.8193 133.774 54.2786C133.706 53.7501 133.58 53.2308 133.397 52.7304C133.202 52.2133 133.175 51.6481 133.318 51.1146C133.402 50.8482 133.555 50.6091 133.762 50.4221C133.866 50.3254 133.989 50.251 134.122 50.2035C134.256 50.1561 134.398 50.1366 134.539 50.1462C134.797 50.1803 135.044 50.2687 135.266 50.4055C135.487 50.5424 135.676 50.7245 135.822 50.94C136.096 51.3127 136.315 51.7221 136.475 52.1561C136.772 52.9123 136.991 53.6971 137.128 54.4982C137.341 55.6525 137.407 56.8291 137.325 58C137.305 58.3177 137.263 58.6337 137.201 58.9458C137.184 59.0664 137.15 59.184 137.1 59.2949Z" fill="#EB996E"/>
<path d="M210.666 105.016C210.85 105.821 211.286 106.547 211.91 107.088C212.534 107.628 213.315 107.956 214.138 108.022C214.963 108.063 215.784 107.893 216.525 107.528C217.267 107.164 217.903 106.617 218.375 105.939C219.31 104.56 219.686 102.878 219.427 101.233C219.107 98.8623 217.531 96.5822 215.246 95.8784C212.962 95.1747 210.12 96.4414 209.49 98.7385L206.856 102.415L210.666 105.016Z" fill="#263238"/>
<path d="M207.554 97.7926C207.809 95.7552 207.653 93.6873 207.094 91.7115C206.536 89.7357 205.586 87.8923 204.302 86.2908C203.017 84.6892 201.425 83.3621 199.618 82.3881C197.811 81.4142 195.827 80.8133 193.784 80.6212C185.618 79.8443 178.353 85.9303 177.132 94.0487C176.057 101.165 175.135 108.349 175.168 110.939C175.27 118.821 179.867 121.872 181.736 122.762C182.406 123.003 183.1 123.175 183.806 123.274C183.813 123.275 183.82 123.278 183.825 123.282C183.831 123.286 183.836 123.291 183.839 123.296C183.843 123.302 183.845 123.309 183.847 123.315C183.848 123.322 183.847 123.329 183.846 123.336L182.101 132.344C181.308 138.261 184.611 143.542 190.514 144.403C196.417 145.265 201.071 140.721 201.977 134.798L207.554 97.7926Z" fill="#FFBE9D"/>
<path d="M178.488 98.6483C178.618 98.8341 179.653 98.2768 180.987 98.4738C182.321 98.6709 183.193 99.4816 183.362 99.3352C183.446 99.2733 183.328 98.9636 182.951 98.592C182.433 98.1079 181.779 97.7953 181.077 97.6969C180.384 97.5962 179.677 97.7163 179.057 98.0403C178.59 98.2937 178.421 98.5639 178.488 98.6483Z" fill="#263238"/>
<path d="M190.329 101.216C190.458 101.401 191.499 100.844 192.827 101.041C194.155 101.238 195.039 102.049 195.208 101.902C195.286 101.84 195.174 101.531 194.791 101.154C194.275 100.672 193.622 100.362 192.923 100.264C192.23 100.163 191.523 100.283 190.903 100.608C190.447 100.861 190.267 101.131 190.329 101.216Z" fill="#263238"/>
<path d="M185.726 107.51C185.056 107.189 184.349 106.953 183.621 106.806C183.283 106.722 182.974 106.604 182.951 106.367C182.973 106.012 183.103 105.672 183.323 105.393L184.707 102.95C186.637 99.4647 188.083 96.5822 187.948 96.5034C187.813 96.4245 186.125 99.1888 184.195 102.696L182.85 105.157C182.581 105.539 182.45 106.002 182.479 106.468C182.514 106.592 182.576 106.707 182.661 106.804C182.746 106.901 182.85 106.979 182.968 107.031C183.148 107.108 183.337 107.163 183.531 107.195C184.246 107.392 184.984 107.498 185.726 107.51Z" fill="#263238"/>
<path d="M183.857 123.33C183.857 123.33 188.922 124.501 195.928 121.574C195.928 121.574 192.912 128.076 183.39 125.762L183.857 123.33Z" fill="#EB996E"/>
<path d="M185.821 110.803C186.119 110.529 186.482 110.334 186.875 110.235C187.268 110.137 187.68 110.139 188.072 110.24C188.362 110.312 188.634 110.44 188.874 110.618C189.113 110.796 189.315 111.02 189.467 111.276C189.614 111.524 189.68 111.81 189.656 112.096C189.633 112.383 189.522 112.655 189.338 112.875C189.091 113.085 188.786 113.214 188.464 113.247C188.141 113.281 187.816 113.216 187.532 113.061C186.934 112.75 186.406 112.321 185.979 111.8C185.841 111.673 185.73 111.52 185.652 111.35C185.613 111.269 185.6 111.178 185.614 111.089C185.628 111.001 185.669 110.919 185.731 110.854" fill="#EB996E"/>
<path d="M189.507 109.002C189.293 108.957 189.079 110.404 187.695 111.254C186.311 112.104 184.791 111.716 184.752 111.918C184.718 112.008 185.056 112.25 185.703 112.363C186.547 112.497 187.412 112.329 188.145 111.89C188.849 111.467 189.361 110.786 189.574 109.993C189.715 109.39 189.608 109.008 189.507 109.002Z" fill="#263238"/>
<path d="M191.246 96.8806C191.325 97.2634 192.681 97.2859 194.212 97.7025C195.742 98.1192 196.952 98.7272 197.205 98.4344C197.318 98.2937 197.149 97.9221 196.693 97.4942C196.076 96.9653 195.346 96.584 194.559 96.3792C193.772 96.1743 192.949 96.1513 192.152 96.3119C191.533 96.4583 191.218 96.7004 191.246 96.8806Z" fill="#263238"/>
<path d="M179.834 94.5441C180.019 94.8819 180.987 94.7018 182.085 94.8481C183.182 94.9945 184.094 95.3436 184.336 95.0621C184.454 94.9213 184.336 94.5948 183.981 94.2514C183.484 93.8269 182.871 93.5605 182.221 93.4863C181.572 93.4121 180.915 93.5334 180.335 93.8347C179.924 94.0881 179.749 94.3809 179.834 94.5441Z" fill="#263238"/>
<path d="M175.591 92.2865C177.217 94.7693 182.383 93.2323 185.5 91.5264C187.129 92.5657 189.098 92.9283 190.99 92.5372C192.882 92.1461 194.546 91.032 195.63 89.4321C197.414 91.684 201.043 90.9522 202.382 88.3905C203.722 85.8289 202.945 82.2989 201.144 80.0582C199.344 77.8174 196.676 76.6802 194.054 76.2016C187.836 75.0756 181.066 77.4627 177.346 83.0871C175.63 85.6825 174.6 89.1787 175.619 92.2865" fill="#263238"/>
<path d="M192.776 77.0856C192.776 77.1982 191.308 76.9167 189 77.2995C186.003 77.7983 183.256 79.2773 181.19 81.5051C179.244 83.8376 177.958 86.6485 177.464 89.646C177.293 90.8957 177.227 92.1575 177.267 93.4181C177.147 93.0927 177.077 92.7511 177.059 92.4047C176.961 91.468 176.976 90.5228 177.104 89.5897C177.512 86.476 178.805 83.5449 180.829 81.1448C182.969 78.8269 185.852 77.3311 188.978 76.9167C189.911 76.7911 190.855 76.776 191.792 76.8716C192.129 76.8921 192.461 76.9643 192.776 77.0856Z" fill="#455A64"/>
<path d="M184.369 88.6607C184.276 88.3756 184.235 88.0764 184.245 87.7768C184.216 86.9601 184.301 86.1433 184.499 85.3503C184.8 84.0204 185.37 82.7661 186.173 81.6648C186.977 80.5635 187.998 79.6384 189.172 78.9464C190.347 78.2545 191.65 77.8104 193.003 77.6414C194.355 77.4724 195.728 77.5821 197.036 77.9638C197.826 78.1804 198.583 78.5023 199.287 78.9209C199.559 79.0621 199.801 79.2531 200.002 79.4839C199.021 79.0192 198 78.6424 196.952 78.3579C194.403 77.7084 191.701 78.0931 189.435 79.4282C187.169 80.7633 185.522 82.9406 184.853 85.4854C184.302 87.3658 184.476 88.6607 184.369 88.6607Z" fill="#455A64"/>
<path d="M199.287 85.9584C198.677 88.162 198.326 90.4293 198.241 92.7143C198.156 95.0121 198.87 97.2681 200.261 99.0987C202.433 101.717 206.057 102.516 209.4 103.152C211.188 98.6895 211.727 93.8236 210.958 89.0774C210.576 86.7747 209.833 84.427 208.212 82.7493C207.007 81.5601 205.442 80.8044 203.762 80.6006C202.082 80.3969 200.381 80.7566 198.927 81.6233" fill="#263238"/>
<path d="M201.144 96.858C200.266 98.761 200.328 100.962 200.632 103.051C200.936 105.14 201.465 107.183 201.443 109.278C201.42 111.372 200.756 113.596 199.113 114.908C198.615 115.24 198.147 115.617 197.717 116.034C197.505 116.245 197.363 116.517 197.311 116.812C197.258 117.107 197.298 117.412 197.425 117.683C197.74 118.19 198.691 118.179 198.826 117.599L198.741 117.745C198.659 117.885 198.614 118.045 198.612 118.208C198.61 118.371 198.651 118.531 198.731 118.673C198.811 118.816 198.927 118.934 199.067 119.017C199.207 119.1 199.366 119.145 199.529 119.147C200.104 119.12 200.668 118.974 201.184 118.721C201.701 118.467 202.161 118.11 202.534 117.672C203.609 116.428 204.037 114.756 204.318 113.168C205.185 108.197 205.016 103.034 206.389 98.1867" fill="#263238"/>
<path d="M182.062 129.506C182.45 131.2 183.197 132.79 184.253 134.169C185.309 135.548 186.649 136.684 188.183 137.499C189.717 138.314 191.408 138.789 193.141 138.892C194.875 138.996 196.61 138.725 198.229 138.098C201.144 136.972 203.497 134.776 205.764 132.631C206.17 135.073 206.059 137.573 205.437 139.969C204.814 142.365 203.696 144.603 202.153 146.538C200.611 148.474 198.679 150.063 196.483 151.204C194.287 152.344 191.876 153.01 189.406 153.158C185.675 153.383 181.668 152.246 179.321 149.335C177.684 147.308 177.025 144.623 177.071 142.016C177.184 139.405 177.681 136.825 178.545 134.359C179.209 132.231 180.261 129.855 182.411 129.264" fill="#DF2E38"/>
<path d="M208.758 103.299C211.009 104.509 212.213 107.043 212.647 109.542C213.08 112.042 212.86 114.609 212.967 117.137C213.074 119.665 213.558 122.322 215.162 124.287C216.85 126.382 219.523 127.372 221.915 128.65C227.16 131.465 231.481 136.268 233.057 142.022C234.633 147.775 233.203 154.408 228.898 158.546C224.959 162.295 219.276 163.613 213.851 163.613C209.985 163.613 205.736 162.779 203.322 159.756C200.908 156.733 201.071 152.493 201.915 148.766C202.759 145.039 204.307 141.419 204.369 137.596C203.791 139.963 202.784 142.203 201.397 144.206C200.998 144.769 200.317 145.388 199.709 145.062C199.101 144.735 199.287 143.682 199.602 142.979C204.262 132.603 202.641 111.687 205.404 100.23" fill="#263238"/>
<path d="M204.921 102.122C205.061 102.077 210.503 101.047 209.799 106.429C209.096 111.811 203.846 109.998 203.857 109.846C203.868 109.694 204.921 102.122 204.921 102.122Z" fill="#FFBE9D"/>
<path d="M205.764 108.022C205.764 108.022 205.849 108.095 206.001 108.191C206.211 108.315 206.461 108.353 206.699 108.298C207.295 108.163 207.892 107.319 208.043 106.356C208.115 105.895 208.084 105.424 207.953 104.976C207.925 104.802 207.854 104.636 207.747 104.495C207.64 104.354 207.501 104.241 207.34 104.166C207.239 104.13 207.129 104.129 207.027 104.162C206.925 104.196 206.837 104.263 206.777 104.352C206.687 104.492 206.704 104.605 206.676 104.611C206.648 104.616 206.575 104.504 206.642 104.29C206.69 104.16 206.782 104.05 206.901 103.98C206.985 103.93 207.078 103.897 207.175 103.885C207.272 103.872 207.37 103.88 207.464 103.907C207.679 103.98 207.872 104.106 208.025 104.275C208.178 104.443 208.285 104.648 208.336 104.869C208.503 105.366 208.547 105.895 208.466 106.412C208.291 107.493 207.605 108.433 206.777 108.557C206.628 108.581 206.474 108.571 206.329 108.527C206.184 108.483 206.05 108.407 205.939 108.304C205.759 108.152 205.748 108.028 205.764 108.022Z" fill="#EB996E"/>
<path d="M176.502 141.104C176.766 140.529 177.071 139.974 177.414 139.443C178.198 138.144 178.848 136.769 179.355 135.339C179.847 133.907 180.013 132.384 179.839 130.88C179.729 130.263 179.587 129.652 179.411 129.05C179.517 129.187 179.599 129.341 179.653 129.506C179.837 129.938 179.969 130.389 180.047 130.852C180.284 132.388 180.143 133.959 179.636 135.429C179.126 136.881 178.44 138.265 177.594 139.55C177.279 140.046 177.031 140.44 176.823 140.704C176.614 140.969 176.519 141.115 176.502 141.104Z" fill="#263238"/>
<path d="M179.243 134.894C179.164 134.894 179.012 134.432 178.528 134.112C178.044 133.791 177.56 133.791 177.549 133.706C177.538 133.622 177.667 133.61 177.887 133.605C178.178 133.607 178.461 133.7 178.697 133.869C178.935 134.036 179.119 134.269 179.226 134.539C179.299 134.748 179.282 134.883 179.243 134.894Z" fill="#FAFAFA"/>
<path d="M182.721 134.883C182.299 134.409 181.836 133.974 181.336 133.582C180.782 133.272 180.197 133.019 179.592 132.828C179.927 132.782 180.268 132.803 180.595 132.891C180.922 132.979 181.227 133.132 181.494 133.34C182.088 133.674 182.529 134.228 182.721 134.883Z" fill="#FAFAFA"/>
<path d="M184.904 146.306C184.917 145.53 185.027 144.758 185.23 144.009C185.339 143.236 185.545 142.479 185.844 141.757C185.831 142.535 185.721 143.309 185.517 144.06C185.408 144.831 185.202 145.586 184.904 146.306Z" fill="#FAFAFA"/>
<path d="M193.683 148.029C193.542 146.413 193.593 144.786 193.834 143.181C193.983 144.797 193.932 146.425 193.683 148.029Z" fill="#FAFAFA"/>
<path d="M14.4396 173.048L5.76221 210.854L24.113 210.91L32.5935 177.665L14.4396 173.048Z" fill="#B78876"/>
<path d="M104.562 126.601C102.817 124.265 100.814 122.018 99.8966 119.248C99.4521 117.908 99.2776 116.49 98.8049 115.161C98.3322 113.832 97.4712 112.537 96.1544 112.036C94.8376 111.535 93.836 112.036 92.9806 112.982L86.6836 131.409L90.3132 145.563C93.9373 144.747 98.4729 143.778 101.861 142.252C105.248 140.727 107.488 138.283 107.724 134.573C107.888 131.662 106.306 128.943 104.562 126.601Z" fill="#263238"/>
<path d="M47.2586 123.347C47.2586 123.347 25.3681 132.879 22.6332 137.18C19.8983 141.481 10.8945 172.148 10.8945 172.148L33.9667 178.904L33.5728 210.831H90.1278L89.6607 154.531L82.5702 123.42C82.5702 123.42 70.0831 122.615 68.9239 122.046C67.7647 121.478 47.2586 123.347 47.2586 123.347Z" fill="#DF2E38"/>
<path d="M125.051 45.31C125.231 44.0207 124.325 42.6019 124.978 41.4703C125.409 40.8871 126.027 40.4682 126.728 40.2824C127.068 40.127 127.435 40.0409 127.808 40.0291C127.994 40.0261 128.177 40.0778 128.334 40.1779C128.492 40.278 128.616 40.422 128.692 40.5921C128.732 40.8074 128.713 41.0297 128.637 41.235C128.561 41.4403 128.43 41.621 128.258 41.7575C127.916 42.027 127.627 42.3595 127.409 42.7371C127.256 43.6638 127.327 44.6136 127.617 45.507C128.367 47.4729 128.989 49.4851 129.48 51.5311" fill="#B78876"/>
<path d="M120.431 45.7491C120.51 43.7955 122.119 36.0994 122.176 34.1458C123.498 34.5511 124.263 35.9586 124.511 37.3211C124.759 38.6835 124.629 40.0854 124.866 41.4478C125.181 43.2776 126.132 44.9271 127.088 46.5148C128.045 48.1024 129.047 49.7182 129.48 51.5198C129.913 53.3214 131.545 58.0056 130.273 59.3568" fill="#B78876"/>
<path d="M120.065 58.9232L112.238 96.1261C111.962 97.815 82.5703 123.46 82.5703 123.46L88.3721 146.649L126.638 109.193C129.401 106.238 130.905 102.322 130.831 98.2767L130.178 63.3709L120.065 58.9232Z" fill="#B78876"/>
<path d="M118.726 45.9856L120.065 58.9345L130.195 63.3935C130.195 63.3935 130.318 62.4758 130.757 57.9887C131.236 53.0456 125.924 50.9231 123.554 47.2918C122.541 45.7323 122.806 42.861 122.024 39.3028C121.934 38.8918 121.371 36.4034 121.067 35.0691C120.907 34.3276 120.473 33.674 119.852 33.2394C119.39 32.9353 118.872 32.7833 118.495 33.2394C118.118 33.6954 118.726 45.9856 118.726 45.9856Z" fill="#B78876"/>
<path d="M125.051 61.0739C126.176 60.0999 126.447 58.3546 126.025 56.9077C125.508 55.483 124.692 54.1853 123.633 53.1019C122.575 52.0212 121.685 50.7876 120.994 49.4424C120.566 48.474 120.363 47.4043 119.868 46.4529C119.373 45.5014 118.535 44.6288 117.477 44.5894C118.326 49.9435 118.304 53.0343 120.043 58.9007" fill="#B78876"/>
<path d="M118.529 50.7035C118.529 50.7035 118.49 50.5572 118.428 50.2757C118.366 49.9942 118.259 49.5269 118.158 49.0483C117.916 47.9223 117.595 46.4867 117.263 44.8371L117.229 44.6795H117.392C117.739 44.6668 118.084 44.723 118.409 44.8448C118.733 44.9665 119.03 45.1515 119.283 45.3889C120.056 46.1245 120.606 47.063 120.87 48.0969C121.094 48.9004 121.39 49.6823 121.753 50.4333C122.029 50.9266 122.361 51.3858 122.744 51.8014C122.883 51.9611 122.997 52.1415 123.081 52.3362C122.927 52.1934 122.784 52.0391 122.654 51.8746C122.235 51.4787 121.871 51.028 121.573 50.5346C121.176 49.7812 120.852 48.9913 120.605 48.1757C120.344 47.1935 119.818 46.3018 119.086 45.5972C118.63 45.1687 118.024 44.9362 117.398 44.9497L117.533 44.7808C118.214 48.1701 118.653 50.7092 118.529 50.7035Z" fill="#7C5142"/>
<path d="M123.081 47.41C122.673 45.6682 122.361 43.9052 122.147 42.1291C121.835 40.3669 121.618 38.5889 121.5 36.8031C121.911 38.5461 122.223 40.3112 122.434 42.0896C122.747 43.85 122.963 45.626 123.081 47.41Z" fill="#7C5142"/>
<path d="M126.306 47.8492C126.306 47.8492 126.346 47.9055 126.379 48.0462H126.295C125.876 46.8417 125.534 45.6119 125.271 44.3642C125.029 43.2776 124.854 42.2868 124.747 41.5492C124.66 41.1634 124.626 40.7676 124.646 40.3726C124.73 40.3726 125.074 42.1235 125.558 44.3135C125.946 46.0645 126.306 47.5395 126.379 48.0349H126.295C126.289 47.9167 126.289 47.8492 126.306 47.8492Z" fill="#7C5142"/>
<path d="M128.304 54.9823C128.259 54.9823 128.056 54.6895 127.651 54.256C126.581 53.1182 125.128 52.4164 123.571 52.2855C123.246 52.2884 122.92 52.2677 122.598 52.2236C122.909 52.1027 123.244 52.0527 123.577 52.0772C124.388 52.0874 125.187 52.2757 125.917 52.6289C126.647 52.982 127.291 53.4914 127.803 54.1209C128.033 54.3661 128.205 54.6607 128.304 54.9823Z" fill="#7C5142"/>
<path d="M120.983 59.9479C120.704 59.4634 120.48 58.9499 120.313 58.4166C119.85 57.1533 119.463 55.8636 119.154 54.5544C118.839 53.2561 118.602 51.9401 118.445 50.6134C118.352 50.0555 118.319 49.4894 118.343 48.9244C118.484 49.4624 118.586 50.01 118.647 50.5628C118.816 51.5705 119.075 52.9668 119.435 54.5037C119.795 56.0407 120.2 57.3863 120.51 58.3659C120.704 58.8816 120.862 59.4102 120.983 59.9479Z" fill="#7C5142"/>
<path d="M75.6992 124.13C76.2006 123.361 76.9784 122.816 77.8711 122.606C78.7639 122.397 79.7031 122.539 80.4937 123.004C84.6242 119.626 88.8504 116.349 92.9808 112.988C91.6303 119.744 90.7299 129.163 93.7518 135.345C93.7518 135.345 97.5615 142.427 103.628 141.346L98.2143 146.65L89.6776 154.571" fill="#DF2E38"/>
<path d="M74.3599 127.282C74.3662 126.376 74.6425 125.492 75.1533 124.743C75.5847 123.944 76.2425 123.29 77.0441 122.863C75.7726 124.071 74.8461 125.597 74.3599 127.282Z" fill="#263238"/>
<path d="M78.8223 131.449C78.5881 131.073 78.4276 130.657 78.3496 130.221C78.1067 129.177 78.0777 128.094 78.2644 127.039C78.451 125.983 78.8495 124.976 79.4357 124.079C79.6592 123.695 79.9533 123.357 80.3023 123.082C80.3417 123.116 80.0153 123.499 79.6158 124.208C79.096 125.106 78.7362 126.087 78.5522 127.108C78.376 128.131 78.376 129.176 78.5522 130.199C78.6929 130.931 78.8674 131.403 78.8223 131.449Z" fill="#263238"/>
<path d="M99.4971 145.906C99.0818 146.165 98.6277 146.355 98.1522 146.469C96.8522 146.783 95.4919 146.742 94.213 146.351C92.319 145.749 90.6616 144.568 89.4748 142.973C88.0492 141.017 87.087 138.763 86.6611 136.38C85.8663 132.09 85.6393 127.714 85.9858 123.364C86.1152 121.675 86.3009 120.358 86.4585 119.423C86.5317 118.961 86.5992 118.607 86.6498 118.364C86.6673 118.24 86.6975 118.117 86.7399 117.999C86.7438 118.125 86.7325 118.252 86.7061 118.376L86.571 119.44C86.4529 120.363 86.2953 121.692 86.194 123.381C85.9061 127.712 86.1594 132.062 86.9481 136.33C87.3694 138.651 88.3017 140.849 89.6774 142.765C90.8152 144.343 92.4193 145.525 94.2637 146.143C95.509 146.544 96.8371 146.616 98.1184 146.351C98.5874 146.234 99.048 146.085 99.4971 145.906Z" fill="#FAFAFA"/>
<path d="M34.0736 188.407C33.9948 188.407 33.9272 180.401 33.9272 170.532C33.9272 160.662 33.9948 152.657 34.0736 152.657C34.1523 152.657 34.2199 160.657 34.2199 170.532C34.2199 180.407 34.158 188.407 34.0736 188.407Z" fill="#263238"/>
<path d="M33.6233 146.481C33.5614 146.481 33.5783 145.681 33.3026 144.437C33.1383 143.71 32.9027 143.001 32.5992 142.32C32.221 141.492 31.755 140.707 31.2092 139.978C30.6482 139.26 30.0125 138.603 29.3128 138.019C28.7366 137.548 28.1167 137.133 27.4614 136.78C26.3359 136.189 25.5537 135.992 25.5706 135.936C25.7626 135.946 25.9522 135.983 26.1333 136.048C26.3466 136.101 26.5554 136.171 26.758 136.257C27.034 136.352 27.3029 136.467 27.5627 136.6C28.2387 136.931 28.8765 137.335 29.4647 137.805C30.1871 138.395 30.842 139.063 31.4174 139.798C31.979 140.545 32.4512 141.356 32.8243 142.213C33.1307 142.914 33.3591 143.647 33.5052 144.398C33.5629 144.684 33.6024 144.973 33.6233 145.265C33.6496 145.483 33.6609 145.703 33.6571 145.923C33.6673 146.11 33.656 146.297 33.6233 146.481Z" fill="#263238"/>
<path d="M72.1651 123.099C72.2118 123.256 72.2438 123.416 72.2607 123.578C72.3366 124.034 72.3855 124.495 72.407 124.957C72.4743 126.665 72.2361 128.372 71.7036 129.996C70.9107 132.418 69.5052 134.594 67.6238 136.313C65.2639 138.376 62.3004 139.62 59.1755 139.86C56.0507 140.099 52.9323 139.321 50.2859 137.642C48.1704 136.225 46.4567 134.286 45.3113 132.012C44.544 130.485 44.0543 128.834 43.865 127.136C43.8193 126.676 43.7987 126.214 43.8031 125.751C43.7896 125.59 43.7896 125.428 43.8031 125.267C43.8296 125.425 43.8427 125.585 43.8425 125.745C43.857 126.205 43.8945 126.663 43.9551 127.119C44.1856 128.793 44.6994 130.415 45.4745 131.916C46.6226 134.144 48.3216 136.042 50.4097 137.428C53.0082 139.062 56.0621 139.82 59.123 139.59C62.1838 139.36 65.0903 138.154 67.4156 136.15C69.2765 134.466 70.6753 132.334 71.4785 129.957C72.0178 128.355 72.2841 126.675 72.2663 124.985C72.2663 124.389 72.2157 123.927 72.1707 123.612C72.1257 123.296 72.1594 123.105 72.1651 123.099Z" fill="#263238"/>
<path d="M33.5894 171.945C33.5894 172.024 28.913 170.554 23.2069 168.668C17.5007 166.782 12.8919 165.189 12.9201 165.11C12.9482 165.031 17.5908 166.501 23.3025 168.387C29.0143 170.273 33.6119 171.866 33.5894 171.945Z" fill="#FAFAFA"/>
<path d="M89.1148 164.13C89.1148 164.215 76.7065 164.333 61.4001 164.395C46.0937 164.457 33.6797 164.446 33.6797 164.395C33.6797 164.344 46.088 164.192 61.4001 164.13C76.7121 164.069 89.1148 164.052 89.1148 164.13Z" fill="#FAFAFA"/>
<path d="M89.3962 169.034C89.3962 169.113 76.9203 169.181 61.5408 169.181C46.1612 169.181 33.6797 169.113 33.6797 169.034C33.6797 168.955 46.1499 168.888 61.5408 168.888C76.9316 168.888 89.3962 168.95 89.3962 169.034Z" fill="#FAFAFA"/>
<path d="M81.7542 174.991C81.7162 175.147 81.6634 175.3 81.5967 175.447C81.4729 175.762 81.3041 176.19 81.0959 176.73L80.7244 177.654C80.5781 177.992 80.4037 178.346 80.2236 178.735C79.8522 179.5 79.4695 180.39 78.9349 181.324L78.1246 182.799C77.8432 183.312 77.5056 183.819 77.1792 184.359C76.5377 185.446 75.7499 186.538 74.9283 187.703C73.101 190.18 71.0881 192.513 68.907 194.684C66.6948 196.825 64.3226 198.794 61.8109 200.573C60.6291 201.362 59.5205 202.133 58.4345 202.752C57.8717 203.067 57.3765 203.394 56.8588 203.67L55.3507 204.447C54.4109 204.959 53.5105 205.331 52.7396 205.685C52.3513 205.854 51.9911 206.023 51.6535 206.164L50.7193 206.519L49.4307 206.997C49.282 207.061 49.1275 207.11 48.9692 207.143C49.1097 207.064 49.2565 206.996 49.4082 206.941L50.68 206.412L51.5972 206.034C51.9349 205.888 52.2894 205.713 52.672 205.533C53.4374 205.167 54.3265 204.785 55.255 204.261L56.735 203.473C57.2471 203.191 57.7592 202.859 58.2994 202.544C59.3855 201.919 60.4828 201.142 61.6758 200.354C66.6884 196.815 71.0969 192.49 74.7313 187.546C75.5473 186.391 76.3407 185.294 76.9822 184.23C77.3143 183.695 77.6575 183.194 77.9445 182.687L78.7605 181.223C79.3232 180.305 79.7003 179.422 80.0829 178.661C80.2686 178.279 80.4543 177.93 80.6063 177.597C80.7582 177.265 80.882 176.961 81.0002 176.685C81.2309 176.156 81.4166 175.74 81.5629 175.424C81.6193 175.277 81.6831 175.132 81.7542 174.991Z" fill="#263238"/>
<g opacity="0.3">
<path d="M79.4695 179.866C75.6879 184.472 71.7262 187.81 66.172 189.961C63.5103 190.985 60.7247 191.689 58.1474 192.911C55.5701 194.133 53.1391 195.974 51.9573 198.58C51.0626 200.596 51.4959 203.647 53.6455 204.086C54.4806 204.189 55.3278 204.058 56.0934 203.709C67.0949 199.717 74.3261 189.634 79.4357 179.866" fill="black"/>
</g>
<path d="M40.1171 79.6979C37.7424 81.5614 37.5848 85.0463 37.703 88.064C37.8211 91.0817 37.8549 94.516 35.6546 96.599C33.8538 98.3162 30.7025 98.9524 30.1848 101.39C30.0538 101.965 30.1062 102.566 30.3346 103.109C30.563 103.652 30.956 104.109 31.4581 104.417C31.9602 104.725 32.5462 104.867 33.1335 104.824C33.7208 104.781 34.2798 104.555 34.7317 104.177C33.9664 106.086 34.3153 108.529 35.9416 109.807C37.5679 111.085 40.4097 110.477 41.0062 108.518C40.914 108.842 40.8886 109.181 40.9315 109.516C40.9743 109.85 41.0846 110.172 41.2557 110.462C41.4267 110.753 41.6549 111.005 41.9264 111.205C42.1979 111.404 42.507 111.546 42.8351 111.623C43.1632 111.699 43.5034 111.708 43.835 111.649C44.1666 111.59 44.4828 111.464 44.7643 111.279C45.0458 111.094 45.2868 110.853 45.4727 110.572C45.6586 110.291 45.7855 109.975 45.8458 109.644" fill="#263238"/>
<path d="M74.5792 101.548C74.6924 101.943 74.8857 102.311 75.147 102.629C75.4083 102.946 75.7321 103.207 76.0982 103.394C76.4644 103.581 76.8651 103.691 77.2754 103.717C77.6858 103.742 78.097 103.683 78.4836 103.543C78.8702 103.403 79.224 103.185 79.5228 102.903C79.8216 102.62 80.0592 102.279 80.2208 101.901C80.3824 101.523 80.4645 101.115 80.462 100.704C80.4596 100.293 80.3726 99.8861 80.2066 99.5098C79.7395 98.3387 78.5184 97.4548 78.4902 96.1994C78.4171 94.6793 80.0152 93.6715 81.4165 93.0804C82.8177 92.4892 84.4609 91.701 84.6803 90.1978C84.8998 88.6946 83.6449 87.5405 82.5982 86.5102C81.5515 85.4799 80.5442 83.9148 81.2814 82.6424C81.6584 81.9949 82.4069 81.6459 82.8908 81.0773C83.9825 79.8161 83.5436 77.6993 82.2831 76.624C81.0225 75.5486 79.2162 75.3009 77.5673 75.498C75.9185 75.695 74.3429 76.3143 72.7278 76.714C70.0497 77.3607 67.2665 77.4444 64.5544 76.9599C61.8423 76.4754 59.2601 75.4331 56.9712 73.899" fill="#263238"/>
<path d="M41.7325 91.3069L47.523 124.884C47.763 126.289 48.2785 127.633 49.04 128.838C49.8015 130.043 50.7938 131.086 51.9598 131.905C53.1258 132.725 54.4425 133.305 55.8338 133.613C57.2251 133.922 58.6636 133.951 60.0664 133.701C62.7243 133.224 65.1077 131.77 66.7471 129.623C68.3865 127.477 69.1631 124.794 68.9239 122.103C68.6594 119.125 68.4343 116.659 68.4343 116.659C68.4343 116.659 76.8416 114.497 76.1157 105.962C75.7611 101.829 74.3487 93.3787 72.9756 85.7444C72.2637 81.7932 70.091 78.2548 66.8898 75.8335C63.6886 73.4122 59.6935 72.2854 55.6996 72.6773L54.878 72.7561C52.785 73.0843 50.7789 73.8286 48.9781 74.945C47.1773 76.0615 45.6183 77.5275 44.393 79.2566C43.1677 80.9857 42.301 82.9428 41.8441 85.0124C41.3871 87.0821 41.3492 89.2223 41.7325 91.3069Z" fill="#B78876"/>
<path d="M71.1805 91.2562C71.2171 91.5739 71.1272 91.8932 70.9303 92.145C70.7333 92.3969 70.4451 92.561 70.1281 92.6018C69.9745 92.6299 69.8168 92.6269 69.6644 92.5928C69.512 92.5587 69.368 92.4944 69.2409 92.4035C69.1139 92.3126 69.0064 92.1971 68.9249 92.0639C68.8433 91.9306 68.7894 91.7823 68.7663 91.6278C68.7297 91.3101 68.8196 90.9908 69.0165 90.739C69.2135 90.4872 69.5016 90.3231 69.8186 90.2822C69.9723 90.2541 70.13 90.2572 70.2824 90.2912C70.4348 90.3253 70.5788 90.3897 70.7058 90.4805C70.8329 90.5714 70.9404 90.6869 71.0219 90.8201C71.1034 90.9534 71.1574 91.1017 71.1805 91.2562Z" fill="#263238"/>
<path d="M71.5518 90.0908C71.4167 90.2597 70.4263 89.6685 69.1152 89.798C67.804 89.9275 66.9036 90.6819 66.746 90.5355C66.6729 90.468 66.7967 90.1696 67.185 89.8205C67.7149 89.3705 68.3719 89.097 69.0645 89.038C69.7461 88.97 70.4316 89.1198 71.0228 89.4658C71.4561 89.7361 71.6193 90.0119 71.5518 90.0908Z" fill="#263238"/>
<path d="M58.35 92.7594C58.382 93.0764 58.2895 93.3935 58.0921 93.6436C57.8947 93.8936 57.6077 94.057 57.292 94.0993C57.1385 94.1266 56.9811 94.123 56.8289 94.0886C56.6768 94.0542 56.5331 93.9897 56.4063 93.899C56.2794 93.8083 56.1719 93.6931 56.0902 93.5602C56.0084 93.4274 55.954 93.2795 55.9302 93.1253C55.8965 92.8082 55.9875 92.4904 56.1839 92.2393C56.3804 91.9881 56.6668 91.8233 56.9825 91.7797C57.1368 91.7524 57.295 91.7562 57.4478 91.7909C57.6006 91.8256 57.7449 91.8904 57.8723 91.9817C57.9997 92.0729 58.1075 92.1887 58.1896 92.3223C58.2716 92.4558 58.3261 92.6044 58.35 92.7594Z" fill="#263238"/>
<path d="M58.6817 91.5883C58.5466 91.7628 57.5562 91.1717 56.245 91.3012C54.9339 91.4307 54.0391 92.1851 53.8759 92.0387C53.8028 91.9712 53.9266 91.6728 54.3149 91.3237C54.846 90.8756 55.5023 90.6023 56.1944 90.5411C56.8761 90.4704 57.5625 90.6204 58.1527 90.969C58.586 91.2393 58.7267 91.5151 58.6817 91.5883Z" fill="#263238"/>
<path d="M64.3935 100.861C64.3935 100.782 65.1814 100.563 66.4813 100.264C66.8133 100.197 67.1284 100.101 67.1622 99.8645C67.1527 99.5172 67.0411 99.1803 66.8414 98.8961L65.5978 96.4414C63.8702 92.9396 62.5871 90.0514 62.7278 89.9839C62.8685 89.9163 64.3823 92.6975 66.1043 96.1768L67.3029 98.654C67.5523 99.0368 67.658 99.4956 67.6011 99.9489C67.5673 100.075 67.5044 100.192 67.4175 100.29C67.3305 100.388 67.2219 100.464 67.1003 100.512C66.9185 100.578 66.7297 100.624 66.5376 100.647C65.8342 100.805 65.1142 100.877 64.3935 100.861Z" fill="#263238"/>
<path d="M58.5185 86.4087C58.4229 86.7803 57.1004 86.7353 55.581 87.0731C54.0616 87.4109 52.8518 87.9513 52.621 87.6361C52.5141 87.4953 52.6942 87.135 53.1838 86.7409C53.8088 86.247 54.5414 85.9075 55.3222 85.75C56.1009 85.5785 56.9094 85.5958 57.68 85.8007C58.2484 85.9865 58.5579 86.2398 58.5185 86.4087Z" fill="#263238"/>
<path d="M70.7022 86.3356C70.4996 86.6565 69.5767 86.4369 68.4513 86.527C67.3258 86.6171 66.4648 86.9267 66.2003 86.634C66.0934 86.4932 66.2003 86.1779 66.583 85.857C67.0871 85.4583 67.7026 85.2262 68.3443 85.1927C68.9837 85.1404 69.6233 85.2901 70.1732 85.6206C70.629 85.8908 70.7866 86.1836 70.7022 86.3356Z" fill="#263238"/>
<path d="M50.0833 81.0378L50.0383 81.0829C48.7842 82.2869 48.0425 83.9284 47.9674 85.6657C47.9674 85.7276 47.9674 85.7895 47.9674 85.8402C47.8717 88.3118 48.17 90.7833 48.0518 93.2492C47.9336 95.7152 47.3315 98.2712 45.694 100.123C45.0243 100.883 43.7638 101.486 43.0772 100.737C42.8383 100.422 42.6939 100.045 42.6608 99.6505C41.6366 93.8179 39.5207 88.7565 38.9355 82.603C38.8515 81.7801 38.9655 80.949 39.268 80.1792C39.5705 79.4094 40.0527 78.7232 40.6743 78.1778C41.8673 77.125 43.3473 76.0159 44.8442 76.5564C46.3411 77.0969 48.4514 79.5909 49.6725 80.6156" fill="#263238"/>
<path d="M44.9849 94.8875C44.8329 94.8425 38.9523 93.7278 39.7064 99.5435C40.4605 105.359 46.1441 103.406 46.1328 103.237C46.1216 103.068 44.9849 94.8875 44.9849 94.8875Z" fill="#B78876"/>
<path d="M44.0959 101.266C44.0959 101.266 44.0059 101.351 43.8427 101.446C43.7309 101.515 43.6068 101.56 43.4774 101.581C43.348 101.601 43.2159 101.595 43.0886 101.565C42.4471 101.418 41.8 100.506 41.6368 99.4647C41.5569 98.9664 41.5896 98.4566 41.7324 97.9727C41.7645 97.7837 41.8416 97.6053 41.9571 97.4524C42.0727 97.2995 42.2234 97.1767 42.3965 97.0944C42.5088 97.0504 42.6328 97.0465 42.7477 97.0834C42.8625 97.1203 42.9611 97.1958 43.0267 97.2971C43.128 97.4491 43.1055 97.573 43.1393 97.5786C43.173 97.5842 43.2518 97.466 43.173 97.2296C43.1221 97.0889 43.0249 96.9698 42.8973 96.8918C42.7257 96.7972 42.5246 96.7711 42.3346 96.8186C42.1014 96.8974 41.8922 97.0344 41.7268 97.2166C41.5614 97.3989 41.4452 97.6204 41.3892 97.8601C41.2063 98.4034 41.158 98.983 41.2485 99.5491C41.4398 100.715 42.1826 101.734 43.0549 101.869C43.2169 101.895 43.3828 101.884 43.5399 101.836C43.6969 101.788 43.8409 101.705 43.9609 101.593C44.0959 101.407 44.0959 101.272 44.0959 101.266Z" fill="#7C5142"/>
<path d="M44.7262 77.4797C43.038 75.284 46.6733 71.5457 49.4644 70.3578C52.2556 69.1699 56.1891 70.2001 59.1491 70.8701C61.0118 71.298 62.897 71.9567 64.7765 71.6921C66.0367 71.4402 67.2525 71.0018 68.3836 70.3916C69.5136 69.7711 70.7583 69.388 72.0414 69.2656C72.6841 69.2166 73.3279 69.3444 73.9032 69.6352C74.4785 69.9259 74.9633 70.3686 75.3053 70.9152C75.9018 72.0411 75.3672 73.7301 74.1179 74.0398C74.5021 73.7753 74.9448 73.6081 75.4079 73.5525C75.871 73.4969 76.3406 73.5546 76.7765 73.7206C77.2123 73.8867 77.6014 74.1561 77.9102 74.5058C78.2191 74.8555 78.4384 75.2749 78.5495 75.7281C78.6605 76.1813 78.66 76.6547 78.5478 77.1076C78.4356 77.5606 78.2153 77.9795 77.9056 78.3284C77.5959 78.6773 77.2062 78.9458 76.7699 79.1108C76.3337 79.2758 75.8639 79.3324 75.401 79.2757C76.1719 78.5663 77.545 79.484 77.545 80.5255C77.545 81.5671 76.6727 82.4228 75.7611 82.9351C73.4314 84.2413 70.5614 84.1737 67.9616 83.5713C65.3617 82.9689 62.897 81.8823 60.3084 81.2067C57.7198 80.5311 53.3811 79.3151 50.9613 80.4467C49.1831 81.2743 48.1139 83.622 47.0222 83.2617C46.5056 83.0472 46.0465 82.7143 45.6819 82.2899C45.3174 81.8656 45.0575 81.3615 44.9232 80.8183C44.6718 79.7262 44.5995 78.6006 44.7093 77.4853" fill="#263238"/>
<path d="M45.0581 95.8841C45.1306 98.9763 45.4848 102.056 46.116 105.083C46.747 108.122 48.1878 110.933 50.2859 113.219C53.0996 116.107 56.7912 118.849 60.7866 119.53C65.1478 120.251 70.4825 119.339 74.0334 116.715C75.7216 115.471 76.9427 112.774 76.4194 110.736C77.1342 110.399 77.7458 109.876 78.1911 109.223C78.6363 108.57 78.8989 107.809 78.9517 107.02C79.0418 105.444 78.0795 103.473 76.8358 103.265C77.77 103.107 78.0401 101.621 77.6856 100.782C77.331 99.9433 76.0986 99.6899 75.1645 99.8701C74.2412 100.112 73.3825 100.554 72.6491 101.165C71.9199 101.777 71.0972 102.267 70.2124 102.618C67.1962 103.597 64.1405 100.929 60.9723 101.058C58.108 101.171 55.5588 103.552 52.7169 103.152C51.9281 103.002 51.1796 102.687 50.5204 102.228C49.8611 101.77 49.3057 101.177 48.8903 100.489C48.0125 99.1438 48.3951 94.1726 48.0519 92.6074" fill="#263238"/>
<g opacity="0.6">
<path d="M68.0459 109.289C67.8087 109.234 67.5756 109.162 67.3481 109.075C66.7969 108.917 66.2169 108.889 65.6529 108.991C65.0888 109.094 64.556 109.325 64.0955 109.666C63.7353 109.925 63.5327 110.133 63.5327 110.105C63.5327 110.077 63.6453 109.829 63.9885 109.542C64.4507 109.135 65.0154 108.862 65.6214 108.753C66.2274 108.644 66.8518 108.703 67.4269 108.923C67.8433 109.064 68.0627 109.261 68.0459 109.289Z" fill="#455A64"/>
</g>
<path d="M61.8841 102.82C62.0979 102.786 62.2386 104.211 63.5723 105.072C64.906 105.934 66.386 105.663 66.4197 105.86C66.4479 105.945 66.1102 106.17 65.4687 106.249C64.6373 106.346 63.7983 106.147 63.0996 105.686C62.4303 105.239 61.9619 104.548 61.794 103.76C61.6646 103.186 61.7884 102.82 61.8841 102.82Z" fill="white"/>
<path d="M57.6523 118.578C57.7796 118.608 57.9026 118.653 58.0181 118.714C58.2601 118.804 58.6146 118.928 59.0817 119.057C60.4053 119.415 61.7638 119.628 63.1334 119.693C64.0713 119.748 65.0121 119.73 65.9471 119.637C67.0254 119.54 68.0908 119.333 69.1265 119.018C70.2701 118.676 71.3609 118.178 72.3679 117.537C73.463 116.876 74.4187 116.008 75.1816 114.981C76.0879 113.772 76.4912 112.259 76.3071 110.758V110.64L76.4083 110.595C77.1083 110.27 77.7143 109.772 78.1697 109.148C78.3906 108.854 78.5793 108.537 78.7325 108.202C78.8669 107.878 78.9504 107.534 78.9801 107.183C79.0413 106.549 78.9508 105.909 78.7159 105.317C78.4811 104.725 78.1087 104.197 77.6295 103.777L77.5451 103.71L77.6126 103.625C77.8664 103.303 78.032 102.92 78.0932 102.515C78.1544 102.109 78.109 101.694 77.9615 101.311C77.8458 101.021 77.671 100.758 77.4482 100.539C77.2254 100.32 76.9594 100.15 76.6672 100.039C76.2942 99.8899 75.8906 99.8339 75.4911 99.8757C75.2153 99.9095 75.0803 99.9602 75.0747 99.9433C75.2046 99.8815 75.3431 99.8397 75.4855 99.8194C76.02 99.7328 76.5682 99.8255 77.0446 100.083C77.5209 100.341 77.8987 100.749 78.1191 101.244C78.2857 101.657 78.3422 102.106 78.283 102.547C78.2238 102.988 78.051 103.406 77.7814 103.76V103.608C78.2955 104.047 78.6974 104.603 78.9539 105.229C79.2103 105.854 79.3138 106.532 79.2558 107.206C79.227 107.593 79.1378 107.973 78.9913 108.332C78.8281 108.685 78.6302 109.021 78.4004 109.334C77.9214 110.003 77.2778 110.536 76.5322 110.882L76.6166 110.713C76.8424 112.29 76.4381 113.892 75.4911 115.172C74.7057 116.229 73.7211 117.123 72.593 117.802C71.5656 118.456 70.4493 118.958 69.2785 119.293C68.2245 119.61 67.1398 119.814 66.0427 119.902C65.0895 119.977 64.1317 119.977 63.1784 119.902C61.7981 119.815 60.4327 119.568 59.1098 119.164C58.7512 119.052 58.3998 118.919 58.0575 118.764C57.9162 118.717 57.7804 118.655 57.6523 118.578Z" fill="#455A64"/>
<path d="M32.1432 103.721C32.0355 103.691 31.9343 103.642 31.845 103.575C31.5914 103.385 31.3964 103.127 31.2823 102.831C31.0921 102.356 31.0509 101.833 31.1641 101.334C31.3416 100.672 31.7384 100.091 32.2895 99.6843C32.937 99.196 33.6591 98.8158 34.4279 98.5583C35.2895 98.2874 36.1226 97.9329 36.9152 97.4999C37.7493 96.9716 38.4029 96.2018 38.7892 95.2929C39.2128 94.3148 39.4385 93.2623 39.4532 92.1964C39.4982 89.9951 38.9917 87.9064 38.9355 85.964C38.8792 84.0217 39.2168 82.2089 40.1003 80.9928C40.762 80.0179 41.7667 79.3284 42.914 79.0617C43.2251 78.9997 43.5438 78.9845 43.8594 79.0167C43.9696 79.0294 44.0786 79.0501 44.1858 79.0786C43.7689 79.0587 43.3511 79.0908 42.9421 79.1743C41.8363 79.4665 40.8767 80.156 40.2466 81.111C39.425 82.2933 39.0818 84.0499 39.1831 85.9528C39.2844 87.8557 39.7458 89.9444 39.7458 92.2077C39.7224 93.3142 39.4795 94.405 39.0311 95.4168C38.6174 96.3758 37.9203 97.1852 37.0334 97.7363C36.2191 98.1773 35.3609 98.532 34.473 98.7947C33.726 99.031 33.0213 99.3845 32.3852 99.8419C31.8627 100.212 31.48 100.748 31.2991 101.362C31.1765 101.83 31.1981 102.325 31.361 102.781C31.5094 103.173 31.7848 103.504 32.1432 103.721Z" fill="#455A64"/>
<path d="M74.3318 73.9441C74.4116 73.8956 74.4966 73.8559 74.585 73.8258C74.692 73.7781 74.8031 73.7404 74.917 73.7132C75.0697 73.6682 75.226 73.6362 75.3841 73.6175C75.9093 73.5603 76.4405 73.6233 76.9378 73.8018C77.435 73.9803 77.8851 74.2696 78.2541 74.6478C78.6231 75.143 78.8902 75.7065 79.0399 76.3056C79.1896 76.9048 79.219 77.5278 79.1263 78.1384C79.0159 78.8957 78.7548 79.6233 78.3585 80.2779C77.9622 80.9326 77.4388 81.5011 76.8191 81.9499C75.3923 82.9892 73.6871 83.5774 71.9233 83.6389C70.0111 83.7142 68.0982 83.5094 66.2453 83.0308C63.3019 82.3081 60.5091 81.0712 57.9956 79.377C56.9211 78.638 55.7924 77.9812 54.6191 77.4121C53.5915 76.9364 52.4851 76.654 51.3553 76.5789C49.7095 76.4652 48.0617 76.7712 46.5664 77.4684C45.5141 77.9639 45.0132 78.3918 44.9907 78.358C45.4529 77.9599 45.9657 77.6249 46.5157 77.3615C48.0199 76.6173 49.6912 76.2759 51.3665 76.3706C52.5329 76.4304 53.678 76.7073 54.7429 77.1869C55.9331 77.7546 57.0787 78.4115 58.17 79.1518C60.6657 80.8125 63.4303 82.0278 66.3409 82.7437C68.1653 83.2228 70.0494 83.4352 71.9345 83.3743C73.6446 83.3144 75.2989 82.7503 76.6897 81.7528C77.2866 81.3257 77.793 80.7843 78.1794 80.16C78.5657 79.5357 78.8245 78.8409 78.9406 78.1159C79.0398 77.5291 79.0217 76.9284 78.8874 76.3486C78.7532 75.7688 78.5054 75.2213 78.1584 74.7379C77.8093 74.3718 77.3835 74.0876 76.9117 73.9055C76.4398 73.7235 75.9335 73.6482 75.4291 73.6851C75.0572 73.7431 74.6904 73.8296 74.3318 73.9441Z" fill="#455A64"/>
<path d="M71.3489 68.984C71.3483 69.4272 71.2584 69.8657 71.0844 70.2733C70.5965 71.3934 69.7488 72.3187 68.6759 72.9025C67.9515 73.3242 67.1563 73.6104 66.3293 73.747C65.3814 73.8852 64.4185 73.8852 63.4706 73.747C61.4616 73.4936 59.3851 72.7054 57.2017 72.0242C55.0183 71.343 52.818 70.9376 50.8822 71.3542C49.1669 71.7291 47.6133 72.6353 46.4422 73.944C45.6445 74.817 45.0336 75.8439 44.6471 76.9617C44.3882 77.7611 44.3376 78.2284 44.3038 78.2228C44.29 78.1106 44.29 77.9972 44.3038 77.885C44.3488 77.5611 44.4184 77.2412 44.512 76.9279C44.8616 75.7715 45.4588 74.7052 46.2621 73.8033C47.4447 72.4363 49.0345 71.4851 50.7978 71.0896C52.8011 70.6448 55.0633 71.0558 57.258 71.7427C59.4526 72.4295 61.5123 73.2177 63.4762 73.4767C64.3998 73.6116 65.3381 73.6116 66.2618 73.4767C67.0641 73.3553 67.8381 73.0902 68.5465 72.6942C69.5953 72.1437 70.4381 71.2689 70.9494 70.2001C71.1147 69.806 71.2483 69.3994 71.3489 68.984Z" fill="#455A64"/>
<path d="M121.011 179.866C121.803 180.001 122.56 180.294 123.236 180.727C123.913 181.16 124.496 181.725 124.95 182.388C125.846 183.728 126.424 185.255 126.638 186.853C127.15 189.916 126.323 193.395 125.186 196.289C122.063 194.819 120.397 191.182 119.671 189.28C118.546 186.279 118.259 180.148 120.983 179.866" fill="#DF2E38"/>
<path d="M129.818 200.618C129.348 199.851 129.089 198.973 129.068 198.073C129.047 197.173 129.265 196.283 129.7 195.495C130.145 194.714 130.742 194.03 131.455 193.483C132.168 192.936 132.983 192.536 133.853 192.309C134.242 192.16 134.658 192.098 135.073 192.127C135.488 192.157 135.892 192.276 136.256 192.477C136.559 192.721 136.792 193.04 136.93 193.403C137.069 193.767 137.108 194.16 137.044 194.544C136.904 195.31 136.566 196.026 136.064 196.621C134.432 198.727 132.474 200.461 129.818 200.618Z" fill="#DF2E38"/>
<path d="M129.03 210.324C128.965 210.116 128.929 209.9 128.923 209.683C128.884 209.266 128.827 208.658 128.788 207.909C128.646 205.95 128.765 203.981 129.143 202.054C129.546 200.107 130.466 198.305 131.804 196.835C132.217 196.404 132.682 196.025 133.189 195.709C133.358 195.579 133.548 195.48 133.751 195.416C133.112 195.897 132.513 196.43 131.962 197.01C130.714 198.481 129.854 200.243 129.463 202.133C129.091 204.034 128.94 205.973 129.013 207.909C129.067 208.713 129.073 209.52 129.03 210.324Z" fill="#263238"/>
<path d="M121.754 184.533C121.912 184.856 122.043 185.192 122.148 185.536C122.379 186.189 122.711 187.134 123.082 188.311C123.853 190.664 124.86 193.941 125.896 197.572C126.931 201.204 127.764 204.525 128.338 206.935C128.625 208.14 128.844 209.114 128.985 209.795C129.079 210.142 129.143 210.496 129.176 210.854C129.039 210.522 128.932 210.179 128.856 209.829C128.659 209.097 128.405 208.14 128.102 207.014C127.466 204.621 126.582 201.316 125.558 197.685C124.534 194.054 123.566 190.771 122.857 188.401L122.03 185.586C121.909 185.244 121.816 184.891 121.754 184.533Z" fill="#263238"/>
<path d="M125.659 203.512C124.874 201.791 123.691 200.28 122.207 199.106C120.724 197.931 118.983 197.126 117.128 196.756C116.183 196.576 115.018 196.599 114.489 197.409C113.96 198.22 114.416 199.301 114.984 200.078C116.197 201.689 117.86 202.904 119.763 203.57C121.666 204.235 123.724 204.321 125.676 203.816" fill="#DF2E38"/>
<path d="M118.164 199.453C118.374 199.445 118.585 199.468 118.788 199.521C119.03 199.554 119.269 199.604 119.503 199.673C119.819 199.747 120.131 199.839 120.437 199.948C121.237 200.229 122.006 200.589 122.733 201.024C124.528 202.087 126.048 203.558 127.167 205.319C127.617 206.03 127.994 206.785 128.293 207.571C128.415 207.873 128.518 208.181 128.602 208.495C128.68 208.728 128.74 208.967 128.783 209.21C128.842 209.411 128.868 209.62 128.861 209.829C128.799 209.829 128.625 208.968 128.068 207.667C127.737 206.907 127.34 206.178 126.88 205.488C126.312 204.649 125.662 203.868 124.939 203.158C124.207 202.458 123.407 201.832 122.553 201.288C121.848 200.849 121.106 200.473 120.336 200.162C119.03 199.667 118.152 199.521 118.164 199.453Z" fill="#263238"/>
</g>
<defs>
<clipPath id="clip0_1401_19742">
<rect width="256" height="211" fill="white"/>
</clipPath>
</defs>
</svg>
