<svg width="277" height="277" viewBox="0 0 277 277" fill="none" xmlns="http://www.w3.org/2000/svg">
<path d="M277 0H0V277H277V0Z" fill="#121212"/>
<path d="M277 91.6981V0H275.576C275.576 0 255.632 38.9794 253.871 44.32C252.109 49.6606 202.038 155.048 198.049 163.026C194.061 171.003 163.053 247.195 160.377 241.439C157.702 235.683 170.566 205.551 173.673 194.903C176.781 184.255 194.493 92.5679 200.265 82.823C206.038 73.0781 218.869 0 218.869 0H183.413C183.413 0 181.197 15.0577 180.31 19.0465C179.424 23.0353 167.463 77.5212 163.037 104.989C158.61 132.456 140.001 237.45 138.229 243.649C136.456 249.848 132.484 260.934 128.495 254.286C124.506 247.638 128.495 215.301 130.711 189.163C132.927 163.026 118.75 0 118.75 0H83.2939C83.2939 0 97.0442 115.177 101.936 126.257C106.828 137.337 116.977 242.768 116.091 247.638C115.204 252.508 113.875 255.172 110.335 249.411C106.795 243.649 82.8673 164.798 76.6625 150.178C70.4577 135.558 55.4 82.8396 49.6439 70.4356C43.8879 58.0315 14.6422 0 14.6422 0H0V76.9063C12.332 100.224 24.9799 123.093 29.7055 128.024C39.888 138.661 97.504 248.081 98.817 250.74C100.13 253.4 105.465 262.701 98.817 260.485C92.169 258.269 50.968 210.869 42.104 201.567C35.0128 194.116 13.9996 171.048 0 156.006V200.038C24.9688 220.691 76.2193 264.031 76.2193 264.031C76.2193 264.031 28.941 243.804 0 230.641V252.879C5.54 255.012 11.9553 257.311 20.4038 260.042C36.9463 265.366 58.9456 272.319 73.8316 277H257.056C257.782 276.718 258.486 276.381 259.161 275.992C261.588 274.557 268.114 271.593 276.978 267.776V242.591C256.081 255.527 237.744 266.895 235.683 268.02C230.813 270.673 217.523 274.219 214.42 268.906C212.254 265.155 249.234 233.234 277 210.077V173.352C253.361 199.767 210.586 250.707 209.567 252.07C208.238 253.843 182.1 268.463 178.543 263.15C174.986 257.837 193.601 237.012 202.022 224.608C209.274 213.938 257.433 125.354 277 91.6981Z" fill="#121212"/>
<path d="M277 91.6981V0H275.576C275.576 0 255.632 38.9794 253.871 44.32C252.109 49.6606 202.038 155.048 198.049 163.026C194.061 171.003 163.053 247.195 160.377 241.439C157.702 235.683 170.566 205.551 173.673 194.903C176.781 184.255 194.493 92.5679 200.265 82.823C206.038 73.0781 218.869 0 218.869 0H183.413C183.413 0 181.197 15.0577 180.31 19.0465C179.424 23.0353 167.463 77.5212 163.037 104.989C158.61 132.456 140.001 237.45 138.229 243.649C136.456 249.848 132.484 260.934 128.495 254.286C124.506 247.638 128.495 215.301 130.711 189.163C132.927 163.026 118.75 0 118.75 0H83.2939C83.2939 0 97.0442 115.177 101.936 126.257C106.828 137.337 116.977 242.768 116.091 247.638C115.204 252.508 113.875 255.172 110.335 249.411C106.795 243.649 82.8673 164.798 76.6625 150.178C70.4577 135.558 55.4 82.8396 49.6439 70.4356C43.8879 58.0315 14.6422 0 14.6422 0H0V76.9063C12.332 100.224 24.9799 123.093 29.7055 128.024C39.888 138.661 97.504 248.081 98.817 250.74C100.13 253.4 105.465 262.701 98.817 260.485C92.169 258.269 50.968 210.869 42.104 201.567C35.0128 194.116 13.9996 171.048 0 156.006V200.038C24.9688 220.691 76.2193 264.031 76.2193 264.031C76.2193 264.031 28.941 243.804 0 230.641V252.879C5.54 255.012 11.9553 257.311 20.4038 260.042C36.9463 265.366 58.9456 272.319 73.8316 277H257.056C257.782 276.718 258.486 276.381 259.161 275.992C261.588 274.557 268.114 271.593 276.978 267.776V242.591C256.081 255.527 237.744 266.895 235.683 268.02C230.813 270.673 217.523 274.219 214.42 268.906C212.254 265.155 249.234 233.234 277 210.077V173.352C253.361 199.767 210.586 250.707 209.567 252.07C208.238 253.843 182.1 268.463 178.543 263.15C174.986 257.837 193.601 237.012 202.022 224.608C209.274 213.938 257.433 125.354 277 91.6981Z" fill="white" fill-opacity="0.05"/>
<mask id="mask0_1352_21194" style="mask-type:luminance" maskUnits="userSpaceOnUse" x="0" y="0" width="277" height="277">
<path d="M277 0H0V277H277V0Z" fill="white"/>
</mask>
<g mask="url(#mask0_1352_21194)">
<path d="M294.174 131.647C303.946 133.459 305.719 154.15 302.938 163.696C297.027 174.189 289.891 181.784 281.332 190.26C220.209 250.818 132.439 283.465 46.5856 277.554C35.9599 276.828 25.1458 275.476 15.5616 270.845C4.52342 265.518 -4.08805 256.208 -8.54057 244.789C-12.9931 233.37 -12.9563 220.689 -8.43767 209.296C-6.41301 210.895 -4.2033 212.246 -1.85615 213.318C-6.54853 222.154 -3.81731 233.577 2.71435 241.123C9.24601 248.668 18.8358 252.89 28.5141 255.394C70.7345 266.324 115.232 248.22 151.463 223.91C187.695 199.601 221.655 172.266 258.607 149.12C269.244 142.417 284.418 129.835 294.174 131.647Z" fill="#F78068"/>
<path d="M338.749 152.826C339.208 157.12 338.028 161.408 336.859 165.568C322.649 189.108 303.647 209.373 282.396 226.83C247.084 255.821 206.271 278.551 162.117 290.241C117.963 301.93 70.4242 302.257 26.9685 288.18C11.9551 283.316 -3.21899 276.224 -12.4376 263.416C-24.6256 246.469 -23.4345 222.647 -13.8226 203.983C-12.2282 205.955 -10.4204 207.744 -8.43213 209.318C-12.9508 220.711 -12.9876 233.392 -8.53503 244.812C-4.08252 256.231 4.52895 265.54 15.5671 270.867C25.1458 275.499 35.9599 276.85 46.5911 277.576C132.461 283.465 220.215 250.818 281.354 190.26C289.913 181.784 297.049 174.194 302.96 163.696C304.621 159.195 307.204 155.091 310.543 151.646C313.882 148.201 317.903 145.491 322.35 143.691C325.331 142.505 328.677 141.746 331.718 142.771C335.801 144.156 338.289 148.527 338.749 152.826Z" fill="#F49C6A"/>
<path d="M365.28 157.065C366.388 165.984 364.172 174.992 361.169 183.468C347.236 222.858 318.04 259.366 281.615 279.814C245.189 300.262 201.75 305.559 160.289 310.777C115.298 316.445 68.5296 316.522 25.8716 301.116C12.354 296.235 -0.842314 289.687 -11.1966 279.72C-21.5508 269.754 -28.8581 255.998 -28.7473 241.627C-28.642 227.666 -21.8112 214.758 -15.0524 202.393C-14.6591 202.947 -14.2491 203.462 -13.8281 203.983C-23.44 222.647 -24.6477 246.469 -12.4431 263.416C-3.22451 276.224 11.9329 283.316 26.9629 288.18C70.4187 302.257 117.957 301.93 162.139 290.241C206.32 278.551 247.084 255.821 282.396 226.83C303.647 209.373 322.649 189.108 336.859 165.568C341.009 159.437 346.381 154.23 352.637 150.272C354.709 148.959 357.13 147.752 359.524 148.278C363.18 149.076 364.825 153.347 365.28 157.065Z" fill="#DF2E38"/>
<path d="M229.256 200.409C228.87 200.201 228.552 199.888 228.336 199.506C228.215 199.162 228.179 198.793 228.231 198.432C228.456 194.738 228.682 191.054 228.907 187.379C225.255 190.15 221.816 193.191 218.619 196.476C213.969 194.48 208.808 194.003 203.872 195.113C206.383 198.068 208.773 201.122 211.04 204.276C211.148 204.378 211.233 204.5 211.291 204.636C211.348 204.772 211.377 204.919 211.374 205.066C211.371 205.214 211.338 205.36 211.276 205.494C211.213 205.628 211.124 205.747 211.013 205.844L204.869 214.398L216.392 211.766C216.761 211.605 217.172 211.565 217.566 211.653C217.959 211.741 218.314 211.951 218.58 212.254C221.957 215.245 225.173 218.413 228.214 221.744C227.91 217.885 227.166 214.073 225.998 210.381C230.296 209.79 234.454 208.436 238.275 206.382L229.256 200.409ZM282.24 174.399C279.776 171.849 276.95 169.676 273.853 167.951C274.185 164.181 274.03 160.385 273.393 156.655C270.06 158.867 267.118 161.619 264.69 164.798C260.346 162.975 255.581 162.399 250.928 163.136L257.637 171.635C254.994 174.196 252.515 176.922 250.214 179.795C254.295 179.47 258.35 178.874 262.352 178.011C264.479 181.509 266.725 184.929 269.088 188.271C270.01 184.475 270.651 180.616 271.005 176.726C274.789 176.153 278.54 175.376 282.24 174.399ZM184.847 230.143C185.179 226.373 185.025 222.577 184.387 218.847C181.055 221.058 178.114 223.808 175.684 226.985C171.34 225.164 166.575 224.589 161.923 225.323C164.161 228.159 166.397 230.994 168.632 233.827C165.99 236.38 163.512 239.098 161.214 241.965C165.294 241.637 169.349 241.041 173.352 240.181C175.479 243.675 177.725 247.093 180.088 250.436C181.009 246.647 181.65 242.795 182.005 238.912C185.789 238.34 189.54 237.563 193.24 236.586C190.775 234.037 187.946 231.866 184.847 230.143ZM139.159 251.128C139.387 248.516 139.279 245.885 138.838 243.3C136.53 244.834 134.493 246.74 132.81 248.94C129.804 247.673 126.504 247.27 123.281 247.776L127.929 253.66C126.095 255.434 124.376 257.323 122.783 259.316C125.61 259.089 128.42 258.674 131.192 258.075C132.67 260.502 134.225 262.871 135.857 265.183C136.493 262.558 136.938 259.89 137.187 257.2C139.799 256.8 142.388 256.262 144.943 255.588C143.244 253.826 141.295 252.323 139.159 251.128ZM93.5702 262.463C93.7589 260.3 93.6695 258.122 93.3043 255.981C91.3932 257.249 89.7079 258.827 88.3183 260.651C85.8262 259.6 83.0899 259.266 80.4182 259.687L84.2962 264.563C82.7785 266.035 81.3538 267.6 80.0304 269.25C82.366 269.06 84.6867 268.718 86.9776 268.225C88.1964 270.23 89.489 272.193 90.8556 274.114C91.3875 271.939 91.7579 269.728 91.9636 267.499C94.1352 267.168 96.2877 266.722 98.4121 266.164C96.9911 264.696 95.3591 263.449 93.5702 262.463ZM50.9122 266.208C51.0581 264.516 50.9873 262.813 50.7017 261.139C49.2175 262.135 47.9073 263.368 46.8237 264.79C44.8761 263.971 42.7393 263.71 40.6521 264.036L43.6603 267.848C42.4781 268.997 41.368 270.218 40.3363 271.504C42.1674 271.361 43.9868 271.094 45.7821 270.707C46.735 272.276 47.7414 273.809 48.8014 275.305C49.2175 273.608 49.5046 271.882 49.6601 270.141C51.356 269.882 53.037 269.532 54.696 269.094C53.5907 267.95 52.321 266.978 50.9288 266.208H50.9122ZM17.8772 258.452C17.9937 257.093 17.9378 255.725 17.711 254.38C16.5097 255.178 15.4499 256.17 14.5753 257.316C13.0024 256.653 11.2756 256.442 9.58931 256.707L12.0103 259.771C11.0583 260.695 10.1646 261.677 9.33447 262.712C10.8059 262.595 12.268 262.38 13.7111 262.07C14.4756 263.327 15.2844 264.563 16.1321 265.765C16.468 264.399 16.6995 263.01 16.8246 261.61C18.1888 261.406 19.5408 261.126 20.8743 260.773C19.9967 259.867 18.9928 259.093 17.8938 258.474L17.8772 258.452Z" fill="#F9B232"/>
</g>
<path d="M25.0574 231.223C23.8577 229.759 22.8211 228.169 21.9661 226.481C23.6616 227.252 25.2306 228.276 26.6197 229.517C26.7271 229.644 26.8804 229.724 27.0463 229.738C27.1746 229.716 27.2927 229.654 27.3842 229.561C28.8759 228.335 30.4847 227.259 32.1874 226.348L28.5088 231.062C28.3966 231.184 28.3233 231.336 28.2983 231.5C28.3114 231.647 28.3651 231.787 28.4534 231.904L31.578 236.951L27.0795 233.749C27.0103 233.673 26.9264 233.61 26.8329 233.567C26.7394 233.523 26.638 233.498 26.5348 233.494C26.4316 233.49 26.3286 233.506 26.2319 233.543C26.1351 233.579 26.0466 233.634 25.9715 233.705L21.7334 236.475C22.8359 234.785 23.9328 233.118 25.0574 231.223Z" fill="#DF2E38"/>
<path d="M241.018 220.21C239.998 219.062 239.043 217.858 238.159 216.603C239.533 217.268 240.877 217.994 242.192 218.78C243.648 217.689 245.177 216.699 246.768 215.816L243.91 219.561C243.806 219.67 243.734 219.807 243.705 219.955C243.705 220.121 243.756 220.283 243.849 220.42C244.617 221.82 245.385 223.221 246.153 224.625C244.835 223.572 243.478 222.571 242.081 221.622C241.008 222.663 239.831 223.591 238.569 224.392C239.289 223.096 240.015 221.805 241.018 220.21Z" fill="white"/>
<path d="M227.617 26.2263C226.592 25.0814 225.636 23.8771 224.752 22.6198C226.134 23.2883 227.478 24.014 228.786 24.797C230.243 23.7094 231.772 22.721 233.362 21.8386L230.503 25.5781C230.401 25.6903 230.332 25.8283 230.304 25.977C230.304 26.143 230.354 26.305 230.448 26.4424C231.212 27.8458 231.98 29.2474 232.752 30.6472C231.434 29.5946 230.075 28.5937 228.675 27.6445C227.602 28.6863 226.425 29.6146 225.162 30.4145C225.888 29.1126 226.586 27.8274 227.617 26.2263Z" fill="#F9B232"/>
<path d="M226.586 126.146C226.679 126.685 226.657 127.237 226.522 127.767C226.386 128.297 226.14 128.793 225.799 129.221C225.024 130.052 223.805 130.279 222.669 130.329C219.722 130.423 216.747 129.581 213.805 129.952C217.563 127.414 221.783 125.641 226.226 124.733C226.409 125.186 226.53 125.661 226.586 126.146Z" fill="#A06ACC"/>
<path d="M225.583 123.575C225.835 123.865 226.04 124.192 226.193 124.545C221.622 125.489 217.288 127.345 213.451 130.002C214.497 127.56 216.193 125.453 218.354 123.908C219.412 123.094 220.658 122.561 221.977 122.356C222.631 122.263 223.299 122.324 223.925 122.536C224.552 122.748 225.12 123.104 225.583 123.575Z" fill="#7F52A3"/>
<path d="M213.434 130.002C217.272 127.345 221.605 125.489 226.176 124.545C226.176 124.606 226.226 124.661 226.248 124.722C221.811 125.631 217.597 127.405 213.844 129.941L213.434 130.002Z" fill="white"/>
<path d="M43.3392 162.084C42.7519 163.106 42.2924 164.196 41.9708 165.33C41.9108 165.452 41.8975 165.591 41.9332 165.722C41.9689 165.852 42.0513 165.965 42.1647 166.039C43.8569 167.609 45.9221 168.721 48.1645 169.269C50.4006 169.81 52.6853 170.126 54.9843 170.211C50.2532 168.987 46.12 166.102 43.3392 162.084ZM45.04 157.408C48.3035 160.885 51.788 164.147 55.4718 167.175C52.7295 163.092 50.1645 159.07 47.8321 154.921L45.04 157.408ZM57.5105 152.904L53.6325 153.375C55.9093 157.491 57.1437 162.101 57.228 166.804C58.2092 164.626 58.7401 162.271 58.7886 159.883C58.8372 157.494 58.4024 155.12 57.5105 152.904Z" fill="#DF2E38"/>
<path d="M54.5193 78.3799C54.5932 77.9272 54.5315 77.4627 54.3421 77.0448C53.705 75.9368 51.7383 76.4354 51.0181 75.3828C50.7493 74.8501 50.6824 74.2381 50.8297 73.6599C51.0901 71.732 51.2895 69.7819 51.4391 67.8595C51.4923 67.5531 51.4497 67.2378 51.3172 66.9565C50.9571 66.4025 50.0652 66.5465 49.4281 66.2917C48.791 66.0368 48.3866 65.2335 48.1373 64.5244C47.4993 62.7086 47.0066 60.845 46.6636 58.9512C45.9449 61.3911 45.9971 63.9934 46.8132 66.4025C46.8959 66.7615 47.0898 67.0852 47.3672 67.3276C47.7128 67.4772 48.0682 67.603 48.4309 67.7044C48.6727 67.8325 48.8791 68.0184 49.0318 68.2455C49.1845 68.4727 49.2788 68.734 49.3062 69.0063C49.3347 69.5401 49.2881 70.0754 49.1677 70.5963C48.9184 71.925 48.7794 73.2721 48.7522 74.6238C48.7158 75.0545 48.7962 75.487 48.9849 75.8759C49.4502 76.657 50.5749 76.7013 51.3006 77.2498C52.0263 77.7983 52.2812 78.9118 52.4086 79.9034C52.8407 83.0834 53.2285 86.2745 53.7493 89.4212C54.0189 85.7426 54.2756 82.0622 54.5193 78.3799ZM41.8327 82.8119C41.1125 82.7122 40.3536 83.1111 39.6777 82.8452C39.1608 82.5518 38.7673 82.0816 38.5697 81.5211C37.7499 79.9096 36.744 78.3998 35.5725 77.0226C35.4436 76.8268 35.2459 76.6864 35.0185 76.6293C34.7763 76.6542 34.5411 76.7257 34.326 76.8398C33.6945 77.0282 33.0795 76.5462 32.5976 76.0975L26.9634 70.912C27.0892 71.7268 27.4783 72.4779 28.0714 73.0505C29.3567 74.5869 30.6493 76.1122 31.9494 77.6265C32.2588 78.0543 32.6727 78.3957 33.1516 78.6182C33.4396 78.7179 33.7443 78.7345 34.038 78.8232C35.2124 79.1777 35.7 80.5295 36.1764 81.6652C36.4835 82.4848 36.9463 83.2373 37.5392 83.8812C37.8388 84.2016 38.2033 84.4543 38.6084 84.6224C39.0135 84.7906 39.4498 84.8703 39.8882 84.8562C40.2795 84.7728 40.6815 84.7522 41.0793 84.7953C41.4899 84.9357 41.8477 85.1987 42.1042 85.5487C43.6821 87.4195 45.3633 89.2006 47.1401 90.8837C46.1569 88.7374 45.0584 86.6457 43.8493 84.618C43.3673 83.8202 42.7524 82.9505 41.8327 82.8341V82.8119Z" fill="#DF2E38"/>
<path d="M87.3382 50.8793L84.1139 55.2559C83.7661 55.781 83.3401 56.2499 82.8508 56.6464C82.3863 56.9693 81.8458 57.1657 81.2823 57.2162C80.7189 57.2667 80.1521 57.1696 79.6376 56.9345C79.1288 56.6877 78.686 56.3234 78.346 55.8716C78.0059 55.4198 77.7783 54.8935 77.682 54.3363C77.6095 54.0015 77.6086 53.6553 77.6793 53.3202C77.7499 52.9851 77.8905 52.6687 78.0919 52.3917C78.4262 52.0465 78.8591 51.8132 79.3313 51.7239C79.8035 51.6346 80.2917 51.6938 80.729 51.8931C81.5985 52.3102 82.3252 52.9752 82.8175 53.8044C84.4241 51.7029 86.0344 49.6051 87.6484 47.511C88.8728 49.5275 90.2079 51.6494 92.3297 52.6798C91.6095 54.918 90.8875 57.1524 90.1636 59.3832C90.0316 59.8974 89.8042 60.3823 89.4932 60.8125C89.1708 61.1598 88.7646 61.4186 88.3136 61.5641C87.8626 61.7096 87.3818 61.7369 86.9171 61.6435C86.3568 61.5656 85.8237 61.353 85.3635 61.024C84.9033 60.695 84.5296 60.2593 84.2746 59.7544C84.113 59.4672 84.0404 59.1386 84.0661 58.8101C84.0917 58.4816 84.2144 58.1682 84.4186 57.9096C84.6338 57.7201 84.8959 57.5919 85.1776 57.5384C85.675 57.4356 86.1908 57.4683 86.6712 57.633C87.1517 57.7977 87.5791 58.0884 87.9088 58.4746C88.7343 56.9844 89.5043 55.4609 90.219 53.9208C89.1493 53.0165 88.1831 51.9964 87.3382 50.8793Z" fill="#EA5189"/>
<path d="M101.144 31.9824C98.7483 31.7541 96.483 30.786 94.6622 29.2124C93.8032 28.5119 93.1282 27.6124 92.6955 26.592C92.4629 25.9965 92.3584 25.3586 92.389 24.72C92.4195 24.0814 92.5844 23.4564 92.8727 22.8857C93.2891 22.0777 93.9639 21.4322 94.7896 21.052C95.5404 25.3352 97.7933 29.2106 101.144 31.9824Z" fill="#F29200"/>
<path d="M100.501 28.4922C100.557 29.6002 100.562 30.7636 101.144 31.7442C97.8817 28.9999 95.6939 25.1915 94.9668 20.991C95.2616 20.8739 95.571 20.7975 95.8864 20.7639C96.5237 20.692 97.1687 20.7929 97.7535 21.0561C98.3384 21.3193 98.8416 21.735 99.2104 22.2597C99.5864 22.8963 99.8418 23.5968 99.9639 24.3261C100.253 25.6983 100.433 27.0914 100.501 28.4922Z" fill="#DF2E38"/>
<path d="M94.9668 20.9911C95.694 25.1915 97.8818 29 101.144 31.7442C101.194 31.8325 101.25 31.9176 101.31 31.9991H101.144C97.7899 29.2231 95.5366 25.3413 94.7896 21.052L94.9668 20.9911Z" fill="white"/>
<path d="M170.045 77.4658L180.665 59.5772C181.8 57.6603 182.98 55.4222 182.266 53.3114C182 52.5303 181.485 51.8045 181.485 50.9791C181.539 50.341 181.75 49.7262 182.1 49.1897L184.77 44.2812C184.833 44.211 184.879 44.1269 184.904 44.0356C184.929 43.9444 184.933 43.8485 184.914 43.7558C184.895 43.6631 184.854 43.5761 184.796 43.5018C184.737 43.4276 184.662 43.3681 184.576 43.3283C183.569 42.5475 182.448 41.9254 181.252 41.4835C180.343 43.0199 179.439 44.5582 178.537 46.0983C178.304 46.5401 178.008 46.9452 177.657 47.3005C177.059 47.7882 176.334 48.0956 175.568 48.1869C174.255 48.4141 172.837 48.4085 171.729 49.1453C171.029 49.6895 170.446 50.3698 170.017 51.1453C166.344 56.8238 162.665 62.5078 159.341 68.3968C158.747 69.2651 158.399 70.2776 158.333 71.3275C158.372 72.6017 159.208 73.7042 160.134 74.585C161.694 76.0753 163.574 77.1911 165.629 77.8481C166.531 78.1848 167.501 78.2952 168.455 78.1694C169.374 77.9921 170.283 77.3883 170.045 77.4658Z" fill="#6C499B"/>
<path d="M171.53 56.9457C170.217 56.2034 168.887 55.2283 168.206 53.9375C165.574 58.0205 162.976 62.1145 160.533 66.3083C161.999 68.2149 163.868 69.7744 166.006 70.8757C168.145 71.9769 170.5 72.5928 172.904 72.6793L180.399 60.0481C177.282 59.5499 174.278 58.4993 171.53 56.9457Z" fill="#A06ACC"/>
<path d="M185.512 44.7465C183.866 43.4734 182.01 42.4967 180.028 41.8602C180.636 40.4949 181.457 39.2346 182.46 38.1262C184.481 38.4727 186.315 39.5202 187.64 41.0846C187.088 42.39 186.373 43.6204 185.512 44.7465Z" fill="#057C5E"/>
<path d="M185.59 37.2288C184.991 33.8654 185.042 30.4183 185.74 27.074C186.446 23.7237 188.022 20.6186 190.31 18.0715C191.299 16.8969 192.596 16.0219 194.055 15.5453C194.482 15.3926 194.948 15.3926 195.374 15.5453C195.638 15.6885 195.857 15.9031 196.005 16.1647C196.152 16.4263 196.224 16.7242 196.21 17.0244C196.178 17.6258 196.018 18.2133 195.739 18.7474C194.277 22.0381 192.216 25.0353 190.792 28.3371C192.659 25.574 195.098 23.2444 197.944 21.5063C200.097 20.0948 202.578 19.2629 205.146 19.0909C205.635 19.044 206.127 19.1241 206.576 19.3235C206.86 19.4868 207.1 19.7161 207.276 19.9918C207.453 20.2676 207.56 20.5819 207.59 20.908C207.643 21.5612 207.529 22.2172 207.257 22.8137C206.506 24.4644 205.291 25.8615 203.761 26.8358C202.237 27.7988 200.634 28.6309 198.969 29.3232C195.391 30.9123 191.907 32.7084 188.537 34.7026C187.379 35.3144 186.372 36.1775 185.59 37.2288Z" fill="#DF2E38"/>
<path d="M220.226 155.12H220.176C219.196 154.228 218.304 153.375 217.484 152.555C216.428 153.079 215.388 153.619 214.365 154.173C214.351 154.182 214.335 154.186 214.318 154.184C214.302 154.182 214.286 154.175 214.275 154.163C214.263 154.152 214.256 154.136 214.254 154.12C214.252 154.103 214.256 154.087 214.265 154.073C214.819 153.043 215.373 152.007 215.96 150.976C215.069 150.007 214.265 149.065 213.545 148.129C213.538 148.117 213.535 148.103 213.535 148.09C213.535 148.076 213.538 148.063 213.545 148.051C213.55 148.039 213.559 148.029 213.57 148.023C213.581 148.016 213.593 148.012 213.606 148.012C214.111 147.992 214.617 148.031 215.113 148.129C215.861 148.245 216.614 148.372 217.368 148.511C217.955 147.486 218.542 146.472 219.14 145.464C219.147 145.45 219.159 145.438 219.173 145.431C219.187 145.424 219.203 145.422 219.218 145.425C219.233 145.429 219.246 145.438 219.256 145.45C219.266 145.462 219.272 145.476 219.273 145.492C219.417 146.644 219.55 147.796 219.678 148.96C220.874 149.209 222.066 149.48 223.24 149.774C223.256 149.777 223.27 149.785 223.28 149.797C223.29 149.809 223.296 149.825 223.295 149.84C223.296 149.855 223.292 149.87 223.284 149.883C223.276 149.896 223.265 149.906 223.251 149.912C222.143 150.394 221.035 150.882 219.927 151.381C220.056 152.61 220.178 153.835 220.293 155.054C220.296 155.069 220.293 155.085 220.286 155.099C220.279 155.113 220.268 155.124 220.254 155.131L220.226 155.12ZM217.622 152.472C218.393 153.242 219.224 154.034 220.138 154.865C220.027 153.724 219.911 152.579 219.789 151.43C219.057 151.796 218.332 152.14 217.622 152.494V152.472ZM216.06 151.098C215.539 152.04 215.021 152.985 214.503 153.934C215.445 153.425 216.4 152.93 217.368 152.45C216.913 151.99 216.481 151.541 216.06 151.098ZM216.138 150.965C216.57 151.43 217.024 151.901 217.506 152.383C218.249 152.018 219.002 151.652 219.766 151.275C219.689 150.538 219.611 149.802 219.528 149.059C218.83 148.915 218.132 148.777 217.429 148.649C217 149.429 216.572 150.201 216.143 150.965H216.138ZM219.678 149.12C219.761 149.824 219.833 150.527 219.911 151.231C220.908 150.769 221.929 150.315 222.974 149.868C221.888 149.595 220.791 149.346 219.683 149.12H219.678ZM213.739 148.156C214.431 149.043 215.185 149.935 216.033 150.849C216.442 150.11 216.856 149.371 217.273 148.633C216.542 148.5 215.805 148.378 215.057 148.262C214.624 148.186 214.184 148.15 213.744 148.156H213.739ZM217.506 148.544C218.176 148.666 218.847 148.793 219.512 148.932C219.39 147.861 219.266 146.793 219.14 145.73C218.598 146.66 218.049 147.597 217.512 148.544H217.506Z" fill="#E63271"/>
<path d="M158.327 21.8664H158.278C156.959 21.7224 155.74 21.5562 154.593 21.3734C154.043 22.4223 153.519 23.4693 153.02 24.5145C153.013 24.529 153.002 24.541 152.988 24.549C152.974 24.5569 152.958 24.5604 152.943 24.5589C152.926 24.5558 152.911 24.5478 152.899 24.5359C152.887 24.5241 152.879 24.5089 152.876 24.4924C152.726 23.329 152.577 22.16 152.438 20.9911C151.142 20.7307 149.94 20.4371 148.804 20.1047C148.792 20.1009 148.78 20.0937 148.772 20.0839C148.763 20.0742 148.757 20.0622 148.754 20.0493C148.749 20.0381 148.746 20.0258 148.746 20.0133C148.746 20.0008 148.749 19.9885 148.754 19.9773C149.152 19.6679 149.583 19.404 150.04 19.1906C150.721 18.8416 151.402 18.5036 152.095 18.1712C151.968 17.0023 151.846 15.8334 151.74 14.6644C151.738 14.6498 151.74 14.6348 151.747 14.6217C151.754 14.6087 151.766 14.5984 151.779 14.5924C151.792 14.584 151.808 14.5796 151.823 14.5796C151.839 14.5796 151.855 14.584 151.868 14.5924C152.654 15.4456 153.441 16.2987 154.228 17.163C155.336 16.6644 156.444 16.1824 157.591 15.7336C157.603 15.7258 157.617 15.7216 157.632 15.7216C157.647 15.7216 157.661 15.7258 157.674 15.7336C157.682 15.7469 157.687 15.7623 157.687 15.778C157.687 15.7936 157.682 15.809 157.674 15.8223C157.035 16.8823 156.429 17.9256 155.857 18.9524C156.684 19.872 157.504 20.7953 158.316 21.7224C158.324 21.7348 158.328 21.7492 158.328 21.7639C158.328 21.7786 158.324 21.7931 158.316 21.8055L158.327 21.8664ZM154.665 21.2515C155.74 21.4177 156.881 21.5728 158.106 21.7113C157.347 20.8526 156.582 19.9884 155.812 19.1352C155.419 19.8443 155.037 20.5479 154.665 21.2515ZM152.588 21.0299C152.715 22.1046 152.854 23.1739 152.992 24.2431C153.458 23.2791 153.94 22.3189 154.438 21.3623C153.801 21.257 153.186 21.1462 152.588 21.052V21.0299ZM152.588 20.8803C153.208 21.0022 153.857 21.1185 154.527 21.2238C154.915 20.4851 155.314 19.7464 155.724 19.0078C155.225 18.4538 154.732 17.8998 154.228 17.3458C153.58 17.6394 152.931 17.9386 152.289 18.2488C152.37 19.1315 152.464 20.0087 152.571 20.8803H152.588ZM154.372 17.307L155.801 18.8804C156.355 17.9219 156.909 16.958 157.463 15.9774C156.422 16.4058 155.386 16.849 154.355 17.307H154.372ZM148.998 20.0105C150.078 20.3263 151.214 20.6033 152.433 20.8471C152.339 20.0105 152.239 19.1851 152.15 18.3374C151.474 18.6588 150.81 18.9912 150.145 19.3291C149.738 19.5217 149.349 19.7497 148.981 20.0105H148.998ZM152.272 18.1158C152.887 17.8222 153.508 17.5341 154.128 17.2571C153.402 16.4594 152.671 15.6672 151.945 14.8805C152.034 15.9552 152.137 17.0337 152.256 18.1158H152.272Z" fill="#F29200"/>
<path d="M44.6522 36.5086C44.6357 36.5027 44.6219 36.4908 44.6134 36.4754C43.9708 35.3175 43.3946 34.2261 42.8794 33.1902C41.7049 33.3453 40.5526 33.5226 39.4058 33.7442C39.3885 33.7444 39.3717 33.7383 39.3585 33.7271C39.3452 33.7159 39.3365 33.7003 39.3338 33.6832C39.3229 33.671 39.3169 33.6553 39.3169 33.6389C39.3169 33.6226 39.3229 33.6068 39.3338 33.5946C40.1944 32.7968 41.0605 32.0009 41.9321 31.2068C41.3781 29.9991 40.9349 28.8523 40.5526 27.7333C40.5457 27.7225 40.542 27.71 40.542 27.6973C40.542 27.6845 40.5457 27.672 40.5526 27.6612C40.5642 27.6538 40.5777 27.6499 40.5914 27.6499C40.6051 27.6499 40.6186 27.6538 40.6302 27.6612C41.1188 27.8086 41.5905 28.0073 42.0373 28.254C42.7132 28.6086 43.3836 28.9687 44.0539 29.362C44.9348 28.5809 45.8212 27.8053 46.702 27.0408C46.715 27.0317 46.7305 27.0269 46.7463 27.0269C46.7622 27.0269 46.7777 27.0317 46.7907 27.0408C46.8037 27.0486 46.8139 27.0602 46.8198 27.0742C46.8258 27.0881 46.8272 27.1035 46.8239 27.1183C46.5912 28.2522 46.3493 29.3897 46.0982 30.531C47.1508 31.1514 48.1923 31.7885 49.2116 32.4423C49.2246 32.4501 49.2348 32.4617 49.2408 32.4757C49.2468 32.4896 49.2482 32.505 49.2449 32.5198C49.2415 32.5356 49.2333 32.55 49.2214 32.561C49.2095 32.5719 49.1945 32.5788 49.1784 32.5808C47.9485 32.6749 46.7519 32.7857 45.5774 32.9132C45.3078 34.1135 45.0326 35.3138 44.7519 36.5142C44.747 36.5286 44.7382 36.5414 44.7265 36.5512C44.7148 36.561 44.7006 36.5673 44.6855 36.5696L44.6522 36.5086ZM43.0345 33.1846C43.5165 34.1597 44.0539 35.179 44.6522 36.2538C44.9126 35.1458 45.1674 34.0378 45.4223 32.891C44.6134 32.963 43.8212 33.0627 43.0345 33.168V33.1846ZM42.0041 31.3675L39.6219 33.5503C40.6745 33.373 41.7363 33.2105 42.8074 33.0627C42.5249 32.4644 42.2534 31.8993 42.0041 31.3509V31.3675ZM42.1038 31.2456C42.3642 31.7996 42.6578 32.4146 42.9459 33.0295C43.7658 32.9187 44.6079 32.8134 45.4389 32.7248C45.5996 31.9991 45.7602 31.2733 45.9153 30.5476L44.0594 29.4894L42.1038 31.2456ZM46.0483 30.6307C45.8987 31.3232 45.7491 32.0157 45.594 32.7082C46.702 32.5863 47.81 32.481 48.918 32.3924C47.9947 31.7904 47.0437 31.2032 46.0649 30.6307H46.0483ZM40.7299 27.8164C41.1011 28.88 41.5332 29.9659 42.0429 31.1016C42.6634 30.5476 43.2949 29.9936 43.9209 29.4396C43.2672 29.0795 42.6135 28.7249 41.9542 28.3814C41.5685 28.1591 41.1644 27.97 40.7465 27.8164H40.7299ZM44.1758 29.3897C44.7686 29.7166 45.3613 30.0545 45.9486 30.398C46.1757 29.3454 46.4029 28.2928 46.6189 27.2457C45.8249 27.9549 45.016 28.6695 44.1924 29.3897H44.1758Z" fill="#F49C6A"/>
<path d="M19.4618 177.119C20.0158 180.582 21.4285 183.85 22.1487 187.28C22.4147 188.571 22.5753 189.972 21.9992 191.158C21.6493 191.849 21.0751 192.401 20.3705 192.723C19.6659 193.045 18.8728 193.118 18.1212 192.93C17.383 192.707 16.7475 192.229 16.3269 191.583C15.9063 190.936 15.7275 190.162 15.8221 189.396C15.9633 188.635 16.3809 187.953 16.9946 187.482C17.6082 187.01 18.3745 186.783 19.1461 186.842C18.2818 182.321 17.2846 177.83 16.1545 173.369C17.7583 173.137 19.3949 173.391 20.8529 174.098C22.311 174.805 23.5235 175.933 24.334 177.337C25.1445 178.74 25.5157 180.354 25.3997 181.97C25.2837 183.587 24.6859 185.131 23.6833 186.404C24.0102 183.884 23.916 181.164 22.5421 179.031C21.8496 177.95 20.6696 177.014 19.4618 177.119Z" fill="#05AD9E"/>
<path d="M189.933 148.644C190.647 150.282 191.256 151.964 191.756 153.68C192.148 154.789 192.307 155.968 192.221 157.142C192.177 157.734 191.974 158.303 191.635 158.79C191.296 159.277 190.833 159.665 190.293 159.912C189.185 160.322 187.734 159.707 187.523 158.549C187.478 158.16 187.535 157.766 187.687 157.404C187.839 157.043 188.083 156.728 188.393 156.488C189.019 156.018 189.728 155.669 190.482 155.458C189.9 152.272 188.404 149.336 186.931 146.45C189.967 145.541 193.017 144.685 196.083 143.879C197.83 145.96 199.236 148.305 200.249 150.827C200.79 152.012 201.06 153.302 201.041 154.605C201.021 155.255 200.836 155.889 200.504 156.449C200.171 157.008 199.702 157.473 199.141 157.801C198.801 157.982 198.417 158.064 198.033 158.04C197.637 157.975 197.273 157.785 196.992 157.5C196.711 157.214 196.529 156.846 196.471 156.45C196.421 156.051 196.459 155.646 196.581 155.264C196.704 154.881 196.908 154.53 197.18 154.234C197.725 153.646 198.392 153.184 199.135 152.882C198.777 150.978 198.059 149.159 197.019 147.525C196.992 147.454 196.951 147.389 196.899 147.334C196.846 147.279 196.783 147.236 196.712 147.207C196.642 147.178 196.567 147.164 196.491 147.165C196.415 147.166 196.34 147.183 196.271 147.214C194.201 147.861 192.081 148.339 189.933 148.644Z" fill="#E63271"/>
<path d="M168.416 181.474C172.919 205.097 174.836 229.14 174.134 253.178L153.852 246.957C155.358 234.894 156.747 222.821 158.018 210.736C159.275 198.808 160.416 186.781 159.286 174.842C162.45 177.191 164.638 178.898 168.416 181.474Z" fill="#006A54"/>
<path d="M174.133 253.178C174.836 229.14 172.919 205.097 168.416 181.474C182.071 176.741 196.221 173.581 210.592 172.056C216.847 180.809 220.426 191.158 223.589 201.418C228.655 217.911 232.849 234.659 236.154 251.594C215.528 250.087 194.532 248.602 174.133 253.167C174.133 253.171 174.133 253.174 174.133 253.178Z" fill="#05AD9E"/>
<path d="M200.205 168.139C203.828 168.521 206.853 170.881 210.587 172.078C196.215 173.603 182.065 176.763 168.411 181.496C164.638 178.92 162.449 177.213 159.286 174.848C159.286 174.809 159.286 174.77 159.286 174.737L195.756 168.516C197.215 168.19 198.712 168.063 200.205 168.139Z" fill="#057C5E"/>
<path d="M197.324 205.357C194.915 205.779 192.435 205.474 190.201 204.48C187.967 203.486 186.08 201.848 184.782 199.776C183.483 197.703 182.832 195.291 182.912 192.847C182.992 190.403 183.799 188.038 185.23 186.055C186.601 184.191 188.422 182.705 190.524 181.736C192.625 180.768 194.938 180.347 197.246 180.515C200.287 180.778 203.104 182.22 205.096 184.532C206.208 185.905 207.05 187.477 207.578 189.163C208.219 190.978 208.486 192.904 208.365 194.825C208.122 197.694 206.793 200.362 204.648 202.282C202.52 204.188 199.617 204.98 197.324 205.357Z" fill="#6C499B"/>
<path d="M200.958 201.202C197.108 203.517 191.684 202.864 188.571 199.645C185.457 196.426 185.064 190.858 187.801 187.296C189.061 185.71 190.743 184.512 192.654 183.839C196.377 182.476 201.008 183.13 203.579 186.144C205.939 188.914 206.11 193.058 204.858 196.476C204.118 198.44 202.746 200.102 200.958 201.202Z" fill="#FAC4AA"/>
<path d="M212.387 243.466C207.544 245.619 202.126 246.112 196.975 244.868C193.723 244.07 190.532 242.48 188.554 239.782C186.953 237.566 186.277 234.841 186.122 232.132C185.962 228.972 186.461 225.814 187.586 222.858C188.712 219.901 190.439 217.211 192.659 214.958C194.388 213.183 196.462 211.782 198.753 210.841C204.11 208.714 210.581 209.96 214.952 213.717C217.107 215.64 218.769 218.053 219.797 220.752C220.826 223.452 221.192 226.359 220.863 229.229C220.187 234.968 217.362 241.245 212.387 243.466Z" fill="#FAC4AA"/>
<path d="M213.03 239.428C210.26 242.441 205.767 243.234 201.673 242.984C199.025 242.824 196.277 242.242 194.249 240.536C192.033 238.652 191.003 235.683 190.648 232.78C189.978 227.378 191.424 221.578 195.191 217.644C198.958 213.711 205.163 212.055 210.149 214.293C212.988 215.631 215.25 217.948 216.52 220.819C217.769 223.687 218.185 226.849 217.722 229.943C217.134 233.5 215.501 236.802 213.03 239.428Z" fill="#6C499B"/>
<path d="M230.68 243.898C230.261 243.898 229.85 244.023 229.501 244.256C229.152 244.489 228.88 244.821 228.72 245.208C228.559 245.596 228.517 246.023 228.599 246.434C228.681 246.846 228.883 247.224 229.18 247.521C229.477 247.817 229.855 248.019 230.266 248.101C230.678 248.183 231.104 248.141 231.492 247.981C231.88 247.82 232.211 247.548 232.444 247.199C232.678 246.85 232.802 246.44 232.802 246.02C232.801 245.458 232.576 244.919 232.179 244.522C231.781 244.124 231.242 243.9 230.68 243.898ZM180.1 244.707C179.68 244.707 179.27 244.832 178.921 245.065C178.572 245.298 178.3 245.629 178.14 246.017C177.979 246.405 177.937 246.831 178.019 247.243C178.101 247.655 178.303 248.033 178.6 248.329C178.896 248.626 179.274 248.828 179.686 248.91C180.098 248.992 180.524 248.95 180.912 248.789C181.3 248.629 181.631 248.357 181.864 248.008C182.097 247.659 182.222 247.249 182.222 246.829C182.222 246.266 181.998 245.727 181.6 245.329C181.202 244.931 180.663 244.707 180.1 244.707ZM174.139 183.158C173.719 183.158 173.309 183.282 172.96 183.515C172.611 183.749 172.339 184.08 172.179 184.468C172.018 184.855 171.976 185.282 172.058 185.694C172.14 186.105 172.342 186.483 172.639 186.78C172.935 187.077 173.313 187.279 173.725 187.361C174.137 187.443 174.563 187.401 174.951 187.24C175.339 187.079 175.67 186.807 175.903 186.459C176.136 186.11 176.261 185.699 176.261 185.28C176.261 184.717 176.037 184.177 175.639 183.779C175.241 183.381 174.702 183.158 174.139 183.158ZM209.296 175.064C208.876 175.064 208.466 175.188 208.117 175.422C207.768 175.655 207.496 175.986 207.335 176.374C207.175 176.762 207.133 177.188 207.215 177.6C207.297 178.011 207.499 178.389 207.795 178.686C208.092 178.983 208.47 179.185 208.882 179.267C209.293 179.349 209.72 179.307 210.108 179.146C210.495 178.986 210.827 178.714 211.06 178.365C211.293 178.016 211.418 177.605 211.418 177.186C211.418 176.623 211.194 176.083 210.796 175.685C210.398 175.288 209.859 175.064 209.296 175.064Z" fill="black"/>
<path d="M228.879 170.078C233.046 165.646 237.023 161.042 240.813 156.267L240.148 162.189C244.702 157.107 249.045 151.84 253.178 146.389C249.272 148.871 245.826 151.99 242.397 155.092C242.305 153.132 242.379 151.168 242.619 149.22L230.037 165.646L230.12 160.699C227.036 165.374 224.306 170.274 221.954 175.358C224.303 172.444 226.652 169.363 228.896 166.206L228.879 170.078ZM266.939 171.347L250.873 175.18C250.805 175.212 250.73 175.229 250.654 175.229C250.579 175.229 250.504 175.212 250.436 175.18C250.231 175.025 250.352 174.704 250.491 174.493L253.211 170.244C247.926 172.266 243.112 175.319 238.336 178.355C238.706 176.929 239.075 175.505 239.444 174.083C235.326 177.038 231.273 180.083 227.284 183.219C230.686 181.712 233.932 180.122 237.206 178.538C236.696 179.948 236.185 181.359 235.671 182.77C240.155 180.517 244.519 178.043 248.763 175.347C247.887 177.356 247.01 179.363 246.131 181.369L266.939 171.347ZM224.924 154.344L221.046 164.721L221.184 164.771L225.062 154.394L224.924 154.344ZM232.27 134.821L232.131 134.772L225.866 151.879L226.004 151.935L232.27 134.821ZM241.455 141.569L241.322 141.497L238.159 147.364L238.292 147.436L241.455 141.569ZM228.159 177.324C233.588 173.402 239.056 169.369 244.408 165.336L244.314 165.219C238.962 169.247 233.5 173.28 228.071 177.202L228.159 177.324ZM246.569 163.984L251.555 160.848L251.472 160.721L246.486 163.857L246.569 163.984Z" fill="#DF2E38"/>
<path d="M22.7807 99.3489C23.4122 99.1439 24.0604 99.0109 24.6975 98.8502C25.9331 98.5768 27.1836 98.3751 28.4425 98.2464C36.5217 97.1071 44.75 97.6732 52.5969 99.9084C62.2476 102.739 71.1282 108.473 77.2056 116.49C78.0865 117.653 78.9064 119.343 77.9591 120.462C77.5898 120.841 77.1245 121.113 76.6128 121.248C73.5271 122.296 70.1587 121.919 66.94 121.409C54.7873 119.472 42.9756 115.8 31.8663 110.506C29.0251 109.234 26.3284 107.661 23.8222 105.814C22.4704 104.761 20.6367 103.388 20.5702 101.559C20.5448 101.239 20.604 100.918 20.7419 100.629C20.9254 100.328 21.1854 100.081 21.4954 99.9139C21.9006 99.6767 22.3319 99.4871 22.7807 99.3489Z" fill="#DF2E38"/>
<path d="M57.3613 95.0554C57.3213 95.0341 57.2775 95.021 57.2325 95.0168C57.1874 95.0125 57.1419 95.0172 57.0987 95.0306C57.0554 95.044 57.0153 95.0658 56.9805 95.0948C56.9457 95.1237 56.917 95.1593 56.896 95.1994C47.9488 112.085 39.6721 129.586 32.2983 147.214C32.2801 147.256 32.2704 147.301 32.2698 147.347C32.2691 147.392 32.2776 147.438 32.2946 147.48C32.3116 147.522 32.3369 147.561 32.3689 147.593C32.4009 147.626 32.4391 147.651 32.4812 147.669C32.5341 147.68 32.5889 147.68 32.6418 147.669C32.7055 147.664 32.7667 147.642 32.8186 147.605C32.8704 147.568 32.9109 147.517 32.9354 147.458C40.3037 129.847 48.5693 112.368 57.5054 95.4986C57.5415 95.4201 57.5467 95.3309 57.52 95.2488C57.4933 95.1667 57.4366 95.0976 57.3613 95.0554ZM43.672 237.395C39.0461 208.409 35.362 178.593 32.7249 148.755C32.7209 148.709 32.7081 148.666 32.6871 148.625C32.6662 148.585 32.6375 148.55 32.6028 148.521C32.5681 148.492 32.5279 148.47 32.4847 148.456C32.4415 148.443 32.3961 148.438 32.351 148.442C32.3059 148.446 32.262 148.458 32.2219 148.479C32.1817 148.5 32.1461 148.529 32.117 148.564C32.088 148.598 32.066 148.639 32.0525 148.682C32.0389 148.725 32.034 148.77 32.038 148.816C34.6695 178.576 38.3425 208.332 42.9518 237.267V237.295C40.9962 241.4 38.9796 245.561 37.0295 249.583V249.621C37.0097 249.662 36.9982 249.706 36.9956 249.751C36.993 249.797 36.9993 249.842 37.0142 249.885C37.0292 249.927 37.0524 249.967 37.0826 250.001C37.1128 250.034 37.1493 250.062 37.1902 250.081C37.2732 250.121 37.3688 250.127 37.456 250.097C37.5432 250.067 37.6149 250.003 37.6555 249.921V249.882C39.5004 246.087 41.4006 242.165 43.2565 238.281L47.2397 250.27C47.2651 250.342 47.3135 250.404 47.3776 250.446C47.4417 250.488 47.5178 250.508 47.5943 250.502H47.6774C47.7209 250.488 47.7613 250.466 47.7961 250.437C47.8309 250.407 47.8595 250.371 47.8801 250.33C47.9007 250.289 47.913 250.245 47.9163 250.199C47.9195 250.154 47.9136 250.108 47.899 250.065L44.1539 238.879L53.234 248.148C53.2659 248.18 53.3039 248.205 53.3458 248.223C53.3876 248.24 53.4325 248.249 53.4778 248.249C53.5231 248.249 53.568 248.24 53.6098 248.223C53.6516 248.205 53.6896 248.18 53.7215 248.148C53.7868 248.082 53.8235 247.994 53.8235 247.901C53.8235 247.809 53.7868 247.72 53.7215 247.655L43.672 237.395Z" fill="black"/>
<path d="M53.0176 100.451C53.2152 99.8727 53.4714 99.3158 53.7821 98.7893C53.8315 98.6838 53.9129 98.5966 54.0148 98.54C54.0983 98.5179 54.1861 98.5179 54.2696 98.54C55.1152 98.6059 55.9235 98.9157 56.5964 99.4319C56.6389 99.4563 56.6706 99.4959 56.6851 99.5427C56.6911 99.5897 56.6792 99.6371 56.6518 99.6757C56.3582 100.196 56.0701 100.717 55.782 101.238C55.7651 101.282 55.7339 101.319 55.6934 101.343C55.6416 101.363 55.5845 101.363 55.5327 101.343C54.6523 101.181 53.8033 100.88 53.0176 100.451Z" fill="#057C5E"/>
<path d="M66.48 102.573C72.1628 105.411 76.7393 110.06 79.4879 115.786C79.1794 114.635 78.7465 113.52 78.1971 112.462C76.9997 109.961 75.3442 107.706 73.3163 105.814C71.261 104.008 68.696 102.656 66.48 102.573Z" fill="#DF2E38"/>
<path d="M28.7693 105.964C41.7312 107.578 54.3208 111.401 65.9925 117.265C69.2777 118.927 72.6128 120.855 74.574 123.969C75.128 124.833 75.5213 126.029 74.8621 126.816C74.4078 127.37 73.6156 127.47 72.9064 127.509C69.3996 127.686 65.9094 127.093 62.4691 126.401C53.1079 124.481 43.9445 121.699 35.0959 118.091C30.9132 116.384 26.7416 114.451 23.3511 111.443C22.7568 110.989 22.2972 110.382 22.0215 109.686C21.5562 108.168 22.8858 106.573 24.4148 106.157C25.8409 105.817 27.3186 105.751 28.7693 105.964Z" fill="#F29200"/>
<path d="M52.5968 99.8973C44.7498 97.6621 36.5215 97.096 28.4424 98.2353C27.1834 98.364 25.9329 98.5656 24.6973 98.8391C24.0602 98.9998 23.412 99.1328 22.7805 99.3377C22.3398 99.474 21.9161 99.6599 21.5174 99.8917C21.2074 100.059 20.9473 100.306 20.7639 100.606C20.626 100.896 20.5667 101.217 20.5922 101.537C20.6038 101.768 20.641 101.996 20.703 102.219C31.6002 100.18 42.8907 102.972 53.461 106.479C62.4524 109.454 71.6599 113.227 77.7705 120.467L77.8425 120.55L77.9589 120.429C78.9062 119.321 78.0863 117.62 77.2054 116.456C71.1281 108.462 62.2474 102.728 52.5968 99.8973Z" fill="#F29200"/>
<path d="M31.7222 150.688C31.211 150.71 30.7099 150.541 30.3158 150.215C29.9218 149.888 29.6629 149.427 29.5893 148.921C29.5395 148.411 29.6219 147.897 29.8286 147.428C30.0353 146.959 30.3593 146.552 30.7694 146.245C31.0796 145.989 31.44 145.8 31.8275 145.691C32.3593 145.569 32.9164 145.627 33.4123 145.854C33.9081 146.081 34.315 146.466 34.5698 146.949C34.8029 147.441 34.88 147.993 34.7909 148.531C34.7018 149.068 34.4507 149.566 34.0712 149.957C33.3067 150.688 32.0657 150.937 31.7222 150.688Z" fill="#7F52A3"/>
<path d="M31.9268 149.58C31.6413 149.593 31.3614 149.499 31.1413 149.316C30.9212 149.134 30.7766 148.877 30.7357 148.594C30.7074 148.309 30.7532 148.021 30.8687 147.759C30.9842 147.497 31.1655 147.269 31.3949 147.098C31.5699 146.958 31.7716 146.854 31.9877 146.793C32.2845 146.725 32.5958 146.756 32.8726 146.884C33.1494 147.011 33.376 147.227 33.5168 147.497C33.6452 147.769 33.6875 148.074 33.638 148.371C33.5885 148.668 33.4496 148.943 33.2398 149.159C32.8132 149.58 32.1318 149.724 31.9268 149.58Z" fill="#A06ACC"/>
<path d="M47.6442 249.3C47.3787 249.319 47.1249 249.417 46.9149 249.58C46.7048 249.744 46.548 249.966 46.4641 250.219C46.3803 250.471 46.3732 250.743 46.4439 251C46.5145 251.256 46.6596 251.486 46.8609 251.661C47.0622 251.835 47.3106 251.945 47.5748 251.978C47.8389 252.011 48.1069 251.965 48.3449 251.846C48.5829 251.727 48.7802 251.54 48.9119 251.309C49.0435 251.077 49.1036 250.812 49.0846 250.546C49.0727 250.37 49.0259 250.197 48.9469 250.039C48.8679 249.88 48.7582 249.739 48.6243 249.623C48.4904 249.507 48.3348 249.419 48.1666 249.363C47.9984 249.308 47.8208 249.286 47.6442 249.3ZM37.1182 248.929C36.8527 248.948 36.5989 249.046 36.3889 249.209C36.1788 249.373 36.022 249.595 35.9381 249.847C35.8543 250.1 35.8472 250.372 35.9179 250.629C35.9885 250.885 36.1336 251.115 36.3349 251.289C36.5362 251.464 36.7846 251.574 37.0488 251.607C37.3129 251.64 37.5809 251.594 37.8189 251.475C38.0569 251.356 38.2542 251.169 38.3859 250.937C38.5175 250.706 38.5776 250.441 38.5586 250.175C38.5303 249.82 38.3631 249.491 38.0935 249.259C37.8238 249.026 37.4733 248.91 37.1182 248.934V248.929ZM53.7382 246.768C53.4727 246.787 53.2189 246.885 53.0089 247.049C52.7988 247.212 52.642 247.434 52.5581 247.687C52.4743 247.94 52.4672 248.211 52.5379 248.468C52.6085 248.725 52.7536 248.955 52.9549 249.129C53.1562 249.303 53.4046 249.414 53.6688 249.447C53.9329 249.48 54.2009 249.434 54.4389 249.314C54.6769 249.195 54.8742 249.008 55.0059 248.777C55.1375 248.545 55.1976 248.28 55.1786 248.015C55.1517 247.659 54.985 247.329 54.7149 247.096C54.4449 246.864 54.0937 246.748 53.7382 246.774V246.768Z" fill="#E63271"/>
<path d="M55.8433 243.311C55.5109 243.189 55.1508 243.433 54.9735 243.832C53.7186 246.693 52.6418 249.63 51.7492 252.624C51.6672 252.839 51.6332 253.07 51.6495 253.3C51.6626 253.414 51.7107 253.521 51.7871 253.606C51.8635 253.691 51.9644 253.751 52.0761 253.776C52.414 253.815 52.6301 253.444 52.7686 253.128C53.9209 250.336 55.0289 247.525 56.0926 244.696C56.2002 244.453 56.2604 244.192 56.2698 243.926C56.2651 243.794 56.2224 243.665 56.1468 243.556C56.0711 243.447 55.9658 243.362 55.8433 243.311ZM107.365 250.375L103.775 242.209C103.637 241.75 103.338 241.357 102.933 241.101C102.507 240.901 101.548 241.267 101.864 241.965C103.153 244.853 104.562 247.679 106.091 250.441C106.216 250.729 106.422 250.973 106.684 251.145C106.751 251.183 106.825 251.208 106.902 251.216C106.978 251.224 107.056 251.216 107.13 251.193C107.203 251.169 107.271 251.131 107.329 251.08C107.386 251.028 107.433 250.966 107.465 250.895C107.485 250.713 107.442 250.529 107.343 250.375H107.365Z" fill="#6C499B"/>
<path d="M71.6101 249.233C61.8597 248.347 52.065 244.403 45.8103 236.879C42.647 233.073 40.4974 228.514 38.9961 223.805C36.8577 217.079 35.9879 209.894 37.0017 202.914C38.708 191.147 46.0984 180.2 56.6576 174.765C61.6769 172.167 67.2667 170.804 72.8898 170.244C86.4351 168.887 101.083 172.621 110.213 182.715C118.772 192.166 121.348 206.066 118.844 218.57C117.904 223.645 115.985 228.488 113.193 232.83C108.595 239.743 101.388 244.674 93.554 247.433C85.7205 250.192 77.5046 249.776 71.6101 249.233Z" fill="#7F52A3"/>
<path d="M35.6276 198.808L35.4392 198.764C33.6049 206.224 33.5879 214.016 35.3896 221.484C37.1914 228.952 40.7593 235.879 45.7935 241.682L45.9375 241.55C40.9085 235.779 37.3455 228.882 35.5507 221.441C33.7559 214 33.7823 206.237 35.6276 198.808ZM38.9904 189.241L38.8131 189.158L36.3035 194.393L36.4808 194.476L38.9904 189.241Z" fill="black"/>
<path d="M40.1651 212.736C38.8078 200.321 45.3006 187.651 55.5663 180.543C65.8319 173.435 79.3495 171.679 91.4378 174.82C94.9781 175.668 98.3497 177.108 101.41 179.081C105.748 182.006 109.033 186.321 111.293 191.036C116.279 201.434 116.373 213.805 112.722 224.736C111.06 229.777 108.518 234.658 104.612 238.264C100.606 241.971 95.3822 244.109 90.0805 245.422C78.4465 248.303 65.4773 247.289 55.2948 240.907C45.1123 234.525 41.2232 222.47 40.1651 212.736Z" fill="#A06ACC"/>
<path opacity="0.33" d="M95.9252 176.272C94.4581 175.71 92.9598 175.232 91.4378 174.842C90.4111 174.576 89.377 174.347 88.3354 174.155C72.6794 190.602 57.5718 207.547 43.0127 224.99C43.8231 227.168 44.83 229.267 46.0209 231.262C61.7988 212.182 78.0532 193.407 95.9252 176.272ZM111.315 191.058C109.21 186.665 106.219 182.621 102.307 179.729C84.4131 198.229 66.9307 217.109 49.8601 236.37C51.4799 238.124 53.324 239.657 55.3447 240.929C59.9772 243.783 65.1452 245.657 70.5299 246.436C84.6126 229.91 98.3019 212.974 113.858 197.916C113.224 195.557 112.373 193.261 111.315 191.058Z" fill="white"/>
<path d="M211.074 55.6937C211.042 55.6196 210.983 55.5611 210.908 55.531C210.833 55.5009 210.749 55.5016 210.675 55.533C210.639 55.5482 210.606 55.5704 210.578 55.5984C210.55 55.6264 210.528 55.6596 210.513 55.6962C210.498 55.7328 210.49 55.772 210.491 55.8115C210.491 55.851 210.499 55.89 210.515 55.9264L211.994 59.483C212.016 59.5385 212.054 59.5861 212.103 59.6196C212.153 59.6532 212.211 59.6712 212.271 59.6714C212.309 59.6793 212.349 59.6793 212.387 59.6714C212.461 59.6397 212.52 59.5799 212.55 59.5051C212.58 59.4304 212.579 59.3467 212.548 59.2725L211.074 55.6937ZM214.891 53.9043C214.881 53.8661 214.863 53.8303 214.839 53.7989C214.815 53.7675 214.785 53.7411 214.751 53.7213C214.717 53.7015 214.679 53.6886 214.64 53.6834C214.601 53.6782 214.561 53.6808 214.523 53.691C214.485 53.7012 214.449 53.7188 214.417 53.7428C214.386 53.7668 214.36 53.7968 214.34 53.831C214.32 53.8652 214.307 53.903 214.302 53.9422C214.297 53.9814 214.299 54.0212 214.309 54.0594C214.681 55.5219 215.096 56.9956 215.539 58.4415C215.56 58.5029 215.6 58.5562 215.652 58.5939C215.705 58.6317 215.768 58.652 215.833 58.652H215.922C215.997 58.6278 216.061 58.5748 216.098 58.5044C216.135 58.4339 216.144 58.3517 216.121 58.2753C215.689 56.8238 215.279 55.3613 214.902 53.9043H214.891ZM220.021 55.9818L219.185 52.5802C219.18 52.5373 219.166 52.4959 219.143 52.4588C219.121 52.4217 219.091 52.3898 219.056 52.3651C219.02 52.3405 218.98 52.3236 218.938 52.3157C218.895 52.3079 218.851 52.3091 218.809 52.3194C218.767 52.3297 218.728 52.3488 218.694 52.3755C218.66 52.4021 218.632 52.4357 218.612 52.474C218.592 52.5123 218.58 52.5544 218.578 52.5975C218.575 52.6407 218.582 52.6839 218.597 52.7242L219.467 56.2588C219.479 56.3233 219.509 56.3829 219.554 56.4302C219.6 56.4776 219.658 56.5104 219.722 56.5247H219.789C219.835 56.5239 219.882 56.5137 219.924 56.4946C219.967 56.4756 220.006 56.4481 220.038 56.4139C220.077 56.3701 220.103 56.3166 220.114 56.2589C220.125 56.2013 220.119 56.1419 220.099 56.087C220.083 56.0481 220.061 56.0123 220.032 55.9818H220.021ZM223.899 54.8738C223.88 54.8323 223.854 54.7947 223.822 54.763L222.991 51.3614C222.972 51.2828 222.923 51.2148 222.855 51.1722C222.786 51.1296 222.704 51.116 222.625 51.1343C222.586 51.1433 222.55 51.1601 222.517 51.1835C222.485 51.2068 222.458 51.2364 222.437 51.2705C222.417 51.3045 222.403 51.3424 222.397 51.3818C222.391 51.4212 222.394 51.4613 222.403 51.4999L223.262 55.0178C223.274 55.0828 223.304 55.1429 223.35 55.1911C223.395 55.2392 223.453 55.2733 223.517 55.2893H223.583C223.63 55.2895 223.676 55.2803 223.719 55.2622C223.762 55.2441 223.8 55.2175 223.833 55.184C223.878 55.1416 223.909 55.0872 223.924 55.0273C223.939 54.9673 223.936 54.9044 223.916 54.8461L223.899 54.8738Z" fill="#A06ACC"/>
<path d="M226.985 53.3779C226.664 52.9458 225.993 53.0622 225.484 53.245C223.146 54.1037 221.052 55.461 218.836 56.6521C216.62 57.8432 214.326 58.9124 211.844 59.1229C210.797 59.2116 209.534 59.2448 208.991 60.1478C208.818 60.4803 208.713 60.8437 208.681 61.217C208.382 63.1948 208.154 65.1781 207.767 67.6767C204.192 70.768 200.561 73.7891 196.875 76.7401C197.41 77.1964 197.839 77.7635 198.133 78.4021C198.533 79.3434 198.819 80.3291 198.986 81.3383C198.764 80.2303 198.576 79.1223 198.432 77.97C198.382 77.5988 198.487 77.0614 198.858 77.1058C198.965 77.1252 199.063 77.1753 199.141 77.2498C200.106 78.1152 200.812 79.2314 201.18 80.4741C201.431 81.1835 201.642 81.9067 201.811 82.6402C205.396 79.3162 208.875 75.8814 212.182 72.3081C214.11 70.7403 216.736 70.2251 218.636 68.624C219.571 67.7635 220.377 66.7727 221.029 65.6823C223.171 62.4224 225.064 59.0056 226.691 55.461C226.936 55.0005 227.084 54.4955 227.129 53.9763C227.143 53.7668 227.093 53.558 226.985 53.3779ZM194.897 78.3079C195.095 78.4791 195.28 78.6642 195.451 78.8619C196.137 79.6779 196.686 80.6005 197.075 81.5932C196.991 80.1971 196.249 78.9561 195.667 77.6819L194.897 78.3079ZM191.756 80.8009C192.908 81.2851 193.922 82.0463 194.709 83.0169C194.537 81.8037 193.75 80.8009 192.958 79.8647L191.756 80.8009ZM192.155 90.2189C191.512 89.3182 190.603 88.6404 189.557 88.2799C188.565 87.9088 187.518 87.7259 186.504 87.4545C186.189 87.3918 185.895 87.2486 185.651 87.039C185.533 86.9299 185.458 86.7817 185.441 86.6218C185.423 86.4618 185.465 86.301 185.557 86.1692L185.607 86.1249C185.729 86.0313 185.871 85.9669 186.022 85.9365C188.046 85.372 190.193 85.4319 192.183 86.1083C191.767 84.7454 190.582 83.7648 189.413 82.9948L189.18 82.8507C187.917 83.8369 186.65 84.8174 185.38 85.7925C178.881 90.7785 172.327 95.7091 165.807 100.678C160.095 105.044 154.417 109.448 148.843 113.974C147.059 115.43 145.285 116.896 143.519 118.373C142.086 119.577 140.653 120.781 139.22 121.985C140.328 121.501 141.449 121.053 142.583 120.639C142.733 120.56 142.899 120.515 143.068 120.507C143.238 120.5 143.407 120.529 143.564 120.595C143.692 120.692 143.785 120.828 143.831 120.983C143.877 121.137 143.873 121.302 143.818 121.453C143.702 121.757 143.511 122.028 143.264 122.24C141.864 123.674 140.16 124.776 138.278 125.464C140.096 125.426 141.918 125.464 143.724 125.614C145.201 125.712 146.668 125.925 148.112 126.251C148.505 126.345 148.965 126.523 149.048 126.916C149.165 127.47 148.494 127.802 147.985 127.941C145.181 128.667 142.251 128.7 139.353 128.727L147.558 129.088C147.898 129.08 148.236 129.144 148.55 129.276C148.706 129.344 148.837 129.459 148.924 129.605C149.012 129.751 149.051 129.921 149.037 130.09C148.982 130.423 148.666 130.644 148.367 130.794C145.807 132.101 142.655 131.298 139.891 132.079C141.977 131.85 144.078 131.798 146.173 131.924C146.529 131.927 146.881 131.992 147.214 132.118C147.326 132.169 147.43 132.234 147.525 132.312L149.879 130.018L153.203 126.794C159.729 120.484 166.311 114.246 173.031 108.152C175.084 106.279 177.156 104.423 179.247 102.584C183.596 98.7505 188.011 94.9778 192.371 91.1607C192.327 90.9004 192.277 90.64 192.233 90.3796L192.155 90.2189ZM144.206 135.315H144.433L145.298 134.467C143.229 134.777 141.144 134.977 139.054 135.065C140.771 135.143 142.489 135.231 144.206 135.315ZM139.935 138.112L132.423 138.179L132.345 138.262C128.699 142.105 124.535 145.422 119.974 148.117C116.096 150.417 111.842 152.256 107.365 152.91C105.614 153.172 103.839 153.229 102.075 153.081C101.637 153.043 101.205 152.993 100.773 152.926C98.1633 154.749 95.5152 156.511 92.8062 158.206L104.906 171.967C107.609 169.934 110.241 167.801 112.806 165.607C115.276 163.498 117.699 161.334 120.074 159.114C124.506 154.976 128.855 150.705 133.176 146.428L140.561 139.132L141.669 138.062C141.242 138.062 140.81 138.101 140.384 138.107L139.935 138.112Z" fill="#EA5189"/>
<path d="M208.575 68.5354L95.7754 161.685L95.9139 161.84L208.703 68.6961L208.575 68.5354ZM209.207 69.311L98.9609 165.28L99.0938 165.436L209.34 69.4661L209.207 69.311ZM210.969 71.4716C174.676 103.604 138.528 136.844 103.493 170.361L103.626 170.51C138.666 137.01 174.809 103.753 211.102 71.6323L210.969 71.4716ZM210.093 70.3968C173.291 101.975 136.694 134.755 101.277 167.901L101.41 168.05C136.827 134.932 173.43 102.124 210.221 70.5797L210.093 70.3968Z" fill="black"/>
<path d="M227.14 53.9818C227.152 53.7693 227.098 53.5584 226.985 53.3779C226.664 52.9403 225.993 53.0621 225.484 53.245C223.151 54.1037 221.052 55.461 218.836 56.6521C216.62 57.8432 214.326 58.9124 211.844 59.1229C210.797 59.206 209.54 59.2448 208.991 60.1478C208.819 60.4805 208.713 60.8438 208.681 61.217C208.387 63.1782 208.16 65.1504 207.778 67.6157C209.257 69.2279 210.548 70.9009 211.883 72.635L212.182 72.3192C214.11 70.7458 216.742 70.2306 218.636 68.6295C219.571 67.7693 220.378 66.7785 221.03 65.6878C223.171 62.4279 225.064 59.0111 226.691 55.4665C226.939 55.0069 227.092 54.5019 227.14 53.9818Z" fill="#E63271"/>
<path d="M112.805 165.607C113.31 166.233 113.814 166.865 114.307 167.496C111.193 170.532 107.975 173.454 104.651 176.261C104.377 176.555 104.004 176.737 103.604 176.77C103.206 176.699 102.85 176.476 102.612 176.15C97.5599 170.862 92.8488 165.259 88.507 159.375C88.3418 159.192 88.2339 158.965 88.1968 158.721C88.2134 158.54 88.2685 158.364 88.3583 158.205C88.448 158.047 88.5705 157.909 88.7175 157.801C91.0287 155.579 93.4766 153.503 96.047 151.585C97.557 152.232 99.146 152.675 100.773 152.904C98.1632 154.727 95.5151 156.488 92.8061 158.184L104.905 171.945C107.609 169.934 110.246 167.801 112.805 165.607Z" fill="#A06ACC"/>
<path d="M150.406 145.015C149.977 144.82 149.497 144.769 149.037 144.871L142.827 145.53C142.547 145.591 142.254 145.55 142.001 145.414C141.792 145.212 141.663 144.94 141.641 144.649L140.561 139.109L133.176 146.406C128.855 150.682 124.523 154.954 120.074 159.092C120.525 161.448 120.498 163.871 119.996 166.217C119.476 169.164 118.611 172.061 118.412 175.047C118.366 175.371 118.402 175.7 118.517 176.006C118.972 177.003 120.49 176.676 121.387 176.05C123.985 174.25 125.642 171.391 126.899 168.494C127.847 166.316 128.628 164.062 129.957 162.073C134.528 155.303 144.084 153.929 149.901 148.178C150.771 147.32 151.48 145.652 150.406 145.015ZM126.03 128.639C127.619 127.718 129.288 126.941 131.016 126.318C132.589 125.331 134.214 124.408 135.891 123.548C136.486 120.775 136.803 117.951 136.838 115.116C136.838 114.34 136.572 113.293 135.797 113.326C135.524 113.362 135.269 113.48 135.065 113.664C131.603 116.307 130.833 121.42 127.464 124.19C125.52 125.78 122.971 126.373 120.667 127.376C118.302 128.408 116.16 129.89 114.362 131.741C114.838 131.777 115.315 131.788 115.792 131.774C118.112 131.706 120.401 131.222 122.55 130.345C123.74 129.84 124.902 129.27 126.03 128.639Z" fill="white"/>
<path d="M139.536 84.6069C140.645 89.076 140.997 93.6996 140.577 98.2852C138.662 99.5133 136.856 100.905 135.181 102.446C136.224 96.5124 136.172 90.4382 135.026 84.5238C136.522 84.6069 138.029 84.6014 139.536 84.6069Z" fill="#7F52A3"/>
<path d="M160.982 135.503C160.394 135.104 159.602 135.425 158.971 135.752L151.857 139.447L147.979 141.464C147.44 139.071 146.901 136.67 146.361 134.262L146.229 134.295C145.918 134.356 145.614 134.411 145.303 134.461L144.439 135.309C144.74 135.316 145.035 135.384 145.309 135.508C145.483 135.582 145.629 135.708 145.728 135.869C145.828 136.03 145.875 136.217 145.863 136.406C145.811 136.577 145.722 136.734 145.602 136.866C145.483 136.998 145.335 137.102 145.17 137.17C144.082 137.721 142.883 138.02 141.664 138.046L140.556 139.115L141.636 144.655C141.658 144.945 141.786 145.218 141.996 145.419C142.248 145.555 142.541 145.597 142.821 145.536L149.026 144.871C149.486 144.769 149.966 144.82 150.395 145.015C151.469 145.652 150.76 147.32 149.874 148.201C144.073 153.951 134.517 155.325 129.93 162.095C128.6 164.062 127.819 166.339 126.872 168.516C125.614 171.413 123.958 174.272 121.359 176.072C120.462 176.698 118.944 177.025 118.49 176.028C118.374 175.723 118.338 175.393 118.384 175.07C118.584 172.084 119.448 169.186 119.969 166.239C120.471 163.893 120.497 161.47 120.046 159.114C117.664 161.33 115.241 163.495 112.778 165.607C113.282 166.233 113.786 166.865 114.279 167.496C111.166 170.532 107.947 173.454 104.623 176.261C104.35 176.555 103.976 176.737 103.576 176.77C103.178 176.699 102.823 176.476 102.584 176.15C97.5324 170.862 92.8214 165.259 88.4796 159.375C88.3143 159.192 88.2064 158.965 88.1693 158.721C88.186 158.54 88.241 158.364 88.3308 158.205C88.4206 158.047 88.543 157.909 88.6901 157.801C91.0012 155.579 93.4491 153.503 96.0195 151.585C95.3985 151.32 94.7953 151.014 94.2134 150.671C88.1859 147.12 85.0503 140.19 83.0448 133.497C82.862 132.888 82.6847 132.273 82.4908 131.658C79.5756 133.231 77.003 135.368 74.9232 137.946C71.0452 142.86 69.4275 149.27 69.3832 155.53C69.2945 166.134 73.6324 176.804 81.4659 183.939C89.2995 191.075 100.601 194.399 110.955 192.122C111.912 191.911 112.859 191.653 113.797 191.346C122.927 188.343 130.6 180.887 133.304 171.662C133.924 169.524 134.323 167.264 135.52 165.402C136.072 164.559 136.757 163.811 137.547 163.186C139.497 161.613 141.979 160.594 144.24 159.402C148.435 157.148 152.118 154.051 155.059 150.305C158.001 146.559 160.136 142.246 161.331 137.636C161.536 136.91 161.63 135.946 160.982 135.503ZM111.293 130.772C112.225 131.345 113.286 131.673 114.379 131.725C116.177 129.874 118.319 128.391 120.684 127.359C122.988 126.356 125.537 125.764 127.481 124.174C130.849 121.404 131.62 116.307 135.082 113.648C135.286 113.463 135.541 113.345 135.813 113.31C136.589 113.276 136.86 114.323 136.855 115.099C136.828 117.937 136.518 120.765 135.93 123.542C136.999 122.988 138.09 122.478 139.193 121.996C140.622 120.789 142.055 119.585 143.492 118.384C142.755 115.659 144.323 112.645 145.641 110.013C147.386 106.535 148.747 102.877 149.702 99.1051C149.946 98.1633 150.14 97.0996 149.625 96.2797C148.749 94.8947 146.65 95.2326 145.137 95.8697C143.552 96.5434 142.027 97.3495 140.578 98.2796C138.662 99.5078 136.857 100.9 135.182 102.44C133.251 104.206 131.439 106.097 129.758 108.102C125.481 113.143 121.819 118.678 117.57 123.758C116.722 124.783 115.803 125.819 114.573 126.318C113.521 126.669 112.411 126.812 111.304 126.739H108.739C108.739 126.822 108.778 126.905 108.795 126.988C109.128 128.516 110.018 129.865 111.293 130.772Z" fill="#E63271"/>
<path d="M211.118 54.0926C210.451 54.1546 209.817 54.4173 209.301 54.846C209.041 55.036 208.847 55.3036 208.747 55.6105C208.703 55.7626 208.706 55.9248 208.758 56.0747C208.81 56.2246 208.907 56.3547 209.035 56.4471C209.164 56.5008 209.303 56.5285 209.443 56.5285C209.582 56.5285 209.721 56.5008 209.85 56.4471C210.343 56.3133 210.808 56.0877 211.218 55.7823C211.465 55.5645 211.674 55.3082 211.839 55.0233C211.905 54.9297 211.95 54.8225 211.97 54.7095C211.99 54.5964 211.985 54.4803 211.955 54.3696C211.839 54.1203 211.44 54.0593 211.118 54.0926ZM215.39 52.4306C214.905 52.4225 214.424 52.4994 213.966 52.6577C213.501 52.8173 213.108 53.1375 212.858 53.5607C212.771 53.6346 212.71 53.7333 212.681 53.8435C212.653 53.9536 212.659 54.0698 212.699 54.1763C212.739 54.2828 212.811 54.3744 212.905 54.4387C212.999 54.503 213.11 54.5369 213.224 54.5358C213.834 54.5976 214.449 54.4842 214.996 54.2089C215.335 54.0541 215.633 53.8227 215.866 53.533C216.077 53.2837 216.237 52.9125 216.043 52.6522C215.955 52.5745 215.851 52.517 215.738 52.4835C215.625 52.45 215.506 52.4414 215.39 52.4583V52.4306ZM219.944 51.3226C219.783 51.2512 219.609 51.2153 219.434 51.2173C218.884 51.1959 218.339 51.3344 217.866 51.6162C217.59 51.7568 217.372 51.9903 217.251 52.2754C217.194 52.419 217.188 52.5779 217.234 52.7253C217.281 52.8727 217.377 52.9995 217.506 53.0843C217.709 53.1511 217.929 53.1511 218.132 53.0843C218.511 53.0079 218.883 52.8947 219.24 52.7463C219.469 52.6436 219.685 52.5134 219.883 52.3585C219.996 52.2886 220.09 52.1908 220.155 52.0744C220.22 51.9581 220.254 51.827 220.254 51.6937C220.226 51.6221 220.184 51.557 220.129 51.5026C220.075 51.4482 220.01 51.4058 219.938 51.378L219.944 51.3226ZM223.888 50.2921C223.676 50.1942 223.445 50.145 223.212 50.1481C222.838 50.1077 222.459 50.1532 222.104 50.281C221.8 50.4333 221.547 50.6723 221.378 50.968C221.28 51.0749 221.218 51.2097 221.2 51.3537C221.182 51.4977 221.21 51.6436 221.279 51.7713C221.356 51.8449 221.447 51.9012 221.547 51.9365C221.648 51.9719 221.754 51.9854 221.86 51.9763C222.402 51.9816 222.938 51.8721 223.434 51.655C223.5 51.6217 223.694 51.5331 223.877 51.4223C223.97 51.37 224.051 51.2977 224.114 51.2106C224.176 51.1234 224.218 51.0235 224.237 50.9181C224.24 50.7995 224.209 50.6825 224.147 50.5812C224.085 50.48 223.995 50.3988 223.888 50.3475V50.2921Z" fill="#6C499B"/>
<path d="M213.29 61.1561C213.109 61.1561 212.933 61.2097 212.782 61.3101C212.632 61.4106 212.515 61.5534 212.446 61.7204C212.376 61.8874 212.358 62.0712 212.394 62.2485C212.429 62.4258 212.516 62.5887 212.644 62.7166C212.772 62.8444 212.934 62.9315 213.112 62.9667C213.289 63.002 213.473 62.9839 213.64 62.9147C213.807 62.8455 213.95 62.7284 214.05 62.578C214.151 62.4277 214.204 62.251 214.204 62.0702C214.204 61.8278 214.108 61.5953 213.936 61.4238C213.765 61.2524 213.533 61.1561 213.29 61.1561ZM216.725 59.8542C216.544 59.8542 216.367 59.9078 216.217 60.0082C216.067 60.1087 215.95 60.2515 215.88 60.4185C215.811 60.5855 215.793 60.7693 215.828 60.9466C215.864 61.1239 215.951 61.2868 216.079 61.4147C216.206 61.5425 216.369 61.6296 216.547 61.6648C216.724 61.7001 216.908 61.682 217.075 61.6128C217.242 61.5436 217.384 61.4265 217.485 61.2761C217.585 61.1258 217.639 60.9491 217.639 60.7683C217.642 60.6469 217.621 60.5261 217.576 60.413C217.532 60.2998 217.466 60.1967 217.381 60.1095C217.297 60.0224 217.195 59.9529 217.084 59.9053C216.972 59.8576 216.852 59.8327 216.73 59.832L216.725 59.8542ZM220.049 58.1922C219.868 58.1922 219.691 58.2458 219.541 58.3462C219.391 58.4467 219.274 58.5895 219.204 58.7565C219.135 58.9235 219.117 59.1073 219.152 59.2846C219.188 59.4619 219.275 59.6248 219.403 59.7527C219.53 59.8805 219.693 59.9676 219.871 60.0028C220.048 60.0381 220.232 60.02 220.399 59.9508C220.566 59.8816 220.708 59.7645 220.809 59.6141C220.909 59.4638 220.963 59.2871 220.963 59.1063C220.967 58.9828 220.945 58.8598 220.9 58.7448C220.855 58.6299 220.786 58.5254 220.699 58.4378C220.612 58.3501 220.508 58.2812 220.393 58.2352C220.279 58.1891 220.156 58.167 220.032 58.17L220.049 58.1922ZM223.517 56.3695C223.336 56.3695 223.159 56.4233 223.008 56.524C222.858 56.6247 222.741 56.7678 222.672 56.9351C222.603 57.1025 222.585 57.2865 222.621 57.464C222.657 57.6415 222.744 57.8043 222.873 57.932C223.001 58.0596 223.164 58.1462 223.342 58.1808C223.52 58.2155 223.704 58.1966 223.871 58.1265C224.038 58.0565 224.18 57.9385 224.28 57.7874C224.379 57.6364 224.432 57.4591 224.431 57.2781C224.431 57.1569 224.407 57.0369 224.36 56.9252C224.313 56.8135 224.244 56.7123 224.157 56.6277C224.07 56.543 223.968 56.4766 223.855 56.4322C223.742 56.3879 223.621 56.3666 223.5 56.3695H223.517Z" fill="black"/>
<path d="M137.786 41.0403C137.786 41.1068 137.786 41.1733 137.786 41.2453C137.791 41.1788 137.791 41.1068 137.786 41.0403ZM121.199 62.3693C121.096 61.7936 120.863 61.2493 120.516 60.7785C120.169 60.3077 119.718 59.9232 119.199 59.6547C118.648 59.3897 118.028 59.3008 117.425 59.3999C116.821 59.499 116.263 59.7814 115.825 60.2087C115.497 60.5688 115.248 60.9933 115.094 61.4552C114.816 62.209 114.721 63.0181 114.817 63.8157C114.913 64.6133 115.198 65.3766 115.648 66.0424C116.135 66.7105 116.796 67.2332 117.558 67.5543C118.32 67.8754 119.156 67.9828 119.974 67.865C120.138 70.2671 120.063 72.6795 119.753 75.067C117.659 72.4965 114.706 70.7015 112.551 68.1808C108.158 63.084 107.659 55.0067 111.399 49.4113C112.216 48.0833 113.373 46.9972 114.75 46.2646C115.44 45.9143 116.205 45.7396 116.978 45.756C117.751 45.7725 118.508 45.9795 119.182 46.3587C119.254 42.7467 121.659 39.2232 125.082 38.0487C128.506 36.8743 132.7 38.3534 134.456 41.5112C134.4 40.9155 134.455 40.3145 134.617 39.7384C134.7 39.45 134.86 39.1896 135.079 38.9847C135.299 38.7799 135.57 38.6383 135.863 38.575C136.174 38.556 136.483 38.6269 136.754 38.7792C137.025 38.9315 137.247 39.1588 137.392 39.4337C137.644 39.9204 137.776 40.4594 137.78 41.0071C137.741 38.2759 140.406 35.9103 143.17 35.8715C145.935 35.8327 148.616 37.8327 149.852 40.3866C151.087 42.9406 151.142 45.9266 150.611 48.6966C150.029 51.799 148.649 54.907 146.084 56.7352C145.355 57.2447 144.541 57.62 143.68 57.8432C141.464 58.4359 138.988 58.0481 137.414 56.4138C137.021 57.2559 135.885 57.5218 134.993 57.2504C134.125 56.9082 133.33 56.4044 132.65 55.7657C131.221 54.6577 129.559 53.6771 127.742 53.5995C126.681 53.5879 125.634 53.8425 124.697 54.34C123.76 54.8374 122.963 55.5619 122.379 56.4471C121.265 58.188 120.849 60.2854 121.215 62.3195L121.199 62.3693Z" fill="#057C5E"/>
<path d="M119.243 244.868C118.135 247.638 117.105 250.546 116.922 253.516C117.443 253.832 117.974 254.125 118.517 254.402C118.822 249.416 120.839 244.635 123.16 240.153C122.75 239.969 122.346 239.769 121.947 239.555C120.827 241.206 119.919 242.991 119.243 244.868ZM145.032 234.176C143.403 240.161 142.311 246.279 141.769 252.458C142.338 252.705 142.914 252.938 143.497 253.156C144.162 246.9 145.237 240.695 146.716 234.58C146.156 234.486 145.591 234.342 145.032 234.198V234.176Z" fill="#FAC4AA"/>
<path d="M121.947 239.577C120.801 238.953 119.724 238.21 118.733 237.361C117.896 238.556 117.155 239.816 116.517 241.128C115.177 243.766 113.973 246.472 112.911 249.234C112.794 249.474 112.748 249.743 112.778 250.009C112.852 250.258 112.999 250.48 113.199 250.646C113.907 251.353 114.668 252.005 115.476 252.596C115.947 252.934 116.429 253.25 116.922 253.549C117.105 250.58 118.135 247.682 119.243 244.901C119.918 243.02 120.826 241.232 121.947 239.577ZM137.52 255.499C135.346 253.435 133.511 251.042 132.079 248.408C130.971 246.347 130.085 243.976 130.367 241.694C127.884 241.728 125.424 241.209 123.165 240.176C120.844 244.657 118.828 249.433 118.523 254.424C119.426 254.89 120.357 255.305 121.293 255.699C126.157 257.726 131.398 259.061 136.655 258.784C137.403 258.746 138.273 258.585 138.594 257.915C138.682 257.694 138.716 257.456 138.693 257.22C138.67 256.984 138.59 256.757 138.461 256.557C138.201 256.16 137.884 255.804 137.52 255.499ZM142.007 233.206C139.804 238.364 138.191 243.753 137.198 249.272C137.137 249.488 137.137 249.716 137.198 249.932C137.325 250.155 137.519 250.334 137.752 250.441C139.047 251.205 140.388 251.886 141.769 252.48C142.311 246.301 143.403 240.183 145.032 234.198C144.007 233.93 142.998 233.608 142.007 233.234V233.206ZM163.879 252.114C161.547 250.314 159.081 248.613 157.231 246.325C154.684 243.16 153.459 239.132 153.813 235.084C151.442 235.234 149.061 235.07 146.733 234.597C145.244 240.713 144.159 246.92 143.486 253.178C149.185 255.24 155.23 256.181 161.286 255.948C162.23 255.975 163.17 255.821 164.056 255.494C164.307 255.403 164.536 255.26 164.727 255.074C164.919 254.887 165.067 254.662 165.164 254.413C165.441 253.521 164.627 252.69 163.879 252.114Z" fill="#7F52A3"/>
<path d="M145.032 234.198C144.006 233.921 142.997 233.59 142.007 233.206L141.674 233.068C141.587 231.387 141.691 229.701 141.985 228.043C146.676 222.332 150.936 216.278 154.727 209.933C157.236 205.623 159.496 200.908 159.402 195.922C159.308 190.936 156.837 186.244 154.078 182.072C149.47 175.064 143.917 168.725 137.575 163.236C139.525 161.663 142.007 160.643 144.267 159.452C148.922 156.965 152.938 153.434 156.001 149.137C160.505 153.951 164.654 159.137 167.723 164.965C171.086 171.363 173.108 178.599 172.604 185.812C172.294 190.183 171.075 194.432 169.779 198.62C165.901 211.224 161.153 223.661 154.161 235.073H153.807C151.436 235.222 149.055 235.059 146.727 234.586C146.156 234.486 145.591 234.342 145.032 234.198Z" fill="#058B7C"/>
<path d="M123.16 240.176C122.75 239.991 122.345 239.791 121.946 239.577C120.801 238.953 119.724 238.21 118.733 237.361L118.501 237.151C120.279 225.334 127.06 214.991 133.37 204.825C134.179 203.528 135.004 201.961 134.406 200.559C133.852 199.279 132.373 198.742 131.038 198.343C125.032 196.67 118.556 195.23 113.792 191.368C122.921 188.366 130.594 180.909 133.298 171.685C133.918 169.546 134.317 167.286 135.514 165.424C136.066 164.582 136.751 163.833 137.541 163.208C143.883 168.698 149.437 175.036 154.045 182.044C156.815 186.238 159.275 190.908 159.369 195.894C159.463 200.88 157.203 205.595 154.693 209.905C150.902 216.25 146.643 222.304 141.951 228.015C138.24 232.636 134.35 237.14 130.456 241.666H130.334C127.862 241.704 125.412 241.195 123.16 240.176Z" fill="#05AD9E"/>
<path d="M130.805 129.137C130.827 128.194 130.905 127.252 131.038 126.318C129.31 126.941 127.641 127.718 126.052 128.639C125.909 130.167 125.885 131.705 125.98 133.237C126.167 136.382 126.839 139.478 127.974 142.417C129.508 141.111 130.97 139.724 132.356 138.262C131.262 135.347 130.736 132.25 130.805 129.137ZM202.537 86.6622C199.798 87.1874 197.131 88.0373 194.593 89.194C193.776 89.5633 192.975 89.9678 192.188 90.4073C192.233 90.6677 192.283 90.928 192.327 91.1884C192.571 92.5513 192.803 93.9196 192.958 95.288C196.764 93.9835 200.716 93.1518 204.725 92.8116C204.217 90.6896 203.484 88.6281 202.537 86.6622Z" fill="#05AD9E"/>
<path d="M147.486 132.328C147.666 132.466 147.791 132.662 147.841 132.882C147.855 133.08 147.815 133.278 147.726 133.455C147.638 133.633 147.503 133.783 147.337 133.891C147.037 134.076 146.704 134.2 146.356 134.256C146.891 136.657 147.431 139.058 147.974 141.458L151.852 139.442C150.625 136.447 149.942 133.258 149.835 130.024L147.486 132.328ZM204.725 92.8005C200.716 93.1442 196.764 93.9797 192.958 95.288C193.179 97.0356 193.214 98.8015 193.064 100.557C192.72 104.008 191.28 107.504 188.493 109.559C185.274 111.936 180.737 111.986 177.042 110.484C175.597 109.894 174.234 109.119 172.987 108.18C166.267 114.274 159.691 120.512 153.159 126.822C158.503 131.07 164.917 133.759 171.692 134.593C178.468 135.427 185.342 134.373 191.557 131.547C193.911 130.523 196.092 129.14 198.022 127.448C201.018 124.603 203.195 121.006 204.327 117.032C205.447 113.068 205.994 108.964 205.95 104.844C206.045 100.794 205.634 96.7484 204.725 92.8005ZM134.921 84.5182C134.601 84.5033 134.281 84.4719 133.963 84.424C133.297 85.504 132.306 86.3456 131.132 86.8284C129.811 87.3532 128.417 87.6709 126.999 87.7702C125.571 87.9873 124.115 87.9366 122.706 87.6206C121.023 87.1079 119.562 86.0445 118.556 84.6013C117.833 83.577 117.283 82.441 116.927 81.2385H116.595C112.917 81.1056 109.62 79.0225 106.069 78.042C101.412 76.7716 96.4408 77.3949 92.2412 79.776C84.934 83.9642 81.4548 92.6842 80.225 101.011C78.7125 111.221 79.7818 121.703 82.5407 131.658C82.7124 132.273 82.8897 132.888 83.0947 133.497C85.1002 140.201 88.2358 147.131 94.2633 150.671C94.8451 151.014 95.4484 151.32 96.0694 151.585C97.5724 152.23 99.1538 152.673 100.773 152.904C101.205 152.97 101.637 153.02 102.075 153.059C103.839 153.207 105.614 153.149 107.365 152.887C111.842 152.234 116.08 150.394 119.974 148.095C122.801 146.438 125.478 144.538 127.974 142.417C126.836 139.479 126.159 136.382 125.969 133.237C125.874 131.705 125.898 130.167 126.041 128.639C124.918 129.264 123.762 129.828 122.578 130.328C120.429 131.205 118.14 131.689 115.819 131.758C115.343 131.772 114.866 131.761 114.39 131.725C113.298 131.673 112.236 131.345 111.304 130.772C110.04 129.864 109.158 128.52 108.828 126.999C108.828 126.916 108.789 126.833 108.773 126.75H111.354C112.461 126.823 113.571 126.68 114.623 126.329C115.853 125.83 116.772 124.794 117.62 123.769C121.847 118.689 125.509 113.154 129.808 108.113C131.471 106.108 133.265 104.215 135.176 102.446C136.219 96.5123 136.167 90.4382 135.021 84.5238L134.921 84.5182ZM165.807 100.684C163.973 98.3461 162.206 95.9472 160.173 93.7866C158.403 91.9028 156.445 90.206 154.328 88.7231C152.419 87.3269 150.3 86.2424 148.051 85.5099C145.309 84.6844 142.445 84.6179 139.564 84.6069C140.673 89.076 141.025 93.6995 140.605 98.2851C142.055 97.355 143.58 96.5489 145.165 95.8752C146.677 95.2381 148.777 94.9002 149.652 96.2852C150.167 97.1051 149.974 98.1688 149.73 99.1106C148.775 102.883 147.414 106.541 145.669 110.019C144.35 112.65 142.783 115.664 143.519 118.39C145.285 116.912 147.06 115.446 148.843 113.991C154.389 109.454 160.067 105.049 165.779 100.684H165.807Z" fill="#DF2E38"/>
<path d="M149.026 126.933C148.943 126.539 148.472 126.379 148.09 126.268C146.646 125.941 145.179 125.728 143.702 125.631C141.896 125.492 140.074 125.442 138.256 125.481C140.138 124.792 141.842 123.691 143.242 122.257C143.489 122.044 143.68 121.774 143.796 121.47C143.851 121.318 143.855 121.154 143.809 120.999C143.763 120.845 143.67 120.709 143.542 120.611C143.385 120.546 143.216 120.516 143.046 120.524C142.877 120.532 142.711 120.577 142.561 120.656C141.427 121.073 140.306 121.522 139.198 122.002C138.09 122.484 136.982 122.999 135.935 123.548C134.262 124.401 132.637 125.324 131.06 126.318C130.927 127.252 130.849 128.194 130.827 129.137C130.754 132.249 131.277 135.346 132.367 138.262L132.445 138.179L139.957 138.112H140.384C140.81 138.112 141.242 138.112 141.669 138.068C142.889 138.042 144.087 137.743 145.176 137.193C145.341 137.124 145.488 137.02 145.608 136.888C145.728 136.756 145.817 136.599 145.868 136.428C145.88 136.24 145.833 136.052 145.734 135.891C145.635 135.731 145.488 135.605 145.314 135.531C145.041 135.406 144.745 135.338 144.445 135.331H144.217C142.5 135.248 140.783 135.159 139.065 135.082C141.155 134.997 143.24 134.801 145.309 134.495C145.619 134.445 145.924 134.389 146.234 134.328L146.367 134.295C146.715 134.239 147.048 134.114 147.348 133.93C147.514 133.822 147.649 133.672 147.737 133.494C147.826 133.317 147.866 133.119 147.852 132.921C147.802 132.701 147.677 132.505 147.497 132.367C147.403 132.289 147.298 132.224 147.187 132.173C146.854 132.048 146.501 131.982 146.145 131.979C144.051 131.854 141.949 131.906 139.863 132.135C142.633 131.353 145.78 132.135 148.339 130.849C148.638 130.694 148.954 130.478 149.01 130.146C149.024 129.976 148.984 129.806 148.897 129.66C148.809 129.514 148.678 129.399 148.522 129.331C148.208 129.199 147.87 129.135 147.53 129.143L139.326 128.783C142.223 128.783 145.154 128.722 147.957 127.996C148.472 127.819 149.126 127.47 149.026 126.933ZM202.482 86.4905C202.341 85.1868 202.126 83.892 201.839 82.6125C201.67 81.879 201.459 81.1558 201.207 80.4464C200.839 79.2037 200.134 78.0875 199.169 77.2221C199.091 77.1476 198.992 77.0975 198.886 77.0781C198.515 77.0338 198.41 77.5711 198.46 77.9423C198.604 79.0503 198.792 80.1971 199.014 81.3106C198.847 80.3014 198.561 79.3157 198.16 78.3744C197.867 77.7358 197.438 77.1687 196.903 76.7124C196.654 76.5097 196.378 76.3419 196.083 76.2138C195.964 76.1513 195.828 76.128 195.695 76.1474C195.302 76.2305 195.335 76.8066 195.49 77.1778C195.557 77.344 195.629 77.5102 195.706 77.6764C196.26 78.9506 197.03 80.1916 197.113 81.5876C196.725 80.595 196.176 79.6724 195.49 78.8564C195.319 78.6587 195.134 78.4735 194.936 78.3024C194.328 77.7814 193.581 77.4502 192.787 77.3495C192.559 77.3068 192.323 77.346 192.122 77.4603C191.662 77.7872 191.939 78.5185 192.282 78.9672C192.51 79.2608 192.753 79.5545 192.997 79.8481C193.789 80.8065 194.576 81.7871 194.748 83.0003C193.975 82.0691 192.995 81.3326 191.885 80.8504C190.775 80.3682 189.568 80.1539 188.36 80.2248C188.206 80.2169 188.052 80.2431 187.91 80.3015C187.767 80.3599 187.639 80.4491 187.535 80.5627C187.456 80.7203 187.425 80.8972 187.445 81.0721C187.464 81.2471 187.534 81.4126 187.646 81.5489C188.051 82.0874 188.566 82.5332 189.158 82.8563L189.391 83.0003C190.587 83.7704 191.773 84.751 192.161 86.1138C190.171 85.4375 188.024 85.3776 186 85.9421C185.849 85.9725 185.707 86.0369 185.585 86.1304L185.535 86.1748C185.443 86.3066 185.401 86.4674 185.419 86.6273C185.436 86.7873 185.511 86.9355 185.629 87.0445C185.873 87.2542 186.167 87.3973 186.482 87.46C187.496 87.7315 188.543 87.9143 189.535 88.2855C190.581 88.646 191.489 89.3238 192.133 90.2245L192.166 90.3962C192.953 89.9641 193.762 89.5634 194.593 89.1941C197.131 88.0412 199.798 87.1949 202.537 86.6734C202.515 86.6124 202.493 86.5626 202.465 86.5127L202.482 86.4905ZM133.952 84.402C133.465 84.3348 133 84.1607 132.589 83.8923C132.217 83.6271 131.923 83.2676 131.736 82.8508C130.69 83.0577 129.611 83.0298 128.578 82.7692C127.544 82.5086 126.581 82.0218 125.758 81.3439C124.849 80.5427 124.126 79.5524 123.64 78.4422C123.153 77.3321 122.916 76.1291 122.944 74.9175C123.546 76.1903 124.466 77.2865 125.615 78.1006C126.764 78.9147 128.103 79.4192 129.503 79.5655C130.056 79.6186 130.612 79.6186 131.165 79.5655C133.876 79.2977 136.402 78.0673 138.284 76.0975C140.567 73.7818 141.941 70.6905 142.677 67.5216C143.414 64.3527 143.558 61.1007 143.675 57.8654C141.459 58.4581 138.982 58.0703 137.409 56.436C137.015 57.2781 135.88 57.544 134.988 57.2726C134.12 56.9304 133.325 56.4266 132.644 55.7879C131.215 54.6799 129.553 53.6993 127.736 53.6217C126.675 53.6101 125.629 53.8647 124.692 54.3622C123.755 54.8596 122.958 55.5841 122.373 56.4693C121.259 58.2101 120.844 60.3075 121.21 62.3417C121.107 61.766 120.874 61.2216 120.527 60.7508C120.18 60.28 119.729 59.8955 119.21 59.6271C118.659 59.3621 118.039 59.2731 117.436 59.3722C116.832 59.4713 116.274 59.7537 115.836 60.1811C115.508 60.5411 115.259 60.9657 115.105 61.4276C114.827 62.1813 114.732 62.9904 114.828 63.788C114.924 64.5856 115.209 65.3489 115.659 66.0147C116.146 66.6828 116.807 67.2055 117.569 67.5266C118.331 67.8477 119.167 67.9551 119.985 67.8374C120.149 70.2395 120.074 72.6518 119.764 75.0394C119.57 76.5213 119.287 77.9903 118.916 79.4381C118.83 79.977 118.576 80.4751 118.191 80.8619C117.82 81.1274 117.372 81.2619 116.916 81.2442C117.272 82.4466 117.822 83.5826 118.545 84.6069C119.551 86.0501 121.012 87.1135 122.695 87.6262C124.104 87.9422 125.56 87.9929 126.988 87.7758C128.406 87.6765 129.8 87.3588 131.121 86.834C132.289 86.3468 133.274 85.5035 133.935 84.4241L133.952 84.402Z" fill="#F49C6A"/>
<path d="M146.987 240.469C147.001 240.505 147.001 240.544 146.987 240.58L146.605 241.721L147.386 241.267C147.43 241.235 147.482 241.216 147.536 241.212C147.591 241.217 147.644 241.24 147.685 241.278C147.935 241.455 148.172 241.649 148.394 241.86C148.361 241.555 148.333 241.256 148.3 240.951C148.287 240.9 148.287 240.847 148.3 240.796C148.328 240.744 148.373 240.703 148.428 240.68L149.236 240.192L148.367 239.815C148.315 239.799 148.269 239.769 148.234 239.727C148.209 239.695 148.193 239.656 148.189 239.616L147.99 238.813C147.769 239.103 147.573 239.41 147.403 239.732C147.015 239.782 146.588 239.854 146.167 239.926L146.915 240.403C146.946 240.417 146.971 240.44 146.987 240.469ZM149.253 245.588C148.901 245.421 148.528 245.3 148.145 245.228C148.062 244.867 147.951 244.513 147.813 244.17L147.231 245.223C146.755 245.339 146.284 245.477 145.813 245.616C146.121 245.843 146.465 246.016 146.832 246.126C146.716 246.519 146.594 246.912 146.478 247.3L147.242 246.824C147.299 246.78 147.365 246.752 147.436 246.74C147.531 246.741 147.623 246.774 147.696 246.835L148.549 247.361C148.516 246.956 148.428 246.557 148.289 246.175C148.633 246.02 148.957 245.823 149.253 245.588ZM124.794 244.829C124.703 244.783 124.63 244.709 124.583 244.619C124.564 244.544 124.564 244.466 124.583 244.392C124.628 243.943 124.672 243.489 124.711 243.034C124.238 243.501 123.811 244.013 123.437 244.563C122.969 244.369 122.463 244.283 121.957 244.314L122.417 244.968C122.467 245.023 122.497 245.093 122.5 245.167C122.496 245.221 122.477 245.273 122.445 245.317L121.725 246.53L122.888 246.031C122.935 246.002 122.987 245.984 123.042 245.977C123.096 245.97 123.152 245.976 123.204 245.993C123.259 246.032 123.303 246.086 123.331 246.148L124.162 247.627C124.212 247.073 124.262 246.547 124.318 246.004C124.315 245.917 124.345 245.832 124.401 245.765C124.457 245.722 124.524 245.697 124.595 245.693L125.575 245.538C125.347 245.269 125.084 245.03 124.794 244.829ZM123.132 248.934C122.672 249.339 122.212 249.743 121.747 250.142C121.308 249.98 120.837 249.927 120.373 249.987L121.143 250.84C121.212 250.905 121.259 250.99 121.276 251.084C121.268 251.16 121.24 251.233 121.193 251.294L120.639 252.208C121.078 252.105 121.498 251.935 121.885 251.704C121.947 251.658 122.024 251.636 122.102 251.643C122.179 251.643 122.229 251.738 122.273 251.81L123.005 253.084C123.043 252.485 123.088 251.893 123.126 251.294L124.39 251.178C124 250.845 123.554 250.586 123.071 250.414C123.138 249.924 123.159 249.428 123.132 248.934Z" fill="#F9B232"/>
<path d="M136.434 64.9509C136.168 64.9612 135.913 65.0586 135.708 65.2279C135.959 64.3625 136.281 63.5194 136.672 62.7072C136.677 62.6953 136.681 62.6823 136.681 62.6691C136.682 62.6559 136.679 62.6427 136.675 62.6303C136.67 62.618 136.663 62.6066 136.654 62.597C136.645 62.5874 136.634 62.5797 136.622 62.5743C136.611 62.5677 136.598 62.5637 136.585 62.5624C136.571 62.5611 136.558 62.5626 136.546 62.5668C136.533 62.571 136.522 62.5777 136.512 62.5867C136.502 62.5956 136.494 62.6065 136.489 62.6186C136.018 63.6135 135.647 64.6527 135.381 65.721C135.378 65.7334 135.377 65.7463 135.379 65.759C135.381 65.7716 135.385 65.7838 135.392 65.7947C135.399 65.8056 135.408 65.815 135.418 65.8223C135.429 65.8296 135.441 65.8348 135.453 65.8373C135.477 65.8445 135.503 65.8423 135.526 65.8309C135.549 65.8196 135.566 65.8001 135.575 65.7764C135.642 65.597 135.761 65.4419 135.917 65.3313C136.073 65.2206 136.259 65.1595 136.45 65.1559C136.642 65.1599 136.829 65.2218 136.985 65.3335C137.141 65.4452 137.26 65.6015 137.326 65.7819C137.389 66.0361 137.37 66.304 137.27 66.5463C137.171 66.7887 136.996 66.9926 136.772 67.1282C136.292 67.3983 135.737 67.5016 135.193 67.4218C135.18 67.4202 135.166 67.4213 135.154 67.425C135.141 67.4286 135.129 67.4347 135.119 67.443C135.108 67.4512 135.1 67.4614 135.094 67.473C135.087 67.4846 135.083 67.4973 135.082 67.5104C135.08 67.5235 135.081 67.5368 135.085 67.5495C135.089 67.5622 135.095 67.574 135.103 67.5843C135.111 67.5946 135.122 67.6032 135.133 67.6095C135.145 67.6159 135.157 67.6198 135.171 67.6212H135.542C136.013 67.6409 136.479 67.5215 136.882 67.2777C137.146 67.1198 137.351 66.8804 137.467 66.5956C137.583 66.3108 137.604 65.9961 137.525 65.6988C137.441 65.4781 137.291 65.2883 137.096 65.1547C136.901 65.021 136.67 64.95 136.434 64.9509ZM141.226 62.7349C141.207 62.7163 141.185 62.7016 141.161 62.6915C141.137 62.6815 141.111 62.6763 141.084 62.6763C141.058 62.6763 141.032 62.6815 141.008 62.6915C140.984 62.7016 140.962 62.7163 140.943 62.7349C140.807 62.8625 140.641 62.9537 140.46 63C140.28 63.0464 140.09 63.0463 139.91 62.9999C139.729 62.9535 139.563 62.8622 139.427 62.7346C139.291 62.6069 139.189 62.447 139.132 62.2696C139.114 62.2194 139.078 62.1781 139.03 62.1544C138.982 62.1306 138.927 62.1262 138.877 62.1422C138.827 62.1598 138.785 62.1963 138.762 62.2438C138.738 62.2914 138.733 62.3463 138.749 62.397C138.831 62.6362 138.97 62.8517 139.155 63.0246C139.339 63.1975 139.563 63.3225 139.808 63.3887C139.927 63.4198 140.05 63.4347 140.173 63.433C140.559 63.4328 140.93 63.2885 141.215 63.0286C141.24 63.0115 141.262 62.9886 141.277 62.9616C141.292 62.9346 141.301 62.9044 141.302 62.8735C141.303 62.8426 141.296 62.8119 141.283 62.7839C141.27 62.756 141.25 62.7316 141.226 62.7128V62.7349ZM129.354 61.3056C129.457 61.3113 129.56 61.3113 129.664 61.3056C130.193 61.2884 130.709 61.1379 131.165 60.868C131.189 60.8563 131.21 60.8399 131.228 60.8196C131.245 60.7994 131.258 60.7758 131.266 60.7503C131.274 60.7249 131.276 60.698 131.273 60.6716C131.27 60.6451 131.262 60.6196 131.248 60.5965C131.236 60.5731 131.219 60.5524 131.199 60.5355C131.179 60.5186 131.155 60.5059 131.13 60.4982C131.105 60.4905 131.078 60.4878 131.052 60.4904C131.025 60.4931 131 60.5009 130.977 60.5134C130.508 60.8027 129.958 60.9329 129.409 60.8846C129.16 60.8533 128.926 60.747 128.739 60.5797C128.552 60.4125 128.421 60.1922 128.362 59.9483C128.358 59.922 128.35 59.8967 128.337 59.8737C128.323 59.8508 128.305 59.8308 128.284 59.8148C128.263 59.7988 128.239 59.7872 128.213 59.7806C128.188 59.7741 128.161 59.7727 128.135 59.7766C128.082 59.7848 128.035 59.8131 128.003 59.8555C127.971 59.8978 127.957 59.951 127.963 60.0037C128.032 60.3355 128.203 60.6373 128.453 60.8668C128.702 61.0963 129.017 61.242 129.354 61.2835V61.3056ZM132.805 70.7901C131.682 70.7078 130.622 70.2423 129.802 69.4716C128.98 68.699 128.311 67.778 127.83 66.757C127.826 66.7418 127.819 66.7277 127.808 66.7157C127.798 66.7037 127.785 66.6942 127.771 66.6878C127.757 66.6815 127.741 66.6784 127.725 66.6789C127.71 66.6793 127.694 66.6833 127.68 66.6905C127.666 66.6977 127.654 66.708 127.644 66.7205C127.635 66.733 127.628 66.7475 127.625 66.763C127.622 66.7784 127.622 66.7943 127.626 66.8096C127.63 66.8248 127.637 66.839 127.647 66.8512C128.142 67.8926 128.828 68.8321 129.669 69.6212C130.524 70.4212 131.626 70.9059 132.794 70.9951C132.82 70.9951 132.846 70.9846 132.864 70.9659C132.883 70.9472 132.894 70.9218 132.894 70.8954C132.897 70.8811 132.897 70.8664 132.894 70.852C132.891 70.8377 132.886 70.8241 132.877 70.8121C132.869 70.8002 132.858 70.79 132.846 70.7824C132.833 70.7748 132.819 70.7699 132.805 70.7679V70.7901Z" fill="black"/>
<path d="M124.85 59.7766C124.302 59.7766 123.766 59.9391 123.311 60.2434C122.855 60.5478 122.5 60.9804 122.29 61.4866C122.081 61.9927 122.026 62.5497 122.133 63.087C122.24 63.6243 122.504 64.1179 122.891 64.5053C123.278 64.8927 123.772 65.1565 124.309 65.2634C124.847 65.3703 125.403 65.3154 125.91 65.1058C126.416 64.8961 126.848 64.5411 127.153 64.0855C127.457 63.63 127.62 63.0945 127.62 62.5466C127.62 61.812 127.328 61.1074 126.808 60.5879C126.289 60.0684 125.584 59.7766 124.85 59.7766ZM142.229 64.3637C141.494 64.3329 140.777 64.5951 140.236 65.0928C139.695 65.5904 139.373 66.2827 139.342 67.0174C139.311 67.752 139.574 68.4689 140.071 69.0101C140.569 69.5514 141.261 69.8729 141.996 69.9037C142.27 69.1211 142.502 68.324 142.688 67.516C142.921 66.5299 143.093 65.5271 143.242 64.5244C142.917 64.4099 142.573 64.3554 142.229 64.3637Z" fill="#F78068"/>
<path d="M131.176 79.5876C131.27 80.7454 131.281 81.9421 131.73 82.8728C130.683 83.0758 129.605 83.044 128.572 82.7796C127.539 82.5152 126.578 82.0248 125.758 81.3438C124.849 80.5426 124.126 79.5522 123.639 78.4421C123.153 77.332 122.916 76.129 122.944 74.9174C123.546 76.1901 124.466 77.2864 125.615 78.1005C126.763 78.9146 128.103 79.4191 129.503 79.5654C130.059 79.6265 130.619 79.6339 131.176 79.5876Z" fill="#F78068"/>
<path d="M71.0507 139.054C71.0398 139.046 71.0272 139.041 71.0139 139.038C71.0007 139.035 70.987 139.036 70.9739 139.039C70.9607 139.042 70.9484 139.048 70.9378 139.056C70.9272 139.065 70.9184 139.075 70.9122 139.087C68.4634 143.039 67.1504 147.59 67.1173 152.239C67.1173 152.266 67.1276 152.292 67.1462 152.312C67.1647 152.331 67.1901 152.343 67.2171 152.344C67.2306 152.344 67.2441 152.342 67.2565 152.336C67.269 152.331 67.2803 152.323 67.2896 152.313C67.2989 152.303 67.3062 152.292 67.3108 152.279C67.3155 152.266 67.3175 152.253 67.3168 152.239C67.3525 147.627 68.6558 143.114 71.084 139.192C71.0968 139.169 71.1005 139.142 71.0943 139.117C71.0882 139.091 71.0726 139.069 71.0507 139.054ZM131.005 126.212C129.324 126.805 127.7 127.547 126.152 128.428L125.98 128.517C124.86 129.14 123.708 129.704 122.528 130.207C120.387 131.093 118.103 131.584 115.786 131.658C115.313 131.676 114.84 131.664 114.368 131.625C113.3 131.574 112.263 131.251 111.354 130.689C110.11 129.797 109.243 128.473 108.922 126.977C108.922 126.894 108.883 126.811 108.867 126.727C108.599 125.306 108.517 123.855 108.623 122.412C108.739 119.553 109.027 116.656 109.304 113.858C109.593 110.922 109.897 107.891 110.002 104.894C110.246 97.8751 109.277 92.2576 107.027 87.7203C106.108 85.7166 104.746 83.9474 103.044 82.546C101.34 81.1377 99.1537 80.45 96.9502 80.6291C96.9238 80.6291 96.8984 80.6396 96.8797 80.6583C96.861 80.677 96.8505 80.7024 96.8505 80.7288C96.8505 80.7553 96.861 80.7806 96.8797 80.7993C96.8984 80.818 96.9238 80.8286 96.9502 80.8286C99.1134 80.6491 101.261 81.3232 102.933 82.7066C104.59 84.0951 105.915 85.8366 106.811 87.8034C109.027 92.313 110.008 97.9028 109.764 104.889C109.659 107.88 109.354 110.905 109.066 113.836C108.784 116.639 108.512 119.537 108.379 122.401C108.275 123.862 108.359 125.331 108.629 126.772C108.629 126.855 108.667 126.938 108.689 127.021C109.022 128.569 109.918 129.937 111.205 130.86C112.149 131.443 113.226 131.776 114.335 131.83C114.651 131.83 114.972 131.863 115.315 131.863H115.786C118.12 131.798 120.423 131.312 122.584 130.428C123.767 129.933 124.925 129.378 126.052 128.766L126.229 128.672C127.763 127.789 129.375 127.047 131.043 126.456C131.069 126.448 131.091 126.43 131.103 126.406C131.115 126.382 131.118 126.354 131.11 126.329C131.102 126.303 131.084 126.281 131.06 126.269C131.036 126.256 131.008 126.254 130.982 126.262L131.005 126.212ZM67.0342 156.488C67.0328 156.461 67.0211 156.436 67.0015 156.417C66.9819 156.399 66.956 156.389 66.929 156.389C66.9151 156.389 66.9016 156.393 66.8891 156.399C66.8766 156.405 66.8654 156.413 66.8561 156.423C66.8469 156.434 66.8397 156.446 66.8351 156.459C66.8305 156.472 66.8285 156.486 66.8293 156.499C66.9179 158.189 67.2042 159.862 67.6824 161.485C67.6875 161.506 67.6996 161.525 67.7168 161.538C67.7339 161.551 67.755 161.558 67.7766 161.557C67.7894 161.554 67.8013 161.548 67.8119 161.541C67.8224 161.533 67.8313 161.523 67.838 161.511C67.8447 161.5 67.8491 161.488 67.8509 161.475C67.8527 161.462 67.8519 161.448 67.8486 161.436C67.3804 159.825 67.107 158.164 67.0342 156.488ZM207.95 95.3267C207.947 95.3135 207.942 95.3009 207.934 95.2897C207.927 95.2786 207.917 95.2691 207.905 95.2618C207.894 95.2546 207.881 95.2497 207.868 95.2475C207.855 95.2454 207.841 95.2459 207.828 95.2492C207.803 95.2579 207.783 95.2749 207.77 95.2971C207.757 95.3194 207.752 95.3455 207.756 95.3711C208.581 98.8471 208.821 102.436 208.465 105.991C208.463 106.018 208.472 106.045 208.49 106.066C208.507 106.086 208.532 106.099 208.559 106.102C208.584 106.102 208.609 106.094 208.628 106.077C208.648 106.061 208.66 106.038 208.664 106.013C209.015 102.435 208.768 98.8237 207.933 95.3267H207.95ZM208.382 109.382C208.355 109.382 208.33 109.392 208.311 109.411C208.293 109.43 208.282 109.455 208.282 109.481C208.283 111.216 208.008 112.941 207.468 114.589C207.462 114.602 207.46 114.615 207.46 114.628C207.461 114.642 207.464 114.655 207.469 114.667C207.475 114.679 207.483 114.69 207.494 114.698C207.504 114.707 207.516 114.713 207.529 114.717H207.562C207.583 114.718 207.603 114.712 207.62 114.7C207.637 114.688 207.65 114.67 207.656 114.65C208.207 112.981 208.488 111.234 208.487 109.476C208.486 109.462 208.481 109.448 208.475 109.435C208.468 109.422 208.458 109.411 208.447 109.402C208.435 109.393 208.422 109.387 208.408 109.384C208.394 109.38 208.379 109.379 208.365 109.382H208.382ZM154.151 181.994C149.539 174.984 143.98 168.645 137.63 163.159C137.611 163.14 137.585 163.13 137.558 163.13C137.532 163.13 137.506 163.14 137.486 163.159C137.469 163.179 137.46 163.204 137.46 163.231C137.46 163.257 137.469 163.282 137.486 163.303C143.836 168.778 149.398 175.105 154.012 182.105C156.428 185.789 159.22 190.687 159.32 195.922C159.414 201.002 157.015 205.828 154.655 209.877C150.87 216.225 146.611 222.277 141.913 227.982C141.895 228.001 141.885 228.025 141.885 228.051C141.885 228.077 141.895 228.102 141.913 228.121C141.932 228.128 141.954 228.128 141.974 228.121C141.988 228.121 142.003 228.119 142.017 228.113C142.03 228.107 142.042 228.098 142.051 228.087C146.75 222.375 151.009 216.315 154.793 209.96C157.17 205.883 159.585 201.03 159.486 195.894C159.392 190.631 156.588 185.701 154.151 181.994Z" fill="black"/>
<path d="M244.934 103.094C244.098 103.304 243.029 103.421 242.563 102.7C242.325 102.324 242.347 101.831 242.109 101.454C241.688 100.773 240.702 100.789 239.893 100.9C237.587 101.273 235.329 101.901 233.162 102.773C232.453 103.101 231.71 103.348 230.946 103.509C230.564 103.586 230.17 103.584 229.789 103.503C229.408 103.422 229.048 103.264 228.73 103.038C228.364 102.75 228.104 102.346 227.722 102.08C226.846 101.465 225.65 101.77 224.63 102.08L215.212 105.099C217.85 104.379 220.542 103.877 223.262 103.598C224.398 103.487 225.6 103.437 226.586 103.964C227.251 104.307 227.771 104.872 228.436 105.216C230.187 106.124 232.314 105.277 234.07 104.407C235.827 103.537 237.91 102.628 239.699 103.454C240.779 103.947 241.538 104.994 242.641 105.426C244.031 105.98 245.588 105.398 246.968 104.839L257.189 100.684C253.034 100.894 248.979 102.063 244.934 103.094ZM220.824 92.7894C221.788 92.7063 222.486 93.7423 223.389 94.0359C223.745 94.1278 224.118 94.1356 224.478 94.0586C224.837 93.9817 225.174 93.8222 225.461 93.5927C226.03 93.1289 226.524 92.5794 226.924 91.964L229.095 88.9945C229.688 88.1801 230.431 87.2827 231.433 87.2605C232.608 87.2605 233.616 88.435 234.757 88.2245C235.225 88.1042 235.655 87.8658 236.004 87.532C239.652 84.4876 242.981 81.0816 245.943 77.3661C245.079 77.576 244.264 77.9524 243.544 78.4741C241.243 79.9445 239.043 81.5658 236.957 83.3271C236.115 84.0418 235.156 84.8229 234.054 84.7287C233.444 84.6789 232.885 84.352 232.275 84.3021C230.979 84.1913 229.932 85.2827 229.101 86.2855C227.775 87.8699 226.453 89.4562 225.134 91.0443C224.984 91.2576 224.782 91.4292 224.547 91.5429C223.766 91.831 223.173 90.8227 222.442 90.4349C222.135 90.2899 221.798 90.2216 221.459 90.2361C221.121 90.2506 220.79 90.3474 220.497 90.518C219.915 90.8609 219.399 91.3056 218.974 91.831C216.729 94.4415 214.645 97.1871 212.736 100.052C214.911 97.7347 217.208 95.534 219.617 93.4598C219.942 93.1195 220.363 92.8858 220.824 92.7894ZM226.248 72.574C227.162 72.0698 228.259 71.9313 229.118 71.333C230.475 70.3912 230.874 68.6073 231.3 67.0118C231.727 65.4163 232.503 63.6435 234.07 63.1892C234.624 63.0285 235.239 63.0563 235.799 62.9011C237.256 62.4912 238.065 60.9843 238.713 59.6215L241.804 53.1396C239.295 55.0011 237.439 57.5716 235.71 60.2031C235.328 60.7959 234.763 61.4663 234.048 61.3111C233.66 61.2225 233.361 60.868 232.968 60.8292C232.741 60.8449 232.522 60.9157 232.329 61.0354C232.136 61.1551 231.975 61.3201 231.86 61.5161C230.459 63.2689 229.456 65.3045 228.918 67.4827C228.808 68.0589 228.622 68.6179 228.364 69.1447C228.236 69.4065 228.045 69.6322 227.808 69.8015C227.571 69.9708 227.296 70.0783 227.007 70.1142C226.697 70.1142 226.392 70.0256 226.082 70.0311C225.312 70.0311 224.686 70.6516 224.231 71.2721C221.927 74.4077 221.533 78.5129 220.043 82.1083C221.108 79.7002 222.347 77.3727 223.749 75.1445C224.357 74.0944 225.215 73.2112 226.248 72.574Z" fill="#DF2E38"/>
</svg>
