<svg width="16" height="16" viewBox="0 0 16 16" fill="none" xmlns="http://www.w3.org/2000/svg">
<g id="u:sliders-v">
<path id="Vector" d="M4.66671 3.99999H4.00004V1.99999C4.00004 1.82318 3.9298 1.65361 3.80478 1.52859C3.67975 1.40357 3.51019 1.33333 3.33337 1.33333C3.15656 1.33333 2.98699 1.40357 2.86197 1.52859C2.73695 1.65361 2.66671 1.82318 2.66671 1.99999V3.99999H2.00004C1.82323 3.99999 1.65366 4.07023 1.52864 4.19526C1.40361 4.32028 1.33337 4.48985 1.33337 4.66666C1.33337 4.84347 1.40361 5.01304 1.52864 5.13807C1.65366 5.26309 1.82323 5.33333 2.00004 5.33333H4.66671C4.84352 5.33333 5.01309 5.26309 5.13811 5.13807C5.26314 5.01304 5.33337 4.84347 5.33337 4.66666C5.33337 4.48985 5.26314 4.32028 5.13811 4.19526C5.01309 4.07023 4.84352 3.99999 4.66671 3.99999ZM3.33337 6.66666C3.15656 6.66666 2.98699 6.7369 2.86197 6.86192C2.73695 6.98695 2.66671 7.15652 2.66671 7.33333V14C2.66671 14.1768 2.73695 14.3464 2.86197 14.4714C2.98699 14.5964 3.15656 14.6667 3.33337 14.6667C3.51019 14.6667 3.67975 14.5964 3.80478 14.4714C3.9298 14.3464 4.00004 14.1768 4.00004 14V7.33333C4.00004 7.15652 3.9298 6.98695 3.80478 6.86192C3.67975 6.7369 3.51019 6.66666 3.33337 6.66666ZM8.00004 12C7.82323 12 7.65366 12.0702 7.52864 12.1953C7.40361 12.3203 7.33337 12.4899 7.33337 12.6667V14C7.33337 14.1768 7.40361 14.3464 7.52864 14.4714C7.65366 14.5964 7.82323 14.6667 8.00004 14.6667C8.17685 14.6667 8.34642 14.5964 8.47145 14.4714C8.59647 14.3464 8.66671 14.1768 8.66671 14V12.6667C8.66671 12.4899 8.59647 12.3203 8.47145 12.1953C8.34642 12.0702 8.17685 12 8.00004 12ZM14 6.66666H13.3334V1.99999C13.3334 1.82318 13.2631 1.65361 13.1381 1.52859C13.0131 1.40357 12.8435 1.33333 12.6667 1.33333C12.4899 1.33333 12.3203 1.40357 12.1953 1.52859C12.0703 1.65361 12 1.82318 12 1.99999V6.66666H11.3334C11.1566 6.66666 10.987 6.7369 10.862 6.86192C10.7369 6.98695 10.6667 7.15652 10.6667 7.33333C10.6667 7.51014 10.7369 7.67971 10.862 7.80473C10.987 7.92976 11.1566 8 11.3334 8H14C14.1769 8 14.3464 7.92976 14.4714 7.80473C14.5965 7.67971 14.6667 7.51014 14.6667 7.33333C14.6667 7.15652 14.5965 6.98695 14.4714 6.86192C14.3464 6.7369 14.1769 6.66666 14 6.66666ZM12.6667 9.33333C12.4899 9.33333 12.3203 9.40357 12.1953 9.52859C12.0703 9.65361 12 9.82318 12 10V14C12 14.1768 12.0703 14.3464 12.1953 14.4714C12.3203 14.5964 12.4899 14.6667 12.6667 14.6667C12.8435 14.6667 13.0131 14.5964 13.1381 14.4714C13.2631 14.3464 13.3334 14.1768 13.3334 14V10C13.3334 9.82318 13.2631 9.65361 13.1381 9.52859C13.0131 9.40357 12.8435 9.33333 12.6667 9.33333ZM9.33337 9.33333H8.66671V1.99999C8.66671 1.82318 8.59647 1.65361 8.47145 1.52859C8.34642 1.40357 8.17685 1.33333 8.00004 1.33333C7.82323 1.33333 7.65366 1.40357 7.52864 1.52859C7.40361 1.65361 7.33337 1.82318 7.33337 1.99999V9.33333H6.66671C6.4899 9.33333 6.32033 9.40357 6.1953 9.52859C6.07028 9.65361 6.00004 9.82318 6.00004 10C6.00004 10.1768 6.07028 10.3464 6.1953 10.4714C6.32033 10.5964 6.4899 10.6667 6.66671 10.6667H9.33337C9.51019 10.6667 9.67975 10.5964 9.80478 10.4714C9.9298 10.3464 10 10.1768 10 10C10 9.82318 9.9298 9.65361 9.80478 9.52859C9.67975 9.40357 9.51019 9.33333 9.33337 9.33333Z" fill="white" fill-opacity="0.87"/>
</g>
</svg>
