<svg width="48" height="48" viewBox="0 0 48 48" fill="none" xmlns="http://www.w3.org/2000/svg">
<rect width="48" height="48" rx="24" fill="#11823B" fill-opacity="0.1"/>
<path d="M18 15C17.5 15 17.1 15.2 16.8 15.6L15.5 17.2C15.2 17.6 15 18 15 18.5V31C15 32.1 15.9 33 17 33H25.3C25.1 32.4 25 31.7 25 31C25 27.7 27.7 25 31 25C31.7 25 32.4 25.1 33 25.3V18.5C33 18 32.8 17.6 32.5 17.2L31.1 15.5C30.9 15.2 30.5 15 30 15H18ZM17.9 16H29.9L30.8 17H17.1L17.9 16ZM18 27H24V30H18V27ZM33.3 27.8L29.7 31.4L28.1 29.8L27 31L29.8 34L34.6 29.2L33.3 27.8Z" fill="#48BF53"/>
</svg>
