<svg width="49" height="49" viewBox="0 0 49 49" fill="none" xmlns="http://www.w3.org/2000/svg">
<path d="M33.25 19.2999L15.25 8.91992" stroke="white" stroke-opacity="0.87" stroke-width="2" stroke-linecap="round" stroke-linejoin="round"/>
<path d="M42.25 32.4998V16.4998C42.2493 15.7984 42.0641 15.1094 41.7131 14.5021C41.362 13.8948 40.8575 13.3905 40.25 13.0398L26.25 5.0398C25.6419 4.68873 24.9521 4.50391 24.25 4.50391C23.5479 4.50391 22.8581 4.68873 22.25 5.0398L8.25 13.0398C7.64253 13.3905 7.13796 13.8948 6.78692 14.5021C6.43589 15.1094 6.25072 15.7984 6.25 16.4998V32.4998C6.25072 33.2013 6.43589 33.8902 6.78692 34.4975C7.13796 35.1048 7.64253 35.6091 8.25 35.9598L22.25 43.9598C22.8581 44.3109 23.5479 44.4957 24.25 44.4957C24.9521 44.4957 25.6419 44.3109 26.25 43.9598L40.25 35.9598C40.8575 35.6091 41.362 35.1048 41.7131 34.4975C42.0641 33.8902 42.2493 33.2013 42.25 32.4998Z" stroke="white" stroke-opacity="0.87" stroke-width="2" stroke-linecap="round" stroke-linejoin="round"/>
<path d="M6.79004 14.4199L24.25 24.5199L41.71 14.4199" stroke="white" stroke-opacity="0.87" stroke-width="2" stroke-linecap="round" stroke-linejoin="round"/>
<path d="M24.25 44.66V24.5" stroke="white" stroke-opacity="0.87" stroke-width="2" stroke-linecap="round" stroke-linejoin="round"/>
</svg>
