<svg width="100" height="51" viewBox="0 0 100 51" fill="none" xmlns="http://www.w3.org/2000/svg">
<g id="rockshop logo" clip-path="url(#clip0_1352_21280)">
<path id="Vector" d="M59.4676 27.4723H55.0809L53.7327 24.8185H51.4423V27.4723H46.96V16.0557H53.8806C55.5525 16.0557 56.8263 16.4184 57.7019 17.1438C58.5775 17.8692 59.0162 19.021 59.0182 20.5992C59.0432 21.2149 58.9217 21.8278 58.6637 22.3877C58.4057 22.9476 58.0185 23.4384 57.5337 23.8201L59.4676 27.4723ZM51.4423 19.7483V21.5136H53.5414C54.1937 21.5136 54.5214 21.2243 54.5214 20.631C54.5214 20.0377 54.1937 19.7483 53.5414 19.7483H51.4423Z" fill="#EE333D"/>
<path id="Vector_2" d="M66.1997 27.8514C64.1643 27.8514 62.5514 27.3005 61.3607 26.1989C60.1701 25.0973 59.5757 23.6175 59.5776 21.7596C59.5776 19.9017 60.172 18.4219 61.3607 17.3203C62.5494 16.2187 64.1624 15.6678 66.1997 15.6678C68.2234 15.6678 69.8306 16.2187 71.0212 17.3203C72.2119 18.4219 72.8072 19.9017 72.8072 21.7596C72.8072 23.6175 72.2119 25.0973 71.0212 26.1989C69.8306 27.3005 68.2234 27.8514 66.1997 27.8514ZM64.6572 23.4178C65.0816 23.7938 65.6293 24.0014 66.1968 24.0014C66.7642 24.0014 67.3119 23.7938 67.7363 23.4178C68.1417 22.9585 68.3654 22.3674 68.3654 21.7553C68.3654 21.1431 68.1417 20.552 67.7363 20.0927C67.2877 19.7303 66.7179 19.5518 66.1424 19.5933C65.5669 19.6348 65.0287 19.8933 64.637 20.3163C64.2453 20.7393 64.0295 21.2951 64.0332 21.871C64.037 22.447 64.2601 23 64.6572 23.4178Z" fill="#EE333D"/>
<path id="Vector_3" d="M79.9164 27.8513C77.9371 27.8513 76.3521 27.2986 75.1615 26.1931C73.9708 25.0876 73.3765 23.6098 73.3784 21.7596C73.3784 19.9094 73.9728 18.4315 75.1615 17.326C76.3502 16.2205 77.9352 15.6678 79.9164 15.6678C80.5126 15.6654 81.1077 15.7197 81.6936 15.8299C82.2661 15.9446 82.8208 16.1343 83.3433 16.3942C83.8656 16.6493 84.3402 16.9919 84.7466 17.4071C85.1725 17.864 85.5079 18.3971 85.7353 18.9785C86.0096 19.6758 86.1701 20.4125 86.2107 21.1605H81.9604C81.7671 20.0627 81.0857 19.5148 79.9164 19.5167C79.6405 19.5096 79.3661 19.5596 79.1106 19.6637C78.8551 19.7678 78.624 19.9237 78.4319 20.1216C78.0442 20.5796 77.8315 21.1599 77.8315 21.7596C77.8315 22.3592 78.0442 22.9395 78.4319 23.3975C78.624 23.5954 78.8551 23.7513 79.1106 23.8554C79.3661 23.9595 79.6405 24.0095 79.9164 24.0024C81.0761 24.0024 81.7574 23.4409 81.9604 22.3181H86.205C86.1665 23.2326 85.9415 24.1297 85.5439 24.9545C85.2122 25.6501 84.7058 26.2483 84.074 26.6908C83.4845 27.0893 82.833 27.3875 82.1459 27.5735C81.4184 27.7643 80.6686 27.8578 79.9164 27.8513Z" fill="#EE333D"/>
<path id="Vector_4" d="M99.9972 27.4723H95.4627L92.833 23.8259H92.5837L91.2906 25.2266V27.4723H86.8228V16.0557H91.2935V19.9451H91.566L94.9727 16.0557H99.916L95.338 21.1345L99.9972 27.4723Z" fill="#EE333D"/>
<path id="Vector_5" d="M53.0921 41.6005C50.9292 41.6005 49.3713 41.2561 48.4184 40.5674C47.4655 39.8786 47.0248 38.7587 47.0964 37.2075H51.1235C51.1235 37.8152 51.7845 38.122 53.1008 38.1336C53.5303 38.16 53.9611 38.111 54.3736 37.9889C54.6519 37.8847 54.7911 37.7516 54.7911 37.5895V37.5056C54.7926 37.4882 54.7926 37.4708 54.7911 37.4535C54.7887 37.4293 54.7818 37.4057 54.7708 37.384C54.7586 37.3611 54.745 37.3389 54.7302 37.3175C54.7104 37.2876 54.6848 37.262 54.6548 37.2422C54.6204 37.2171 54.5846 37.1939 54.5476 37.1728C54.4989 37.1488 54.4485 37.1285 54.3968 37.112L54.191 37.057C54.1079 37.0379 54.0236 37.0244 53.9387 37.0165L52.4282 36.785L51.7671 36.6982C51.4627 36.6576 51.2279 36.6229 51.0655 36.5969L50.3842 36.4724C50.144 36.4357 49.9067 36.3825 49.6738 36.3133C49.5057 36.2583 49.2998 36.1802 49.0592 36.0818C48.8498 36.0039 48.6541 35.8936 48.4793 35.7547C48.3191 35.6202 48.1662 35.4772 48.0212 35.3264C47.8636 35.1666 47.7351 34.9805 47.6414 34.7766C47.5433 34.5511 47.4676 34.3165 47.4153 34.0763C47.3558 33.7907 47.3267 33.4997 47.3283 33.2081C47.3075 32.6576 47.4301 32.1112 47.6842 31.6222C47.9383 31.1332 48.3152 30.7184 48.778 30.4183C49.7444 29.7585 51.1863 29.4276 53.1037 29.4257C53.912 29.4151 54.7195 29.479 55.5159 29.6167C56.1576 29.7325 56.7752 29.9556 57.3425 30.2765C57.8804 30.5814 58.3031 31.0542 58.5457 31.6222C58.8242 32.3102 58.9431 33.0522 58.8936 33.7926H54.9187C54.8008 33.1849 54.1687 32.8811 53.0225 32.8811C52.1064 32.8811 51.6483 33.0672 51.6483 33.4396C51.6463 33.4753 51.6463 33.511 51.6483 33.5467C51.6618 33.5984 51.6803 33.6488 51.7034 33.6971C51.7453 33.778 51.8154 33.8408 51.9005 33.8737C52.0221 33.9259 52.1513 33.9582 52.2832 33.9692L53.4806 34.1602C53.6981 34.1949 54.0025 34.2383 54.3939 34.2875L55.3739 34.4119C55.6377 34.4438 55.9537 34.4988 56.3132 34.5798C56.6262 34.6479 56.9342 34.7368 57.2352 34.846C57.5097 34.9545 57.772 35.0913 58.018 35.2541C58.2705 35.412 58.4917 35.6151 58.6704 35.8531C58.8497 36.1049 58.9858 36.3846 59.0734 36.6808C59.1818 37.0402 59.2345 37.4139 59.23 37.7892C59.23 39.105 58.7255 40.0754 57.7165 40.7005C56.7076 41.3256 55.1661 41.6256 53.0921 41.6005Z" fill="white"/>
<path id="Vector_6" d="M67.9133 29.796H72.3956V41.2329H67.9133V37.3839H64.3036V41.2329H59.8213V29.796H64.3036V33.6305H67.9133V29.796Z" fill="white"/>
<path id="Vector_7" d="M79.6323 41.6005C77.597 41.6005 75.984 41.0496 74.7933 39.948C73.6027 38.8464 73.0083 37.3666 73.0103 35.5087C73.0103 33.6489 73.6046 32.1681 74.7933 31.0665C75.9821 29.9649 77.595 29.4141 79.6323 29.4141C81.656 29.4141 83.2632 29.9649 84.4538 31.0665C85.6445 32.1681 86.2398 33.6489 86.2398 35.5087C86.2398 37.3666 85.6445 38.8464 84.4538 39.948C83.2632 41.0496 81.656 41.6005 79.6323 41.6005ZM78.0869 37.1814C78.5355 37.5438 79.1053 37.7223 79.6808 37.6808C80.2564 37.6392 80.7946 37.3808 81.1862 36.9578C81.5779 36.5348 81.7938 35.979 81.79 35.4031C81.7862 34.8271 81.5632 34.2741 81.166 33.8563C80.8551 33.5414 80.4552 33.3292 80.0198 33.2479C79.5845 33.1667 79.1347 33.2205 78.7309 33.402C78.3271 33.5835 77.9887 33.8841 77.7611 34.2633C77.5335 34.6425 77.4276 35.0822 77.4578 35.5232C77.4387 35.8283 77.4849 36.134 77.5934 36.4199C77.7019 36.7059 77.8701 36.9654 78.0869 37.1814Z" fill="white"/>
<path id="Vector_8" d="M86.8516 41.2329V29.796H93.691C97.1238 29.796 98.8402 31.3395 98.8402 34.4263C98.8402 37.5132 97.1325 39.0634 93.7171 39.0769H91.3339V41.2329H86.8516ZM91.3339 35.3987H93.2677C93.5441 35.4139 93.8164 35.3274 94.0331 35.1556C94.1317 35.0667 94.209 34.9569 94.2592 34.8341C94.3093 34.7114 94.3312 34.5789 94.3231 34.4466C94.3309 34.3156 94.3089 34.1845 94.2587 34.0632C94.2085 33.9419 94.1314 33.8335 94.0331 33.7463C93.8223 33.5807 93.5589 33.4965 93.2909 33.5089H91.3281L91.3339 35.3987Z" fill="white"/>
<path id="Vector_9" d="M38.4767 7.82812H33.3449V6.01362C33.3434 4.41968 32.7086 2.89142 31.5796 1.76406C30.4507 0.636701 28.92 0.00229822 27.3231 0H15.9288C14.3314 0.00153238 12.7999 0.635599 11.6703 1.76304C10.5408 2.89048 9.90557 4.41918 9.90403 6.01362V7.82812H4.77516C3.51072 7.82812 2.29789 8.3287 1.40271 9.22005C0.507523 10.1114 0.0030709 11.3208 0 12.5829V46.2337C0 47.4978 0.503096 48.7101 1.39861 49.604C2.29413 50.4978 3.50871 51 4.77516 51H38.4767C39.7429 50.9992 40.9571 50.4968 41.8524 49.6031C42.7477 48.7094 43.2511 47.4975 43.2519 46.2337V12.5829C43.2488 11.3208 42.7443 10.1114 41.8492 9.22005C40.954 8.3287 39.7411 7.82812 38.4767 7.82812ZM12.4032 6.01362C12.404 5.08028 12.7756 4.18534 13.4365 3.5251C14.0974 2.86486 14.9937 2.49322 15.9288 2.49169H27.3231C28.2581 2.49322 29.1544 2.86486 29.8153 3.5251C30.4763 4.18534 30.8479 5.08028 30.8486 6.01362V7.82812H12.4032V6.01362Z" fill="#EE333D"/>
<path id="Vector_10" d="M15.6271 16.7589C15.6271 16.5648 15.5888 16.3727 15.5143 16.1934C15.4398 16.0141 15.3306 15.8513 15.193 15.7142C15.0554 15.5771 14.8921 15.4685 14.7123 15.3945C14.5326 15.3205 14.34 15.2826 14.1456 15.283H12.1827C11.7906 15.283 11.4145 15.4385 11.1372 15.7152C10.8599 15.992 10.7041 16.3674 10.7041 16.7589V28.0597H15.6329L15.6271 16.7589Z" fill="white"/>
<path id="Vector_11" d="M21.2695 20.6425H16.6509V28.0596H21.2695V20.6425Z" fill="white"/>
<path id="Vector_12" d="M26.601 20.6425H21.9824V28.0596H26.601V20.6425Z" fill="white"/>
<path id="Vector_13" d="M31.0659 15.283H29.106C28.9116 15.2826 28.719 15.3205 28.5393 15.3945C28.3595 15.4685 28.1962 15.5771 28.0586 15.7142C27.921 15.8513 27.8118 16.0141 27.7373 16.1934C27.6628 16.3727 27.6245 16.5648 27.6245 16.7589V31.7235C27.6245 32.1393 27.5423 32.5511 27.3827 32.9353C27.2231 33.3194 26.9891 33.6684 26.6942 33.9622C26.3994 34.2559 26.0493 34.4888 25.6642 34.6474C25.2791 34.8061 24.8664 34.8873 24.4497 34.8865H15.6271V33.7811H24.1598C24.4804 33.7811 24.7978 33.718 25.094 33.5956C25.3902 33.4731 25.6593 33.2936 25.886 33.0674C26.1127 32.8411 26.2925 32.5725 26.4152 32.2768C26.5379 31.9812 26.601 31.6643 26.601 31.3444V28.8643H10.7041V34.8865V36.484C10.7041 37.6501 11.168 38.7686 11.9938 39.5934C12.8197 40.4183 13.9399 40.882 15.1081 40.8828H28.1405C29.3093 40.8828 30.4303 40.4194 31.2567 39.5944C32.0832 38.7695 32.5475 37.6506 32.5475 36.484V16.7589C32.5475 16.5648 32.5091 16.3727 32.4347 16.1934C32.3602 16.0141 32.251 15.8513 32.1134 15.7142C31.9758 15.5771 31.8124 15.4685 31.6327 15.3945C31.4529 15.3205 31.2604 15.2826 31.0659 15.283Z" fill="white"/>
</g>
<defs>
<clipPath id="clip0_1352_21280">
<rect width="100" height="51" fill="white"/>
</clipPath>
</defs>
</svg>
