<svg width="49" height="49" viewBox="0 0 49 49" fill="none" xmlns="http://www.w3.org/2000/svg">
<path d="M37.75 42.5C40.5114 42.5 42.75 40.2614 42.75 37.5C42.75 34.7386 40.5114 32.5 37.75 32.5C34.9886 32.5 32.75 34.7386 32.75 37.5C32.75 40.2614 34.9886 42.5 37.75 42.5Z" stroke="white" stroke-opacity="0.87" stroke-width="2" stroke-linecap="round" stroke-linejoin="round"/>
<path d="M11.75 42.5C14.5114 42.5 16.75 40.2614 16.75 37.5C16.75 34.7386 14.5114 32.5 11.75 32.5C8.98858 32.5 6.75 34.7386 6.75 37.5C6.75 40.2614 8.98858 42.5 11.75 42.5Z" stroke="white" stroke-opacity="0.87" stroke-width="2" stroke-linecap="round" stroke-linejoin="round"/>
<path d="M32.75 16.5H40.75L46.75 22.5V32.5H32.75V16.5Z" stroke="white" stroke-opacity="0.87" stroke-width="2" stroke-linecap="round" stroke-linejoin="round"/>
<path d="M32.75 6.5H2.75V32.5H32.75V6.5Z" stroke="white" stroke-opacity="0.87" stroke-width="2" stroke-linecap="round" stroke-linejoin="round"/>
</svg>
